<svg width="514" height="514" viewBox="0 0 514 514" fill="none" xmlns="http://www.w3.org/2000/svg">
<rect width="514" height="514" fill="#E5E5E5"/>
<rect width="514" height="514" fill="#002911"/>
<path d="M134.643 37.4657C135.171 37.0896 135.65 36.73 136.052 36.4274L136.357 36.1973C137.716 35.1775 139.132 34.6603 140.568 34.6603C142.747 34.6603 144.16 35.8348 144.666 36.3433C145.069 35.9402 146.199 35.0015 147.936 35.0015C149.073 35.0015 150.191 35.4085 151.259 36.2109L151.488 36.3849C151.96 36.7406 152.581 37.2027 153.265 37.6561C153.551 37.3738 153.675 37.0712 153.675 36.8102L154.673 30.8689C154.673 30.1391 153.788 28.7731 150.82 29.0834C147.897 29.3909 144.033 32.6534 144.033 32.6534C144.033 32.6534 140.149 29.5165 137.246 29.0834C134.209 28.6301 133.393 30.1381 133.393 30.868L134.391 36.8093C134.392 37.0123 134.474 37.2414 134.643 37.4657ZM150.822 30.3189C152.973 30.0124 153.697 30.9472 153.697 31.4866C153.697 32.0251 152.944 32.6534 150.822 32.6534H145.997C147.467 31.5176 149.48 30.5084 150.822 30.3189ZM137.249 30.3189C138.59 30.489 140.598 31.5176 142.075 32.6534H137.249C135.127 32.6534 134.374 32.0251 134.374 31.4866C134.373 30.9472 135.133 30.0472 137.249 30.3189Z" fill="#FFC42C" fill-opacity="0.29"/>
<path d="M153.327 46.1321C153.515 45.9523 153.705 45.7676 153.898 45.5752C156.764 42.7119 158.174 40.2352 158.174 40.2352C155.497 40.7795 152.183 38.1491 150.661 37.0084C148.335 35.2616 146.301 36.1229 145.373 37.05C145.353 37.0703 145.332 37.0935 145.313 37.1157C146.361 38.6237 146.76 40.7437 145.804 42.9652C147.066 44.6521 149.04 47.497 148.57 49.8393C148.57 49.8393 149.604 49.2497 151.108 48.0597C151.174 48.1776 151.251 48.2897 151.352 48.3903C151.94 48.979 152.894 48.979 153.484 48.3903C154.072 47.8015 154.072 46.8465 153.484 46.2577C153.434 46.2094 153.38 46.1727 153.327 46.1321ZM150.824 39.5315C149.317 38.0244 147.218 37.6812 147.699 37.2017C148.176 36.7223 149.952 37.3902 151.459 38.8964C152.967 40.4025 154.623 40.7708 155.717 40.822C154.629 41.2 152.33 41.0376 150.824 39.5315Z" fill="#FFC42C" fill-opacity="0.29"/>
<path d="M136.956 36.9968C134.938 38.5106 130.547 41.9946 127 41.2735C127 41.2735 128.87 44.5554 132.664 48.3506C132.919 48.6058 133.17 48.8504 133.42 49.0882C133.349 49.1414 133.279 49.1917 133.215 49.2555C132.435 50.0346 132.435 51.2991 133.215 52.0811C133.997 52.8612 135.26 52.8612 136.04 52.0811C136.173 51.9487 136.274 51.7988 136.361 51.6432C138.354 53.2189 139.726 54 139.726 54C139.019 50.4696 142.5 46.0731 144.016 44.0595C146.334 40.9767 145.19 38.2796 143.962 37.0509C142.734 35.8223 140.04 34.6806 136.956 36.9968ZM136.738 40.3406C134.74 42.3378 131.696 42.5514 130.253 42.0516C131.704 41.984 133.901 41.4958 135.896 39.4996C137.892 37.5043 140.247 36.6198 140.883 37.2549C141.517 37.89 138.736 38.3444 136.738 40.3406Z" fill="#FFC42C" fill-opacity="0.29"/>
<path d="M450.724 353.034C451.37 352.973 451.964 352.901 452.464 352.84L452.843 352.793C454.53 352.589 456.015 352.849 457.258 353.567C459.146 354.657 459.782 356.38 459.966 357.074C460.517 356.926 461.964 356.678 463.468 357.547C464.453 358.115 465.218 359.027 465.742 360.256L465.853 360.521C466.084 361.065 466.39 361.775 466.756 362.51C467.145 362.409 467.404 362.209 467.534 361.983L471.369 357.336C471.734 356.704 471.651 355.079 468.926 353.864C466.24 352.668 461.263 353.562 461.263 353.562C461.263 353.562 459.467 348.903 457.17 347.076C454.766 345.165 453.305 346.063 452.941 346.695L450.835 352.34C450.734 352.516 450.691 352.756 450.724 353.034ZM468.309 354.934C470.325 355.745 470.485 356.916 470.215 357.383C469.946 357.85 468.98 358.017 467.142 356.956L462.964 354.544C464.804 354.295 467.052 354.427 468.309 354.934ZM456.555 348.148C457.631 348.966 458.855 350.86 459.567 352.582L455.387 350.17C453.55 349.109 453.212 348.188 453.481 347.722C453.75 347.254 454.858 346.855 456.555 348.148Z" fill="#FFC42C" fill-opacity="0.29"/>
<path d="M462.572 369.881C462.825 369.82 463.082 369.755 463.345 369.685C467.258 368.638 469.718 367.198 469.718 367.198C467.128 366.331 465.573 362.396 464.825 360.647C463.684 357.971 461.492 357.7 460.225 358.039C460.197 358.047 460.168 358.057 460.14 358.066C460.293 359.896 459.579 361.932 457.641 363.377C457.89 365.469 458.177 368.92 456.599 370.714C456.599 370.714 457.789 370.72 459.687 370.442C459.685 370.577 459.695 370.712 459.733 370.85C459.947 371.653 460.774 372.13 461.579 371.915C462.383 371.7 462.86 370.873 462.645 370.069C462.626 370.002 462.598 369.943 462.572 369.881ZM463.705 362.914C463.153 360.855 461.507 359.509 462.163 359.334C462.816 359.157 464.02 360.623 464.572 362.681C465.125 364.74 466.375 365.887 467.297 366.478C466.166 366.261 464.256 364.971 463.705 362.914Z" fill="#FFC42C" fill-opacity="0.29"/>
<path d="M452.962 353.785C450.458 354.087 444.913 354.908 442.202 352.51C442.202 352.51 442.18 356.287 443.568 361.471C443.661 361.82 443.757 362.157 443.854 362.488C443.766 362.499 443.68 362.507 443.593 362.53C442.528 362.815 441.895 363.91 442.18 364.977C442.467 366.044 443.561 366.676 444.626 366.39C444.808 366.342 444.971 366.263 445.124 366.172C446.062 368.532 446.859 369.895 446.859 369.895C448.012 366.484 453.225 364.417 455.545 363.431C459.094 361.92 459.452 359.013 459.002 357.334C458.553 355.656 456.791 353.321 452.962 353.785ZM451.102 356.572C448.373 357.302 445.63 355.965 444.63 354.811C445.92 355.478 448.067 356.153 450.793 355.422C453.519 354.692 456 355.103 456.234 355.971C456.465 356.839 453.829 355.841 451.102 356.572Z" fill="#FFC42C" fill-opacity="0.29"/>
<path d="M415.445 123.65C415.54 124.5 415.388 125.384 414.928 126.181C414.903 126.227 414.888 126.277 414.864 126.324L419.908 127.198C420.225 126.322 420.399 125.418 420.436 124.517L415.445 123.65Z" fill="#FF6262" fill-opacity="0.29"/>
<path d="M400.93 123.907L406.151 124.813L407.606 122.292L402.386 121.386L400.93 123.907Z" fill="#FF6262" fill-opacity="0.29"/>
<path d="M415.84 129.577C417.003 130.249 418.483 129.867 419.186 128.733L414.662 127.948C414.805 128.609 415.207 129.213 415.84 129.577Z" fill="#FF6262" fill-opacity="0.29"/>
<path d="M398.606 127.937L403.822 128.842L405.279 126.321L400.061 125.417L398.606 127.937Z" fill="#FF6262" fill-opacity="0.29"/>
<path d="M420.356 122.841C420.21 121.819 419.892 120.825 419.416 119.904L405.139 117.429C404.485 118.033 403.912 118.742 403.444 119.552L403.258 119.877L408.805 120.838C410.095 119.84 411.912 119.655 413.411 120.521C414.004 120.863 414.465 121.339 414.813 121.88L420.356 122.841Z" fill="#FF6262" fill-opacity="0.29"/>
<path d="M396.278 131.969L401.497 132.875L402.954 130.354L397.733 129.446L396.278 131.969Z" fill="#FF6262" fill-opacity="0.29"/>
<path d="M415.9 116.216C413.064 114.578 409.715 114.652 407.024 116.095L418.117 118.018C417.493 117.321 416.753 116.708 415.9 116.216Z" fill="#FF6262" fill-opacity="0.29"/>
<path d="M392.235 143.94C393.426 144.627 394.945 144.218 395.633 143.028L395.971 142.442L391.008 141.581C390.934 142.512 391.378 143.444 392.235 143.94Z" fill="#FF6262" fill-opacity="0.29"/>
<path d="M393.95 135.998L399.17 136.904L400.626 134.382L395.407 133.477L393.95 135.998Z" fill="#FF6262" fill-opacity="0.29"/>
<path d="M391.621 140.031L396.842 140.935L398.299 138.413L393.077 137.509L391.621 140.031Z" fill="#FF6262" fill-opacity="0.29"/>
<path d="M272.445 31.65C272.54 32.5003 272.388 33.3838 271.928 34.1806C271.903 34.2269 271.888 34.2767 271.864 34.3241L276.908 35.1981C277.225 34.3218 277.399 33.4181 277.436 32.5169L272.445 31.65Z" fill="#FF6262" fill-opacity="0.29"/>
<path d="M257.93 31.9074L263.151 32.8134L264.606 30.2922L259.386 29.3862L257.93 31.9074Z" fill="#FF6262" fill-opacity="0.29"/>
<path d="M272.84 37.5769C274.003 38.2493 275.483 37.8675 276.186 36.7326L271.662 35.9476C271.805 36.6093 272.207 37.2129 272.84 37.5769Z" fill="#FF6262" fill-opacity="0.29"/>
<path d="M255.606 35.9369L260.822 36.8417L262.279 34.3206L257.061 33.4169L255.606 35.9369Z" fill="#FF6262" fill-opacity="0.29"/>
<path d="M277.356 30.8413C277.21 29.8191 276.892 28.8253 276.416 27.9039L262.139 25.429C261.485 26.0326 260.912 26.7418 260.444 27.5517L260.258 27.8766L265.805 28.8384C267.095 27.8399 268.912 27.6549 270.411 28.5205C271.004 28.8633 271.465 29.3388 271.813 29.8795L277.356 30.8413Z" fill="#FF6262" fill-opacity="0.29"/>
<path d="M253.278 39.9688L258.497 40.8748L259.954 38.3537L254.733 37.4465L253.278 39.9688Z" fill="#FF6262" fill-opacity="0.29"/>
<path d="M272.9 24.2159C270.064 22.5782 266.715 22.6517 264.024 24.0949L275.117 26.0184C274.493 25.3211 273.753 24.708 272.9 24.2159Z" fill="#FF6262" fill-opacity="0.29"/>
<path d="M249.235 51.9401C250.426 52.6267 251.945 52.2175 252.633 51.0281L252.971 50.4423L248.008 49.5814C247.934 50.5123 248.378 51.4444 249.235 51.9401Z" fill="#FF6262" fill-opacity="0.29"/>
<path d="M250.95 43.9984L256.17 44.9044L257.626 42.382L252.407 41.4772L250.95 43.9984Z" fill="#FF6262" fill-opacity="0.29"/>
<path d="M248.621 48.0315L253.842 48.9351L255.299 46.4128L250.077 45.5092L248.621 48.0315Z" fill="#FF6262" fill-opacity="0.29"/>
<path d="M311.166 275.644C309.232 275.446 307.559 275.708 306.104 276.38C306.264 274.819 306.141 273.56 305.914 272.494C306.412 271.567 307.055 271.324 307.856 271.066C309.423 270.557 310.74 269.88 310.931 266.72C310.965 266.226 310.593 265.8 310.11 265.769C309.618 265.751 309.212 266.116 309.182 266.61C309.05 268.798 308.438 268.996 307.329 269.356C306.732 269.549 306 269.79 305.326 270.377C304.708 268.404 304.444 267.235 307.094 264.534C307.438 264.185 307.441 263.614 307.098 263.264C306.756 262.914 306.202 262.911 305.858 263.262C302.365 266.818 302.989 268.803 303.71 271.099C304.216 272.715 304.78 274.551 304.133 277.655C303.617 278.117 303.154 278.678 302.715 279.295C302.569 278.864 302.406 278.46 302.247 278.099C301.673 276.798 301.48 276.361 302.643 275.463C303.029 275.166 303.108 274.603 302.817 274.206C302.528 273.81 301.978 273.731 301.59 274.027C299.298 275.788 300.045 277.478 300.648 278.838C301.047 279.74 301.446 280.676 301.263 281.877C301.164 282.068 300.999 282.302 300.801 282.592C300.585 282.908 300.339 283.268 300.108 283.652C298.506 281.99 296.022 281.577 292.974 282.715C290.032 281.662 287.522 282.071 285.882 283.726C285.638 283.312 285.377 282.926 285.147 282.592C284.949 282.304 284.786 282.068 284.686 281.877C284.5 280.676 284.901 279.74 285.301 278.838C285.901 277.478 286.649 275.786 284.358 274.027C283.975 273.73 283.424 273.808 283.133 274.204C282.844 274.6 282.922 275.165 283.309 275.461C284.475 276.359 284.28 276.796 283.705 278.097C283.544 278.459 283.384 278.864 283.237 279.295C282.799 278.678 282.334 278.117 281.818 277.655C281.172 274.551 281.735 272.717 282.242 271.099C282.962 268.803 283.587 266.818 280.093 263.262C279.75 262.912 279.194 262.914 278.855 263.264C278.512 263.614 278.515 264.184 278.859 264.534C281.509 267.235 281.242 268.404 280.625 270.377C279.954 269.79 279.223 269.549 278.625 269.356C277.515 268.996 276.904 268.796 276.771 266.61C276.742 266.116 276.335 265.751 275.843 265.769C275.36 265.799 274.993 266.226 275.022 266.72C275.214 269.881 276.528 270.559 278.098 271.066C278.9 271.326 279.541 271.567 280.041 272.494C279.811 273.561 279.692 274.819 279.851 276.38C278.397 275.708 276.723 275.446 274.789 275.644C274.308 275.695 273.956 276.133 274.004 276.626C274.051 277.118 274.48 277.477 274.963 277.431C278.863 277.03 281.354 278.603 283.032 282.508C283.042 282.531 283.063 282.559 283.072 282.585C283.079 282.597 283.087 282.611 283.095 282.623C283.237 282.914 283.445 283.228 283.714 283.621C284.052 284.115 284.47 284.74 284.743 285.354C284.678 285.49 284.609 285.622 284.55 285.769C281.763 284.13 276.924 282.754 276.153 284.128C275.375 285.506 280.964 290.299 283.745 291.945C284.272 292.256 284.63 292.4 284.917 292.47C285.951 294.607 287.396 297.13 287.38 298.683C287.328 304.068 289.601 305.001 292.976 304.999C296.351 304.999 298.557 304.068 298.57 298.686C298.573 297.132 300.017 294.607 301.042 292.47C301.331 292.396 301.686 292.256 302.207 291.945C304.988 290.297 310.577 285.504 309.8 284.128C309.029 282.759 304.219 284.123 301.43 285.755C301.371 285.593 301.296 285.447 301.227 285.297C301.502 284.704 301.91 284.1 302.239 283.623C302.509 283.23 302.715 282.916 302.858 282.625C302.866 282.611 302.873 282.597 302.879 282.587C302.892 282.561 302.909 282.533 302.921 282.51C304.599 278.603 307.085 277.03 310.989 277.431C311.471 277.477 311.899 277.12 311.947 276.626C311.998 276.132 311.647 275.695 311.166 275.644ZM292.979 296.575C294.028 296.575 294.881 296.876 294.881 297.245C294.881 297.613 294.03 299.211 292.979 299.211C291.929 299.211 291.078 297.613 291.078 297.245C291.078 296.876 291.931 296.575 292.979 296.575ZM288.615 291.061C288.351 289.615 288.556 288.284 289.07 288.08C289.586 287.875 290.216 288.88 290.479 290.322C290.741 291.763 290.533 293.097 290.021 293.3C289.506 293.507 288.877 292.504 288.615 291.061ZM292.979 303.754C291.081 303.754 289.546 301.033 289.546 300.568C289.546 300.105 291.081 300.874 292.979 300.874C294.877 300.874 296.413 300.103 296.413 300.568C296.413 301.033 294.877 303.754 292.979 303.754ZM297.344 291.061C297.082 292.504 296.452 293.507 295.939 293.304C295.424 293.102 295.218 291.766 295.479 290.325C295.742 288.882 296.373 287.877 296.888 288.081C297.4 288.284 297.606 289.618 297.344 291.061Z" fill="#543C00" fill-opacity="0.62"/>
<path d="M92.2052 262.737C90.8658 263.24 89.8496 263.96 89.111 264.88C88.705 263.799 88.2114 263.009 87.7131 262.381C87.7377 261.607 88.0815 261.237 88.5252 260.804C89.391 259.955 90.0364 259.078 89.128 256.933C88.9883 256.597 88.6038 256.438 88.2757 256.576C87.9457 256.725 87.7978 257.098 87.9396 257.434C88.5687 258.919 88.2304 259.249 87.6179 259.85C87.2875 260.173 86.8842 260.571 86.6324 261.178C85.5789 260.081 85.0226 259.397 85.884 256.749C85.9962 256.407 85.8113 256.03 85.4703 255.912C85.1304 255.793 84.7641 255.972 84.6531 256.316C83.5156 259.803 84.5771 260.907 85.8036 262.183C86.6666 263.083 87.6394 264.108 88.2296 266.365C88.0407 266.838 87.9193 267.359 87.8319 267.91C87.5952 267.674 87.3555 267.461 87.1318 267.275C86.328 266.605 86.0575 266.381 86.5296 265.408C86.6873 265.086 86.5546 264.69 86.2328 264.523C85.9126 264.357 85.5248 264.485 85.3661 264.807C84.4323 266.718 85.4784 267.587 86.3205 268.286C86.8788 268.749 87.4485 269.235 87.7207 270.087C87.7182 270.245 87.6864 270.453 87.6507 270.709C87.612 270.988 87.5678 271.305 87.5411 271.635C85.9411 271.064 84.1694 271.605 82.5336 273.353C80.2504 273.623 78.7309 274.714 78.1917 276.342C77.8951 276.149 77.5971 275.98 77.3362 275.835C77.1114 275.71 76.9269 275.608 76.7979 275.515C76.2825 274.784 76.2402 274.036 76.208 273.312C76.1585 272.219 76.097 270.859 74.0117 270.45C73.6616 270.38 73.3242 270.612 73.2623 270.968C73.2015 271.324 73.4379 271.67 73.7896 271.738C74.8521 271.949 74.8668 272.3 74.9138 273.346C74.926 273.637 74.9536 273.956 74.9977 274.288C74.5073 274.025 74.0172 273.807 73.5262 273.672C72.0834 271.839 71.8543 270.446 71.658 269.213C71.3809 267.465 71.1424 265.953 67.6762 264.754C67.3353 264.635 66.9695 264.818 66.8611 265.16C66.7495 265.503 66.938 265.877 67.279 265.996C69.9098 266.908 70.1166 267.765 70.3565 269.267C69.7221 269.1 69.1613 269.181 68.7045 269.249C67.8551 269.376 67.3866 269.445 66.5834 268.048C66.4026 267.731 66.0147 267.624 65.6964 267.797C65.3882 267.975 65.286 268.376 65.4668 268.693C66.6283 270.713 67.7164 270.729 68.9171 270.549C69.5306 270.458 70.0315 270.406 70.6647 270.854C70.8625 271.632 71.1967 272.5 71.8121 273.477C70.6341 273.51 69.4453 273.885 68.2356 274.649C67.9354 274.84 67.8474 275.244 68.0403 275.553C68.2321 275.862 68.6326 275.958 68.9354 275.77C71.3744 274.228 73.5301 274.449 75.9154 276.473C75.9292 276.485 75.952 276.496 75.9669 276.51C75.9748 276.516 75.9849 276.523 75.9939 276.528C76.183 276.673 76.4227 276.812 76.7292 276.982C77.1131 277.198 77.5935 277.472 77.9744 277.787C77.9757 277.898 77.9739 278.008 77.9832 278.124C75.6096 277.957 71.971 278.635 71.9127 279.793C71.8513 280.955 77.1035 282.283 79.475 282.457C79.9241 282.489 80.207 282.467 80.4195 282.419C81.8003 283.489 83.5791 284.678 84.077 285.707C85.8057 289.272 87.6089 289.142 89.8323 288.036C92.0562 286.931 93.2048 285.595 91.4509 282.045C90.9439 281.019 91.0686 278.883 91.0445 277.139C91.2109 276.996 91.3985 276.787 91.6398 276.411C92.9326 274.415 95.0458 269.427 94.0836 268.774C93.1268 268.124 90.4046 270.599 89.1012 272.587C89.0092 272.499 88.912 272.428 88.8175 272.351C88.8045 271.871 88.8752 271.34 88.9355 270.917C88.9848 270.57 89.0177 270.296 89.017 270.057C89.018 270.045 89.0174 270.034 89.0184 270.025C89.0182 270.004 89.0207 269.98 89.0206 269.961C88.8472 266.836 89.9699 264.986 92.6735 263.972C93.0064 263.844 93.1716 263.469 93.0414 263.128C92.9132 262.785 92.5386 262.613 92.2052 262.737ZM87.0759 282.484C87.7674 282.141 88.428 282.06 88.5486 282.302C88.6691 282.545 88.6317 283.877 87.9391 284.221C87.2476 284.565 86.1631 283.79 86.0426 283.548C85.922 283.305 86.3854 282.828 87.0759 282.484ZM82.3947 280.28C81.7473 279.413 81.4464 278.47 81.7183 278.167C81.9913 277.863 82.735 278.319 83.3808 279.182C84.0254 280.046 84.3253 280.993 84.0539 281.295C83.7831 281.6 83.0399 281.145 82.3947 280.28ZM89.4266 287.214C88.1762 287.836 86.2737 286.545 86.1215 286.239C85.9699 285.934 87.2332 285.938 88.4835 285.317C89.7339 284.695 90.494 283.684 90.6462 283.991C90.7984 284.297 90.677 286.593 89.4266 287.214ZM88.1466 277.421C88.4466 278.458 88.3593 279.326 87.955 279.36C87.5497 279.395 86.9767 278.582 86.6762 277.547C86.3772 276.51 86.4639 275.641 86.8698 275.608C87.2741 275.573 87.8466 276.385 88.1466 277.421Z" fill="#543C00" fill-opacity="0.62"/>
<path d="M477.975 36.7662C477.867 36.3705 477.461 36.1341 477.046 36.2399L470.662 37.9207L468.451 36.6661L471.156 34.0757C471.361 33.8783 471.435 33.5809 471.346 33.312C471.256 33.0432 471.021 32.8468 470.735 32.8058L469.655 32.6504L470.66 32.0802L477.045 33.762C477.11 33.7792 477.178 33.7868 477.241 33.7868C477.576 33.7868 477.883 33.5675 477.974 33.2338C478.08 32.8363 477.841 32.4292 477.437 32.3224L472.515 31.0267L475.172 29.5175C475.535 29.3116 475.659 28.8559 475.449 28.5012C475.24 28.1446 474.779 28.0207 474.415 28.2285L471.761 29.7349L473.08 24.8983C473.186 24.5008 472.946 24.0917 472.543 23.9859C472.134 23.8801 471.723 24.1165 471.615 24.5122L469.905 30.7884L467.234 32.3043L466.547 32.2061L464.757 28.6337V27.8653L469.43 23.2718C469.726 22.981 469.726 22.5091 469.43 22.2183C469.134 21.9275 468.654 21.9275 468.358 22.2183L464.756 25.7583V22.7446C464.756 22.3337 464.417 22 463.999 22C463.58 22 463.242 22.3337 463.242 22.7446V25.7621L459.638 22.2193C459.343 21.9294 458.863 21.9285 458.567 22.2193C458.271 22.5091 458.271 22.982 458.567 23.2728L463.241 27.8691V28.6309L461.447 32.207L460.764 32.3043L458.093 30.7874L456.384 24.5122C456.277 24.1156 455.87 23.8791 455.456 23.985C455.052 24.0908 454.811 24.4998 454.921 24.8964L456.237 29.7339L453.583 28.2266C453.221 28.0197 452.757 28.1427 452.549 28.4983C452.34 28.8549 452.464 29.3097 452.826 29.5156L455.484 31.0248L450.562 32.3205C450.158 32.4273 449.917 32.8363 450.026 33.2319C450.118 33.5647 450.424 33.7849 450.759 33.7849C450.822 33.7849 450.889 33.7773 450.954 33.7601L457.34 32.0793L458.344 32.6494L457.263 32.8039C456.977 32.8449 456.74 33.0413 456.652 33.3101C456.562 33.579 456.637 33.8764 456.844 34.0738L459.549 36.667L457.338 37.9226L450.956 36.2399C450.548 36.1341 450.136 36.3696 450.027 36.7662C449.919 37.1628 450.158 37.5727 450.564 37.6786L455.481 38.9752L452.827 40.4825C452.465 40.6884 452.341 41.1432 452.55 41.4998C452.69 41.7391 452.945 41.8725 453.206 41.8725C453.334 41.8725 453.465 41.8401 453.584 41.7734L456.242 40.2642L454.923 45.1026C454.815 45.4992 455.053 45.9083 455.458 46.015C455.524 46.0322 455.59 46.0398 455.654 46.0398C455.989 46.0398 456.296 45.8205 456.386 45.4869L458.098 39.2078L459.633 38.3374L459.155 41.0755C459.107 41.3548 459.223 41.6361 459.458 41.8029C459.689 41.9698 460.001 41.9908 460.255 41.8592L463.243 40.3156V42.129L458.569 46.7244C458.273 47.0161 458.273 47.488 458.569 47.7788C458.864 48.0696 459.344 48.0696 459.64 47.7788L463.243 44.235V47.2525C463.243 47.6644 463.582 47.9971 464 47.9971C464.418 47.9971 464.757 47.6635 464.757 47.2525V44.2408L468.358 47.7817C468.506 47.9256 468.7 48 468.894 48C469.088 48 469.281 47.9285 469.43 47.7817C469.726 47.4899 469.726 47.018 469.43 46.7272L464.757 42.1347V40.3195L467.742 41.8611C467.852 41.9202 467.973 41.9479 468.094 41.9479C468.251 41.9479 468.409 41.9002 468.539 41.8058C468.772 41.639 468.889 41.3577 468.842 41.0784L468.364 38.3393L469.903 39.2116L471.614 45.4888C471.705 45.8224 472.011 46.0417 472.346 46.0417C472.409 46.0417 472.476 46.0331 472.542 46.0169C472.946 45.9102 473.186 45.5012 473.078 45.1045L471.759 40.2661L474.415 41.7753C474.534 41.8411 474.665 41.8744 474.793 41.8744C475.056 41.8744 475.31 41.741 475.45 41.5017C475.66 41.1451 475.535 40.6894 475.173 40.4844L472.519 38.978L477.439 37.6824C477.842 37.5727 478.081 37.1647 477.975 36.7662ZM464.35 38.4251C464.242 38.3679 464.119 38.3393 463.997 38.3393C463.876 38.3393 463.755 38.3679 463.645 38.4251L460.908 39.8389L461.43 36.8415C461.472 36.6003 461.391 36.3543 461.212 36.1817L458.998 34.0604L462.059 33.6238C462.306 33.5885 462.519 33.436 462.629 33.2167L463.996 30.49L465.364 33.2167C465.475 33.436 465.688 33.5895 465.936 33.6238L468.994 34.0604L466.782 36.1817C466.603 36.3533 466.521 36.5993 466.564 36.8415L467.086 39.8389L464.35 38.4251Z" fill="white" fill-opacity="0.25"/>
<path d="M103.975 389.766C103.867 389.371 103.461 389.134 103.046 389.24L96.662 390.921L94.451 389.666L97.1556 387.076C97.3612 386.878 97.4349 386.581 97.3456 386.312C97.2564 386.043 97.0208 385.847 96.7347 385.806L95.6554 385.65L96.6601 385.08L103.045 386.762C103.11 386.779 103.178 386.787 103.241 386.787C103.576 386.787 103.883 386.568 103.974 386.234C104.08 385.836 103.841 385.429 103.437 385.322L98.5151 384.027L101.172 382.518C101.535 382.312 101.659 381.856 101.449 381.501C101.24 381.145 100.779 381.021 100.415 381.229L97.7607 382.735L99.0795 377.898C99.1862 377.501 98.9457 377.092 98.5433 376.986C98.134 376.88 97.7229 377.117 97.6152 377.512L95.9046 383.788L93.234 385.304L92.5475 385.206L90.7574 381.634V380.865L95.4305 376.272C95.7262 375.981 95.7262 375.509 95.4305 375.218C95.1337 374.928 94.6537 374.928 94.358 375.218L90.7564 378.758V375.745C90.7564 375.334 90.417 375 89.9991 375C89.5802 375 89.2417 375.334 89.2417 375.745V378.762L85.6383 375.219C85.3435 374.929 84.8635 374.928 84.5667 375.219C84.271 375.509 84.271 375.982 84.5667 376.273L89.2408 380.869V381.631L87.4468 385.207L86.7641 385.304L84.0925 383.787L82.3839 377.512C82.2772 377.116 81.8699 376.879 81.4559 376.985C81.0525 377.091 80.811 377.5 80.9206 377.896L82.2375 382.734L79.5833 381.227C79.2207 381.02 78.7571 381.143 78.5487 381.498C78.3402 381.855 78.4643 382.31 78.826 382.516L81.484 384.025L76.5617 385.32C76.1583 385.427 75.9168 385.836 76.0264 386.232C76.1176 386.565 76.424 386.785 76.7586 386.785C76.8216 386.785 76.8885 386.777 76.9544 386.76L83.34 385.079L84.3437 385.649L83.2634 385.804C82.9774 385.845 82.7398 386.041 82.6525 386.31C82.5623 386.579 82.637 386.876 82.8435 387.074L85.549 389.667L83.3381 390.923L76.9564 389.24C76.5481 389.134 76.136 389.37 76.0274 389.766C75.9188 390.163 76.1583 390.573 76.5636 390.679L81.4811 391.975L78.827 393.482C78.4653 393.688 78.3411 394.143 78.5496 394.5C78.6902 394.739 78.9453 394.873 79.2061 394.873C79.3341 394.873 79.465 394.84 79.5843 394.773L82.2423 393.264L80.9225 398.103C80.8149 398.499 81.0534 398.908 81.4578 399.015C81.5237 399.032 81.5897 399.04 81.6537 399.04C81.9892 399.04 82.2956 398.821 82.3858 398.487L84.0983 392.208L85.6334 391.337L85.1553 394.076C85.1069 394.355 85.2232 394.636 85.4579 394.803C85.6887 394.97 86.0009 394.991 86.255 394.859L89.2427 393.316V395.129L84.5687 399.724C84.2729 400.016 84.2729 400.488 84.5687 400.779C84.8644 401.07 85.3444 401.07 85.6402 400.779L89.2427 397.235V400.253C89.2427 400.664 89.5821 400.997 90 400.997C90.418 400.997 90.7574 400.663 90.7574 400.253V397.241L94.358 400.782C94.5063 400.926 94.7003 401 94.8942 401C95.0881 401 95.2811 400.928 95.4305 400.782C95.7262 400.49 95.7262 400.018 95.4305 399.727L90.7574 395.135V393.319L93.7422 394.861C93.8518 394.92 93.973 394.948 94.0942 394.948C94.2513 394.948 94.4093 394.9 94.5393 394.806C94.772 394.639 94.8894 394.358 94.8418 394.078L94.3638 391.339L95.9027 392.212L97.6143 398.489C97.7054 398.822 98.0109 399.042 98.3464 399.042C98.4094 399.042 98.4763 399.033 98.5423 399.017C98.9457 398.91 99.1862 398.501 99.0776 398.105L97.7587 393.266L100.415 394.775C100.534 394.841 100.665 394.874 100.793 394.874C101.056 394.874 101.31 394.741 101.45 394.502C101.66 394.145 101.535 393.689 101.173 393.484L98.519 391.978L103.439 390.682C103.842 390.573 104.081 390.165 103.975 389.766ZM90.3501 391.425C90.2415 391.368 90.1193 391.339 89.9971 391.339C89.8759 391.339 89.7547 391.368 89.6451 391.425L86.9076 392.839L87.4303 389.841C87.472 389.6 87.3905 389.354 87.2121 389.182L84.9982 387.06L88.0587 386.624C88.3059 386.589 88.5193 386.436 88.6289 386.217L89.9962 383.49L91.3644 386.217C91.475 386.436 91.6883 386.589 91.9356 386.624L94.9941 387.06L92.7822 389.182C92.6028 389.353 92.5213 389.599 92.564 389.841L93.0857 392.839L90.3501 391.425Z" fill="white" fill-opacity="0.25"/>
<path d="M279.588 72.913C279.168 72.6146 278.789 72.3292 278.47 72.0891L278.228 71.9066C277.149 71.0973 276.026 70.687 274.887 70.687C273.157 70.687 272.036 71.6189 271.634 72.0224C271.314 71.7026 270.419 70.9577 269.04 70.9577C268.138 70.9577 267.251 71.2807 266.403 71.9173L266.221 72.0554C265.847 72.3377 265.354 72.7043 264.811 73.0641C264.584 72.8401 264.486 72.6 264.486 72.3929L263.695 67.6786C263.695 67.0995 264.396 66.0156 266.751 66.2619C269.071 66.5058 272.137 69.0946 272.137 69.0946C272.137 69.0946 275.219 66.6055 277.522 66.2619C279.932 65.9021 280.58 67.0987 280.58 67.6778L279.787 72.3921C279.787 72.5532 279.721 72.735 279.588 72.913ZM266.75 67.2421C265.043 66.999 264.469 67.7407 264.469 68.1687C264.469 68.596 265.066 69.0946 266.75 69.0946H270.578C269.412 68.1933 267.815 67.3925 266.75 67.2421ZM277.52 67.2421C276.456 67.3772 274.863 68.1933 273.691 69.0946H277.52C279.204 69.0946 279.801 68.596 279.801 68.1687C279.802 67.7407 279.199 67.0266 277.52 67.2421Z" fill="#FFC42C" fill-opacity="0.29"/>
<path d="M264.762 79.7896C264.613 79.6469 264.462 79.5004 264.309 79.3478C262.035 77.0758 260.916 75.1106 260.916 75.1106C263.04 75.5424 265.67 73.4553 266.878 72.5502C268.723 71.1641 270.337 71.8475 271.074 72.5831C271.09 72.5993 271.106 72.6177 271.121 72.6353C270.29 73.8319 269.973 75.514 270.731 77.2767C269.73 78.6152 268.164 80.8727 268.537 82.7312C268.537 82.7312 267.716 82.2633 266.523 81.3191C266.471 81.4127 266.41 81.5016 266.329 81.5814C265.863 82.0486 265.106 82.0486 264.638 81.5814C264.171 81.1143 264.171 80.3564 264.638 79.8893C264.677 79.851 264.72 79.8218 264.762 79.7896ZM266.748 74.5522C267.944 73.3563 269.609 73.084 269.228 72.7036C268.849 72.3231 267.44 72.8531 266.244 74.0482C265.048 75.2433 263.734 75.5355 262.866 75.5762C263.729 75.8761 265.553 75.7472 266.748 74.5522Z" fill="#FFC42C" fill-opacity="0.29"/>
<path d="M277.752 72.5409C279.353 73.7422 282.838 76.5066 285.652 75.9344C285.652 75.9344 284.169 78.5385 281.158 81.55C280.956 81.7525 280.756 81.9465 280.558 82.1352C280.614 82.1774 280.67 82.2173 280.721 82.2679C281.34 82.8862 281.34 83.8895 280.721 84.51C280.1 85.129 279.098 85.129 278.479 84.51C278.374 84.4049 278.293 84.286 278.224 84.1625C276.643 85.4128 275.555 86.0326 275.555 86.0326C276.115 83.2313 273.353 79.7428 272.151 78.145C270.311 75.6989 271.219 73.5588 272.193 72.5839C273.168 71.609 275.305 70.7031 277.752 72.5409ZM277.925 75.1942C279.51 76.7789 281.926 76.9484 283.071 76.5519C281.92 76.4982 280.176 76.1108 278.593 74.5268C277.01 72.9437 275.141 72.2418 274.637 72.7458C274.133 73.2497 276.34 73.6102 277.925 75.1942Z" fill="#FFC42C" fill-opacity="0.29"/>
<path d="M58.1428 186.831C57.6302 186.783 57.1587 186.725 56.7623 186.677L56.4618 186.64C55.1232 186.478 53.9448 186.685 52.9584 187.254C51.4604 188.119 50.9559 189.486 50.8095 190.037C50.3726 189.92 49.2243 189.723 48.0306 190.412C47.2494 190.863 46.6422 191.586 46.2265 192.562L46.1381 192.772C45.9551 193.204 45.7119 193.767 45.4215 194.35C45.1129 194.27 44.9078 194.111 44.8043 193.932L41.7616 190.245C41.472 189.743 41.5379 188.454 43.7004 187.49C45.8311 186.541 49.7807 187.25 49.7807 187.25C49.7807 187.25 51.2053 183.553 53.0283 182.104C54.9356 180.588 56.0946 181.3 56.3841 181.802L58.0551 186.281C58.1349 186.42 58.1694 186.61 58.1428 186.831ZM44.1892 188.339C42.5896 188.982 42.4629 189.912 42.6769 190.282C42.8905 190.652 43.6573 190.785 45.1154 189.944L48.4309 188.029C46.9705 187.832 45.1871 187.937 44.1892 188.339ZM53.5164 182.954C52.6626 183.603 51.6909 185.106 51.1265 186.473L54.4426 184.558C55.9008 183.717 56.1689 182.986 55.9553 182.616C55.742 182.245 54.8628 181.928 53.5164 182.954Z" fill="#FFC42C" fill-opacity="0.29"/>
<path d="M48.7418 200.199C48.5409 200.151 48.3374 200.099 48.1283 200.043C45.0233 199.213 43.0715 198.07 43.0715 198.07C45.1269 197.382 46.3605 194.26 46.9541 192.872C47.8594 190.749 49.5988 190.534 50.6043 190.803C50.6263 190.809 50.6494 190.817 50.6715 190.824C50.5498 192.276 51.1165 193.891 52.6548 195.039C52.4572 196.698 52.2294 199.436 53.4815 200.86C53.4815 200.86 52.5368 200.865 51.031 200.644C51.0327 200.751 51.0247 200.858 50.9948 200.968C50.8245 201.605 50.1688 201.984 49.5301 201.813C48.8919 201.642 48.513 200.986 48.684 200.348C48.6987 200.295 48.7213 200.248 48.7418 200.199ZM47.8429 194.671C48.2806 193.037 49.5866 191.969 49.0662 191.83C48.5478 191.69 47.5926 192.853 47.1545 194.486C46.7157 196.12 45.7239 197.03 44.9929 197.499C45.8902 197.327 47.4055 196.303 47.8429 194.671Z" fill="#FFC42C" fill-opacity="0.29"/>
<path d="M56.3671 187.427C58.3541 187.667 62.7542 188.319 64.9053 186.416C64.9053 186.416 64.9227 189.413 63.8211 193.526C63.7469 193.803 63.6713 194.071 63.5942 194.333C63.6638 194.341 63.7322 194.348 63.8014 194.366C64.6466 194.592 65.1482 195.461 64.9224 196.308C64.6945 197.155 63.8263 197.656 62.9814 197.429C62.8372 197.391 62.708 197.328 62.5865 197.256C61.8425 199.129 61.2098 200.21 61.2098 200.21C60.2947 197.504 56.1584 195.863 54.3179 195.081C51.5019 193.882 51.2177 191.575 51.5745 190.244C51.9307 188.912 53.3291 187.059 56.3671 187.427ZM57.8432 189.638C60.0086 190.218 62.1852 189.157 62.9787 188.241C61.9548 188.77 60.2512 189.307 58.0881 188.726C55.9254 188.147 53.9563 188.473 53.7712 189.162C53.5874 189.85 55.6788 189.059 57.8432 189.638Z" fill="#FFC42C" fill-opacity="0.29"/>
<path d="M361.96 63.8636C361.885 64.5383 362.006 65.2393 362.371 65.8716C362.39 65.9083 362.403 65.9478 362.422 65.9855L358.419 66.6789C358.167 65.9836 358.029 65.2666 358 64.5514L361.96 63.8636Z" fill="#FF6262" fill-opacity="0.29"/>
<path d="M373.478 64.0678L369.335 64.7867L368.18 62.7862L372.322 62.0673L373.478 64.0678Z" fill="#FF6262" fill-opacity="0.29"/>
<path d="M361.647 68.5665C360.724 69.1 359.55 68.797 358.992 67.8965L362.581 67.2736C362.469 67.7987 362.15 68.2776 361.647 68.5665Z" fill="#FF6262" fill-opacity="0.29"/>
<path d="M375.322 67.2652L371.183 67.9831L370.027 65.9826L374.167 65.2656L375.322 67.2652Z" fill="#FF6262" fill-opacity="0.29"/>
<path d="M358.064 63.2219C358.18 62.4108 358.432 61.6223 358.809 60.8911L370.138 58.9274C370.657 59.4063 371.111 59.969 371.483 60.6117L371.631 60.8695L367.229 61.6326C366.205 60.8403 364.764 60.6935 363.574 61.3804C363.104 61.6524 362.738 62.0297 362.462 62.4588L358.064 63.2219Z" fill="#FF6262" fill-opacity="0.29"/>
<path d="M377.169 70.4644L373.028 71.1833L371.872 69.1828L376.015 68.463L377.169 70.4644Z" fill="#FF6262" fill-opacity="0.29"/>
<path d="M361.599 57.9648C363.85 56.6653 366.507 56.7236 368.642 57.8688L359.84 59.395C360.335 58.8417 360.923 58.3553 361.599 57.9648Z" fill="#FF6262" fill-opacity="0.29"/>
<path d="M380.377 79.9633C379.432 80.5081 378.227 80.1835 377.681 79.2397L377.413 78.7749L381.351 78.0918C381.409 78.8304 381.057 79.57 380.377 79.9633Z" fill="#FF6262" fill-opacity="0.29"/>
<path d="M379.016 73.6617L374.874 74.3806L373.719 72.3792L377.86 71.6613L379.016 73.6617Z" fill="#FF6262" fill-opacity="0.29"/>
<path d="M380.864 76.8619L376.721 77.5789L375.566 75.5775L379.709 74.8605L380.864 76.8619Z" fill="#FF6262" fill-opacity="0.29"/>
<path d="M168.621 125.236C170.15 125.076 171.472 125.288 172.623 125.832C172.496 124.568 172.594 123.548 172.773 122.686C172.379 121.935 171.871 121.739 171.238 121.53C169.999 121.118 168.958 120.569 168.807 118.011C168.78 117.611 169.075 117.267 169.456 117.242C169.845 117.227 170.166 117.523 170.19 117.923C170.294 119.694 170.778 119.854 171.654 120.145C172.126 120.302 172.705 120.496 173.238 120.972C173.726 119.374 173.935 118.429 171.84 116.242C171.568 115.96 171.566 115.497 171.837 115.214C172.107 114.93 172.546 114.928 172.817 115.212C175.578 118.091 175.085 119.698 174.515 121.556C174.115 122.865 173.669 124.351 174.181 126.864C174.589 127.238 174.955 127.692 175.302 128.191C175.417 127.843 175.546 127.516 175.672 127.223C176.125 126.17 176.278 125.816 175.359 125.089C175.053 124.849 174.991 124.394 175.221 124.072C175.45 123.751 175.884 123.687 176.191 123.927C178.003 125.353 177.412 126.721 176.936 127.822C176.62 128.552 176.304 129.309 176.45 130.282C176.528 130.437 176.658 130.626 176.815 130.86C176.985 131.116 177.179 131.407 177.363 131.719C178.629 130.373 180.592 130.039 183.001 130.96C185.327 130.108 187.311 130.439 188.608 131.778C188.801 131.443 189.007 131.131 189.188 130.86C189.345 130.627 189.474 130.437 189.553 130.282C189.7 129.309 189.383 128.552 189.067 127.822C188.592 126.721 188.002 125.351 189.812 123.927C190.115 123.686 190.551 123.75 190.781 124.07C191.009 124.391 190.947 124.848 190.642 125.088C189.72 125.815 189.874 126.169 190.329 127.222C190.456 127.514 190.582 127.843 190.699 128.191C191.044 127.692 191.412 127.238 191.82 126.864C192.331 124.351 191.885 122.866 191.485 121.556C190.916 119.698 190.422 118.091 193.183 115.212C193.455 114.929 193.894 114.93 194.162 115.214C194.433 115.497 194.431 115.958 194.159 116.242C192.065 118.429 192.276 119.374 192.763 120.972C193.293 120.496 193.872 120.302 194.344 120.145C195.221 119.854 195.705 119.692 195.81 117.923C195.832 117.523 196.154 117.227 196.543 117.242C196.925 117.266 197.215 117.611 197.192 118.011C197.041 120.571 196.002 121.119 194.76 121.53C194.127 121.74 193.62 121.935 193.225 122.686C193.407 123.55 193.5 124.568 193.375 125.832C194.524 125.288 195.848 125.076 197.377 125.236C197.757 125.277 198.034 125.632 197.997 126.031C197.96 126.429 197.62 126.72 197.239 126.682C194.156 126.358 192.187 127.631 190.86 130.793C190.853 130.811 190.836 130.834 190.829 130.855C190.824 130.864 190.817 130.876 190.811 130.886C190.699 131.121 190.534 131.376 190.321 131.694C190.055 132.094 189.724 132.6 189.508 133.096C189.56 133.206 189.614 133.314 189.661 133.433C191.864 132.106 195.688 130.992 196.298 132.104C196.913 133.22 192.495 137.099 190.297 138.432C189.88 138.684 189.597 138.8 189.37 138.857C188.553 140.587 187.411 142.63 187.423 143.887C187.465 148.246 185.668 149.001 183 149C180.332 149 178.589 148.246 178.578 143.89C178.576 142.631 177.435 140.587 176.624 138.857C176.395 138.798 176.115 138.684 175.703 138.432C173.505 137.098 169.087 133.218 169.701 132.104C170.311 130.996 174.113 132.1 176.317 133.421C176.364 133.29 176.423 133.172 176.477 133.05C176.26 132.571 175.938 132.082 175.678 131.695C175.465 131.377 175.302 131.123 175.188 130.887C175.182 130.876 175.177 130.864 175.172 130.856C175.162 130.835 175.148 130.813 175.139 130.794C173.812 127.631 171.847 126.358 168.761 126.682C168.38 126.72 168.042 126.431 168.004 126.031C167.964 125.631 168.241 125.277 168.621 125.236ZM182.998 142.181C182.168 142.181 181.494 142.424 181.494 142.723C181.494 143.021 182.167 144.315 182.998 144.315C183.827 144.315 184.5 143.021 184.5 142.723C184.5 142.424 183.826 142.181 182.998 142.181ZM186.447 137.717C186.656 136.546 186.494 135.469 186.087 135.303C185.68 135.138 185.182 135.951 184.974 137.118C184.767 138.285 184.931 139.365 185.336 139.529C185.743 139.697 186.24 138.885 186.447 137.717ZM182.998 147.992C184.498 147.992 185.711 145.789 185.711 145.413C185.711 145.038 184.498 145.661 182.998 145.661C181.498 145.661 180.283 145.037 180.283 145.413C180.283 145.789 181.498 147.992 182.998 147.992ZM179.547 137.717C179.754 138.885 180.253 139.697 180.658 139.533C181.065 139.369 181.227 138.288 181.022 137.121C180.813 135.952 180.315 135.139 179.908 135.305C179.503 135.469 179.34 136.548 179.547 137.717Z" fill="#543C00" fill-opacity="0.62"/>
<path d="M356.87 305.291C357.933 305.69 358.739 306.262 359.325 306.991C359.647 306.134 360.039 305.507 360.434 305.009C360.415 304.394 360.142 304.101 359.79 303.757C359.103 303.084 358.591 302.388 359.311 300.686C359.422 300.419 359.727 300.293 359.988 300.402C360.25 300.521 360.367 300.817 360.254 301.083C359.755 302.262 360.024 302.524 360.51 303C360.772 303.256 361.092 303.572 361.292 304.055C362.128 303.184 362.569 302.641 361.885 300.54C361.796 300.269 361.943 299.969 362.214 299.875C362.483 299.781 362.774 299.924 362.862 300.197C363.765 302.963 362.923 303.839 361.949 304.852C361.265 305.566 360.493 306.379 360.024 308.17C360.174 308.545 360.271 308.959 360.34 309.396C360.528 309.209 360.718 309.04 360.895 308.892C361.533 308.361 361.748 308.183 361.373 307.411C361.248 307.156 361.353 306.841 361.609 306.709C361.863 306.577 362.171 306.678 362.296 306.934C363.037 308.45 362.207 309.14 361.539 309.694C361.096 310.062 360.644 310.447 360.428 311.123C360.43 311.249 360.455 311.414 360.484 311.617C360.514 311.838 360.549 312.09 360.571 312.351C361.84 311.898 363.246 312.328 364.544 313.715C366.356 313.929 367.561 314.795 367.989 316.086C368.225 315.933 368.461 315.799 368.668 315.684C368.846 315.585 368.993 315.504 369.095 315.43C369.504 314.851 369.538 314.257 369.563 313.682C369.603 312.815 369.651 311.736 371.306 311.412C371.584 311.356 371.851 311.54 371.901 311.822C371.949 312.105 371.761 312.379 371.482 312.434C370.639 312.6 370.627 312.88 370.59 313.709C370.58 313.94 370.559 314.194 370.524 314.457C370.913 314.248 371.302 314.075 371.691 313.968C372.836 312.513 373.018 311.408 373.174 310.43C373.393 309.043 373.583 307.843 376.333 306.891C376.604 306.798 376.894 306.943 376.98 307.214C377.068 307.486 376.919 307.783 376.648 307.877C374.561 308.601 374.397 309.281 374.206 310.473C374.71 310.34 375.155 310.405 375.517 310.459C376.191 310.559 376.563 310.614 377.2 309.505C377.344 309.254 377.651 309.169 377.904 309.307C378.148 309.447 378.23 309.766 378.086 310.017C377.164 311.62 376.301 311.633 375.348 311.49C374.862 311.417 374.464 311.377 373.962 311.732C373.805 312.349 373.54 313.038 373.051 313.813C373.986 313.839 374.929 314.137 375.889 314.743C376.127 314.895 376.197 315.216 376.044 315.461C375.892 315.706 375.574 315.782 375.334 315.632C373.399 314.409 371.688 314.584 369.795 316.19C369.784 316.2 369.766 316.209 369.755 316.22C369.748 316.224 369.74 316.23 369.733 316.234C369.583 316.349 369.393 316.46 369.15 316.595C368.845 316.766 368.464 316.984 368.162 317.233C368.161 317.321 368.162 317.409 368.155 317.501C370.038 317.368 372.925 317.906 372.971 318.825C373.02 319.747 368.853 320.801 366.971 320.939C366.615 320.964 366.39 320.947 366.221 320.909C365.126 321.758 363.714 322.701 363.319 323.517C361.948 326.346 360.517 326.243 358.753 325.365C356.988 324.488 356.077 323.428 357.468 320.611C357.871 319.798 357.772 318.103 357.791 316.719C357.659 316.605 357.51 316.439 357.318 316.142C356.293 314.558 354.616 310.599 355.379 310.082C356.139 309.566 358.299 311.529 359.333 313.107C359.406 313.038 359.483 312.981 359.558 312.92C359.568 312.539 359.512 312.118 359.464 311.782C359.425 311.507 359.399 311.289 359.4 311.099C359.399 311.09 359.399 311.081 359.398 311.074C359.399 311.057 359.397 311.038 359.397 311.023C359.534 308.544 358.643 307.076 356.498 306.271C356.234 306.17 356.103 305.872 356.206 305.601C356.308 305.33 356.605 305.193 356.87 305.291ZM360.94 320.96C360.391 320.688 359.867 320.624 359.771 320.816C359.676 321.009 359.705 322.066 360.255 322.339C360.804 322.611 361.664 321.997 361.76 321.804C361.855 321.612 361.488 321.233 360.94 320.96ZM364.654 319.211C365.168 318.524 365.407 317.775 365.191 317.534C364.974 317.293 364.384 317.655 363.872 318.34C363.36 319.026 363.122 319.777 363.338 320.016C363.553 320.259 364.142 319.898 364.654 319.211ZM359.075 324.714C360.067 325.207 361.576 324.183 361.697 323.94C361.817 323.698 360.815 323.701 359.823 323.208C358.831 322.715 358.228 321.913 358.107 322.156C357.986 322.399 358.082 324.22 359.075 324.714ZM360.09 316.943C359.852 317.766 359.921 318.454 360.242 318.481C360.564 318.509 361.019 317.864 361.257 317.043C361.494 316.22 361.425 315.531 361.103 315.504C360.782 315.477 360.328 316.12 360.09 316.943Z" fill="#543C00" fill-opacity="0.62"/>
<path d="M308.02 173.927C308.105 173.607 308.424 173.416 308.75 173.501L313.766 174.859L315.503 173.846L313.378 171.753C313.216 171.594 313.158 171.354 313.228 171.137C313.299 170.919 313.484 170.761 313.708 170.728L314.556 170.602L313.767 170.142L308.751 171.5C308.7 171.514 308.646 171.52 308.597 171.52C308.333 171.52 308.092 171.343 308.021 171.073C307.937 170.752 308.125 170.424 308.442 170.337L312.31 169.291L310.222 168.072C309.937 167.906 309.839 167.537 310.004 167.251C310.169 166.963 310.53 166.863 310.817 167.031L312.902 168.247L311.866 164.341C311.782 164.02 311.971 163.689 312.287 163.604C312.609 163.519 312.932 163.71 313.017 164.029L314.361 169.098L316.459 170.323L316.998 170.243L318.405 167.358V166.737L314.733 163.027C314.501 162.792 314.501 162.411 314.733 162.176C314.966 161.941 315.344 161.941 315.576 162.176L318.406 165.036V162.601C318.406 162.27 318.672 162 319.001 162C319.33 162 319.596 162.27 319.596 162.601V165.039L322.427 162.177C322.659 161.943 323.036 161.942 323.269 162.177C323.501 162.411 323.501 162.793 323.269 163.028L319.597 166.74V167.356L321.006 170.244L321.542 170.323L323.642 169.098L324.984 164.029C325.068 163.709 325.388 163.518 325.713 163.603C326.03 163.689 326.22 164.019 326.134 164.339L325.099 168.247L327.185 167.029C327.469 166.862 327.834 166.961 327.997 167.249C328.161 167.537 328.064 167.904 327.78 168.07L325.691 169.289L329.559 170.336C329.876 170.422 330.065 170.752 329.979 171.072C329.908 171.341 329.667 171.519 329.404 171.519C329.354 171.519 329.302 171.512 329.25 171.499L324.233 170.141L323.444 170.601L324.293 170.726C324.518 170.759 324.704 170.918 324.773 171.135C324.844 171.352 324.785 171.592 324.623 171.752L322.497 173.846L324.234 174.861L329.249 173.501C329.569 173.416 329.893 173.606 329.978 173.927C330.064 174.247 329.876 174.578 329.557 174.663L325.693 175.711L327.779 176.928C328.063 177.094 328.161 177.462 327.997 177.75C327.886 177.943 327.686 178.051 327.481 178.051C327.38 178.051 327.277 178.025 327.184 177.971L325.095 176.752L326.132 180.66C326.217 180.98 326.029 181.311 325.712 181.397C325.66 181.411 325.608 181.417 325.558 181.417C325.294 181.417 325.053 181.24 324.983 180.97L323.637 175.899L322.431 175.196L322.807 177.407C322.845 177.633 322.753 177.86 322.569 177.995C322.387 178.129 322.142 178.146 321.943 178.04L319.595 176.793V178.258L323.267 181.97C323.5 182.205 323.5 182.586 323.267 182.821C323.035 183.056 322.658 183.056 322.426 182.821L319.595 179.959V182.396C319.595 182.729 319.328 182.998 319 182.998C318.672 182.998 318.405 182.728 318.405 182.396V179.964L315.576 182.824C315.459 182.94 315.307 183 315.155 183C315.002 183 314.851 182.942 314.733 182.824C314.501 182.588 314.501 182.207 314.733 181.972L318.405 178.263V176.796L316.06 178.042C315.974 178.089 315.878 178.112 315.783 178.112C315.66 178.112 315.536 178.073 315.433 177.997C315.251 177.862 315.158 177.635 315.196 177.409L315.571 175.197L314.362 175.902L313.017 180.972C312.946 181.241 312.706 181.418 312.442 181.418C312.393 181.418 312.34 181.411 312.288 181.398C311.971 181.312 311.782 180.982 311.868 180.661L312.904 176.753L310.817 177.972C310.723 178.025 310.62 178.052 310.52 178.052C310.313 178.052 310.114 177.945 310.003 177.751C309.839 177.463 309.937 177.095 310.221 176.93L312.306 175.713L308.441 174.667C308.124 174.578 307.936 174.248 308.02 173.927ZM318.725 175.266C318.81 175.22 318.906 175.197 319.002 175.197C319.097 175.197 319.193 175.22 319.279 175.266L321.43 176.408L321.019 173.987C320.986 173.793 321.05 173.594 321.19 173.454L322.93 171.741L320.525 171.388C320.331 171.36 320.163 171.237 320.077 171.06L319.003 168.857L317.928 171.06C317.841 171.237 317.673 171.361 317.479 171.388L315.076 171.741L316.814 173.454C316.955 173.593 317.019 173.792 316.985 173.987L316.576 176.408L318.725 175.266Z" fill="white" fill-opacity="0.25"/>
<path d="M348.02 405.927C348.105 405.607 348.424 405.416 348.75 405.501L353.766 406.859L355.503 405.846L353.378 403.753C353.216 403.594 353.158 403.354 353.228 403.137C353.299 402.919 353.484 402.761 353.708 402.728L354.556 402.602L353.767 402.142L348.751 403.5C348.7 403.514 348.646 403.52 348.597 403.52C348.333 403.52 348.092 403.343 348.021 403.073C347.937 402.752 348.125 402.424 348.442 402.337L352.31 401.291L350.222 400.072C349.937 399.906 349.839 399.537 350.004 399.251C350.169 398.963 350.53 398.863 350.817 399.031L352.902 400.247L351.866 396.341C351.782 396.02 351.971 395.689 352.287 395.604C352.609 395.519 352.932 395.71 353.017 396.029L354.361 401.098L356.459 402.323L356.998 402.243L358.405 399.358V398.737L354.733 395.027C354.501 394.792 354.501 394.411 354.733 394.176C354.966 393.941 355.344 393.941 355.576 394.176L358.406 397.036V394.601C358.406 394.27 358.672 394 359.001 394C359.33 394 359.596 394.27 359.596 394.601V397.039L362.427 394.177C362.659 393.943 363.036 393.942 363.269 394.177C363.501 394.411 363.501 394.793 363.269 395.028L359.597 398.74V399.356L361.006 402.244L361.542 402.323L363.642 401.098L364.984 396.029C365.068 395.709 365.388 395.518 365.713 395.603C366.03 395.689 366.22 396.019 366.134 396.339L365.099 400.247L367.185 399.029C367.469 398.862 367.834 398.961 367.997 399.249C368.161 399.537 368.064 399.904 367.78 400.07L365.691 401.289L369.559 402.336C369.876 402.422 370.065 402.752 369.979 403.072C369.908 403.341 369.667 403.519 369.404 403.519C369.354 403.519 369.302 403.512 369.25 403.499L364.233 402.141L363.444 402.601L364.293 402.726C364.518 402.759 364.704 402.918 364.773 403.135C364.844 403.352 364.785 403.592 364.623 403.752L362.497 405.846L364.234 406.861L369.249 405.501C369.569 405.416 369.893 405.606 369.978 405.927C370.064 406.247 369.876 406.578 369.557 406.663L365.693 407.711L367.779 408.928C368.063 409.094 368.161 409.462 367.997 409.75C367.886 409.943 367.686 410.051 367.481 410.051C367.38 410.051 367.277 410.025 367.184 409.971L365.095 408.752L366.132 412.66C366.217 412.98 366.029 413.311 365.712 413.397C365.66 413.411 365.608 413.417 365.558 413.417C365.294 413.417 365.053 413.24 364.983 412.97L363.637 407.899L362.431 407.196L362.807 409.407C362.845 409.633 362.753 409.86 362.569 409.995C362.387 410.129 362.142 410.146 361.943 410.04L359.595 408.793V410.258L363.267 413.97C363.5 414.205 363.5 414.586 363.267 414.821C363.035 415.056 362.658 415.056 362.426 414.821L359.595 411.959V414.396C359.595 414.729 359.328 414.998 359 414.998C358.672 414.998 358.405 414.728 358.405 414.396V411.964L355.576 414.824C355.459 414.94 355.307 415 355.155 415C355.002 415 354.851 414.942 354.733 414.824C354.501 414.588 354.501 414.207 354.733 413.972L358.405 410.263V408.796L356.06 410.042C355.974 410.089 355.878 410.112 355.783 410.112C355.66 410.112 355.536 410.073 355.433 409.997C355.251 409.862 355.158 409.635 355.196 409.409L355.571 407.197L354.362 407.902L353.017 412.972C352.946 413.241 352.706 413.418 352.442 413.418C352.393 413.418 352.34 413.411 352.288 413.398C351.971 413.312 351.782 412.982 351.868 412.661L352.904 408.753L350.817 409.972C350.723 410.025 350.62 410.052 350.52 410.052C350.313 410.052 350.114 409.945 350.003 409.751C349.839 409.463 349.937 409.095 350.221 408.93L352.306 407.713L348.441 406.667C348.124 406.578 347.936 406.248 348.02 405.927ZM358.725 407.266C358.81 407.22 358.906 407.197 359.002 407.197C359.097 407.197 359.193 407.22 359.279 407.266L361.43 408.408L361.019 405.987C360.986 405.793 361.05 405.594 361.19 405.454L362.93 403.741L360.525 403.388C360.331 403.36 360.163 403.237 360.077 403.06L359.003 400.857L357.928 403.06C357.841 403.237 357.673 403.361 357.479 403.388L355.076 403.741L356.814 405.454C356.955 405.593 357.019 405.792 356.985 405.987L356.576 408.408L358.725 407.266Z" fill="white" fill-opacity="0.25"/>
<path d="M366.702 470.649C366.141 471.048 365.633 471.429 365.207 471.75L364.884 471.995C363.441 473.077 361.938 473.626 360.415 473.626C358.101 473.626 356.603 472.379 356.065 471.84C355.637 472.267 354.439 473.264 352.596 473.264C351.389 473.264 350.202 472.832 349.069 471.98L348.825 471.796C348.325 471.418 347.666 470.928 346.94 470.447C346.636 470.746 346.505 471.067 346.505 471.344L345.446 477.649C345.446 478.424 346.385 479.873 349.534 479.544C352.637 479.218 356.737 475.755 356.737 475.755C356.737 475.755 360.859 479.084 363.94 479.544C367.163 480.025 368.029 478.425 368.029 477.65L366.969 471.345C366.968 471.13 366.881 470.887 366.702 470.649ZM349.532 478.233C347.25 478.558 346.481 477.566 346.481 476.994C346.481 476.422 347.28 475.755 349.532 475.755H354.652C353.093 476.961 350.957 478.032 349.532 478.233ZM363.937 478.233C362.514 478.052 360.383 476.961 358.815 475.755H363.937C366.188 475.755 366.988 476.422 366.988 476.994C366.989 477.566 366.182 478.521 363.937 478.233Z" fill="#FFC42C" fill-opacity="0.29"/>
<path d="M346.874 461.452C346.674 461.642 346.473 461.838 346.268 462.043C343.227 465.081 341.73 467.709 341.73 467.709C344.571 467.132 348.088 469.923 349.704 471.134C352.172 472.988 354.33 472.074 355.315 471.09C355.337 471.068 355.358 471.044 355.379 471.02C354.267 469.42 353.843 467.17 354.858 464.812C353.519 463.022 351.424 460.003 351.923 457.517C351.923 457.517 350.825 458.143 349.229 459.406C349.159 459.281 349.078 459.162 348.97 459.055C348.346 458.43 347.334 458.43 346.708 459.055C346.083 459.68 346.083 460.694 346.708 461.318C346.76 461.37 346.818 461.409 346.874 461.452ZM349.53 468.456C351.13 470.056 353.357 470.42 352.847 470.929C352.34 471.438 350.456 470.729 348.856 469.13C347.256 467.532 345.498 467.141 344.338 467.087C345.492 466.686 347.932 466.858 349.53 468.456Z" fill="#FFC42C" fill-opacity="0.29"/>
<path d="M364.247 471.146C366.388 469.54 371.049 465.842 374.813 466.608C374.813 466.608 372.829 463.125 368.802 459.097C368.532 458.826 368.265 458.567 368 458.314C368.075 458.258 368.15 458.205 368.218 458.137C369.046 457.31 369.046 455.968 368.218 455.138C367.388 454.31 366.047 454.31 365.22 455.138C365.078 455.279 364.971 455.438 364.878 455.603C362.764 453.931 361.308 453.102 361.308 453.102C362.058 456.849 358.364 461.514 356.755 463.651C354.295 466.923 355.509 469.785 356.813 471.089C358.116 472.393 360.975 473.604 364.247 471.146ZM364.478 467.598C366.599 465.478 369.829 465.251 371.361 465.782C369.821 465.854 367.489 466.372 365.372 468.49C363.254 470.608 360.755 471.546 360.08 470.872C359.407 470.198 362.359 469.716 364.478 467.598Z" fill="#FFC42C" fill-opacity="0.29"/>
<path d="M55.1183 136.682C54.4328 136.747 53.8022 136.823 53.2721 136.888L52.8702 136.938C51.0799 137.154 49.5039 136.878 48.1846 136.116C46.1811 134.96 45.5063 133.131 45.3106 132.395C44.7262 132.551 43.1905 132.815 41.5939 131.893C40.5491 131.29 39.7372 130.322 39.1812 129.018L39.063 128.737C38.8182 128.159 38.493 127.405 38.1045 126.626C37.6918 126.733 37.4175 126.946 37.279 127.185L33.2096 132.116C32.8223 132.787 32.9105 134.512 35.8026 135.801C38.6524 137.07 43.9346 136.122 43.9346 136.122C43.9346 136.122 45.8399 141.066 48.2781 143.004C50.829 145.032 52.379 144.079 52.7663 143.409L55.0011 137.418C55.1079 137.231 55.1539 136.977 55.1183 136.682ZM36.4564 134.665C34.317 133.805 34.1476 132.562 34.4338 132.066C34.7195 131.571 35.745 131.394 37.6951 132.519L42.1293 135.079C40.1762 135.344 37.791 135.203 36.4564 134.665ZM48.9309 141.867C47.789 140.999 46.4894 138.989 45.7346 137.161L50.1697 139.722C52.1198 140.848 52.4785 141.825 52.1928 142.319C51.9075 142.816 50.7316 143.24 48.9309 141.867Z" fill="#FFC42C" fill-opacity="0.29"/>
<path d="M42.5451 118.803C42.2764 118.868 42.0043 118.937 41.7246 119.011C37.5719 120.123 34.9615 121.65 34.9615 121.65C37.7104 122.571 39.3603 126.746 40.1543 128.603C41.365 131.442 43.6913 131.73 45.0361 131.37C45.0655 131.362 45.0965 131.352 45.1261 131.342C44.9632 129.4 45.7211 127.239 47.7785 125.705C47.5142 123.485 47.2096 119.823 48.8842 117.92C48.8842 117.92 47.6207 117.913 45.6069 118.209C45.609 118.065 45.5983 117.922 45.5584 117.775C45.3306 116.923 44.4537 116.416 43.5994 116.644C42.746 116.873 42.2392 117.751 42.4678 118.604C42.4875 118.675 42.5178 118.737 42.5451 118.803ZM41.3429 126.197C41.9283 128.382 43.675 129.811 42.979 129.997C42.2857 130.184 41.0081 128.628 40.4222 126.444C39.8354 124.259 38.5089 123.042 37.5313 122.415C38.7313 122.645 40.7579 124.014 41.3429 126.197Z" fill="#FFC42C" fill-opacity="0.29"/>
<path d="M52.7435 135.885C55.401 135.564 61.2858 134.693 64.1628 137.238C64.1628 137.238 64.186 133.229 62.7127 127.728C62.6136 127.358 62.5123 127 62.4093 126.649C62.5024 126.638 62.5939 126.629 62.6864 126.604C63.8168 126.302 64.4877 125.14 64.1857 124.007C63.8809 122.875 62.7197 122.205 61.5897 122.508C61.3968 122.559 61.224 122.643 61.0615 122.74C60.0665 120.235 59.2203 118.789 59.2203 118.789C57.9965 122.408 52.4643 124.602 50.0028 125.648C46.2366 127.252 45.8565 130.337 46.3338 132.118C46.8101 133.899 48.6804 136.378 52.7435 135.885ZM54.7177 132.928C57.6138 132.152 60.5249 133.571 61.5861 134.796C60.2167 134.089 57.9382 133.371 55.0453 134.147C52.1528 134.922 49.5193 134.486 49.2717 133.564C49.0259 132.644 51.823 133.702 54.7177 132.928Z" fill="#FFC42C" fill-opacity="0.29"/>
<path d="M40.2969 363.886C40.1962 362.983 40.3573 362.046 40.8456 361.2C40.872 361.151 40.8884 361.098 40.9135 361.048L35.56 360.12C35.224 361.05 35.039 362.009 35 362.966L40.2969 363.886Z" fill="#FF6262" fill-opacity="0.29"/>
<path d="M55.7004 363.613L50.1594 362.651L48.6153 365.327L54.155 366.288L55.7004 363.613Z" fill="#FF6262" fill-opacity="0.29"/>
<path d="M39.8778 357.596C38.6433 356.882 37.0727 357.288 36.3264 358.492L41.1275 359.325C40.9764 358.623 40.5498 357.982 39.8778 357.596Z" fill="#FF6262" fill-opacity="0.29"/>
<path d="M58.1671 359.336L52.6311 358.376L51.0857 361.052L56.6229 362.011L58.1671 359.336Z" fill="#FF6262" fill-opacity="0.29"/>
<path d="M35.0856 364.744C35.2404 365.829 35.5777 366.883 36.0823 367.861L51.2342 370.488C51.9276 369.847 52.5354 369.095 53.0325 368.235L53.2301 367.89L47.343 366.87C45.9738 367.929 44.0459 368.126 42.4552 367.207C41.8259 366.843 41.3364 366.338 40.9677 365.765L35.0856 364.744Z" fill="#FF6262" fill-opacity="0.29"/>
<path d="M60.6374 355.058L55.0989 354.096L53.5523 356.772L59.0933 357.734L60.6374 355.058Z" fill="#FF6262" fill-opacity="0.29"/>
<path d="M39.8136 371.775C42.8239 373.513 46.3777 373.435 49.2332 371.903L37.4615 369.862C38.1235 370.602 38.9088 371.253 39.8136 371.775Z" fill="#FF6262" fill-opacity="0.29"/>
<path d="M64.9275 342.353C63.664 341.625 62.0519 342.059 61.322 343.321L60.9634 343.943L66.23 344.857C66.3081 343.869 65.8374 342.88 64.9275 342.353Z" fill="#FF6262" fill-opacity="0.29"/>
<path d="M63.1078 350.781L57.568 349.82L56.0226 352.497L61.5611 353.457L63.1078 350.781Z" fill="#FF6262" fill-opacity="0.29"/>
<path d="M65.5794 346.501L60.0384 345.542L58.493 348.219L64.034 349.178L65.5794 346.501Z" fill="#FF6262" fill-opacity="0.29"/>
<path d="M220.463 476.82C220.363 475.918 220.524 474.98 221.012 474.135C221.038 474.086 221.055 474.033 221.08 473.982L215.727 473.055C215.391 473.985 215.206 474.944 215.167 475.9L220.463 476.82Z" fill="#FF6262" fill-opacity="0.29"/>
<path d="M235.867 476.547L230.326 475.586L228.782 478.261L234.322 479.223L235.867 476.547Z" fill="#FF6262" fill-opacity="0.29"/>
<path d="M220.044 470.531C218.81 469.817 217.239 470.222 216.493 471.427L221.294 472.26C221.143 471.557 220.716 470.917 220.044 470.531Z" fill="#FF6262" fill-opacity="0.29"/>
<path d="M238.334 472.271L232.798 471.311L231.252 473.986L236.789 474.945L238.334 472.271Z" fill="#FF6262" fill-opacity="0.29"/>
<path d="M215.252 477.679C215.407 478.763 215.744 479.818 216.249 480.796L231.401 483.422C232.094 482.782 232.702 482.029 233.199 481.17L233.397 480.825L227.51 479.804C226.14 480.864 224.212 481.06 222.622 480.141C221.992 479.778 221.503 479.273 221.134 478.699L215.252 477.679Z" fill="#FF6262" fill-opacity="0.29"/>
<path d="M240.804 467.992L235.265 467.031L233.719 469.706L239.26 470.669L240.804 467.992Z" fill="#FF6262" fill-opacity="0.29"/>
<path d="M219.98 484.71C222.99 486.448 226.544 486.37 229.4 484.838L217.628 482.797C218.29 483.537 219.075 484.187 219.98 484.71Z" fill="#FF6262" fill-opacity="0.29"/>
<path d="M245.094 455.288C243.83 454.559 242.218 454.994 241.488 456.256L241.13 456.877L246.396 457.791C246.475 456.803 246.004 455.814 245.094 455.288Z" fill="#FF6262" fill-opacity="0.29"/>
<path d="M243.274 463.716L237.735 462.755L236.189 465.431L241.728 466.391L243.274 463.716Z" fill="#FF6262" fill-opacity="0.29"/>
<path d="M245.746 459.436L240.205 458.477L238.659 461.154L244.2 462.113L245.746 459.436Z" fill="#FF6262" fill-opacity="0.29"/>
<path d="M205.787 221.054C207.724 221.257 209.398 220.989 210.855 220.301C210.695 221.899 210.819 223.189 211.046 224.279C210.547 225.229 209.904 225.477 209.101 225.742C207.532 226.263 206.214 226.956 206.022 230.191C205.989 230.697 206.361 231.133 206.844 231.165C207.337 231.183 207.743 230.81 207.773 230.304C207.906 228.064 208.519 227.861 209.629 227.493C210.227 227.295 210.959 227.049 211.634 226.447C212.253 228.468 212.517 229.664 209.864 232.43C209.52 232.786 209.517 233.371 209.861 233.73C210.203 234.088 210.758 234.092 211.102 233.731C214.599 230.091 213.974 228.059 213.253 225.708C212.746 224.053 212.181 222.174 212.829 218.996C213.345 218.523 213.809 217.949 214.249 217.317C214.395 217.758 214.558 218.171 214.718 218.542C215.292 219.873 215.485 220.321 214.321 221.24C213.934 221.544 213.856 222.12 214.147 222.527C214.436 222.932 214.986 223.013 215.375 222.71C217.67 220.907 216.922 219.177 216.319 217.784C215.919 216.861 215.519 215.903 215.703 214.673C215.802 214.477 215.967 214.238 216.165 213.941C216.381 213.618 216.627 213.249 216.859 212.856C218.463 214.558 220.95 214.98 224.002 213.816C226.948 214.893 229.46 214.474 231.103 212.78C231.348 213.204 231.608 213.6 231.839 213.941C232.037 214.236 232.2 214.477 232.301 214.673C232.486 215.903 232.085 216.861 231.685 217.784C231.084 219.177 230.335 220.909 232.629 222.71C233.013 223.015 233.564 222.934 233.855 222.529C234.145 222.123 234.067 221.545 233.679 221.242C232.512 220.322 232.707 219.875 233.283 218.543C233.444 218.173 233.604 217.758 233.751 217.317C234.19 217.949 234.655 218.523 235.172 218.996C235.819 222.174 235.255 224.052 234.748 225.708C234.027 228.059 233.401 230.091 236.899 233.731C237.243 234.09 237.799 234.088 238.138 233.73C238.482 233.371 238.479 232.788 238.135 232.43C235.482 229.664 235.749 228.468 236.366 226.447C237.038 227.049 237.771 227.295 238.369 227.493C239.48 227.861 240.093 228.066 240.226 230.304C240.254 230.81 240.662 231.183 241.155 231.165C241.638 231.135 242.006 230.697 241.977 230.191C241.785 226.955 240.469 226.261 238.897 225.742C238.094 225.476 237.452 225.229 236.952 224.279C237.182 223.187 237.3 221.899 237.142 220.301C238.597 220.989 240.274 221.257 242.21 221.054C242.692 221.003 243.044 220.554 242.996 220.049C242.949 219.545 242.519 219.178 242.036 219.225C238.13 219.636 235.637 218.026 233.956 214.027C233.947 214.003 233.926 213.975 233.916 213.948C233.91 213.936 233.902 213.921 233.894 213.909C233.751 213.611 233.544 213.29 233.273 212.888C232.936 212.382 232.517 211.742 232.243 211.113C232.309 210.974 232.378 210.839 232.437 210.688C235.228 212.367 240.072 213.775 240.845 212.368C241.623 210.958 236.027 206.051 233.243 204.365C232.715 204.047 232.357 203.9 232.069 203.828C231.034 201.64 229.587 199.056 229.603 197.467C229.656 191.953 227.38 190.998 224 191C220.621 191 218.412 191.953 218.399 197.463C218.396 199.055 216.95 201.64 215.924 203.828C215.634 203.903 215.279 204.047 214.758 204.365C211.973 206.052 206.377 210.959 207.154 212.368C207.927 213.77 212.743 212.373 215.535 210.703C215.594 210.869 215.669 211.018 215.738 211.172C215.463 211.778 215.055 212.397 214.726 212.886C214.455 213.288 214.249 213.61 214.105 213.908C214.097 213.921 214.091 213.936 214.084 213.946C214.072 213.973 214.054 214.002 214.043 214.025C212.362 218.026 209.873 219.636 205.965 219.225C205.482 219.178 205.053 219.543 205.005 220.049C204.954 220.555 205.306 221.003 205.787 221.054ZM223.997 199.624C222.946 199.624 222.092 199.316 222.092 198.939C222.092 198.562 222.945 196.925 223.997 196.925C225.048 196.925 225.9 198.562 225.9 198.939C225.9 199.316 225.046 199.624 223.997 199.624ZM228.366 205.27C228.63 206.751 228.426 208.113 227.911 208.322C227.394 208.532 226.764 207.503 226.5 206.027C226.238 204.551 226.446 203.186 226.959 202.978C227.474 202.765 228.104 203.792 228.366 205.27ZM223.997 192.275C225.897 192.275 227.434 195.061 227.434 195.537C227.434 196.011 225.897 195.223 223.997 195.223C222.097 195.223 220.559 196.012 220.559 195.537C220.559 195.061 222.097 192.275 223.997 192.275ZM219.626 205.27C219.888 203.792 220.52 202.765 221.034 202.973C221.548 203.181 221.755 204.548 221.494 206.024C221.23 207.501 220.598 208.53 220.084 208.321C219.57 208.113 219.364 206.748 219.626 205.27Z" fill="#543C00" fill-opacity="0.62"/>
<path d="M441.751 202.443C443.173 201.909 444.251 201.145 445.035 200.169C445.466 201.316 445.989 202.154 446.518 202.82C446.492 203.642 446.127 204.034 445.656 204.494C444.738 205.394 444.053 206.325 445.017 208.601C445.165 208.959 445.573 209.127 445.921 208.981C446.271 208.822 446.428 208.426 446.278 208.07C445.61 206.494 445.969 206.143 446.619 205.506C446.97 205.164 447.398 204.741 447.665 204.096C448.783 205.261 449.373 205.987 448.459 208.797C448.34 209.16 448.536 209.56 448.898 209.686C449.259 209.812 449.648 209.621 449.766 209.256C450.973 205.556 449.846 204.385 448.545 203.03C447.629 202.075 446.596 200.988 445.97 198.592C446.171 198.09 446.299 197.537 446.392 196.953C446.643 197.203 446.898 197.429 447.135 197.627C447.988 198.337 448.275 198.575 447.774 199.608C447.607 199.949 447.748 200.37 448.089 200.547C448.429 200.723 448.84 200.587 449.009 200.245C450 198.218 448.89 197.295 447.996 196.554C447.404 196.062 446.799 195.546 446.51 194.643C446.513 194.475 446.547 194.254 446.584 193.982C446.626 193.687 446.672 193.349 446.701 193C448.399 193.606 450.279 193.031 452.015 191.177C454.438 190.89 456.05 189.732 456.623 188.005C456.937 188.209 457.254 188.389 457.53 188.542C457.769 188.675 457.965 188.783 458.102 188.882C458.649 189.657 458.694 190.451 458.728 191.22C458.78 192.38 458.846 193.823 461.059 194.257C461.43 194.332 461.788 194.085 461.854 193.707C461.918 193.33 461.667 192.963 461.294 192.89C460.167 192.667 460.151 192.294 460.101 191.184C460.088 190.875 460.059 190.536 460.012 190.184C460.533 190.463 461.053 190.694 461.574 190.838C463.105 192.783 463.348 194.262 463.556 195.569C463.85 197.425 464.103 199.03 467.782 200.302C468.144 200.428 468.532 200.233 468.647 199.871C468.765 199.507 468.565 199.11 468.203 198.984C465.412 198.016 465.192 197.106 464.937 195.512C465.611 195.69 466.206 195.604 466.691 195.531C467.592 195.397 468.089 195.324 468.942 196.807C469.133 197.142 469.545 197.256 469.883 197.072C470.21 196.884 470.318 196.458 470.127 196.122C468.894 193.978 467.739 193.961 466.465 194.152C465.814 194.249 465.282 194.303 464.61 193.828C464.401 193.002 464.046 192.082 463.393 191.045C464.643 191.01 465.904 190.611 467.188 189.801C467.507 189.598 467.6 189.169 467.396 188.842C467.192 188.513 466.767 188.412 466.446 188.612C463.857 190.248 461.57 190.013 459.038 187.866C459.024 187.853 458.999 187.841 458.984 187.826C458.975 187.82 458.965 187.813 458.955 187.807C458.754 187.653 458.5 187.506 458.175 187.325C457.767 187.096 457.257 186.805 456.853 186.471C456.852 186.353 456.854 186.236 456.844 186.113C459.363 186.291 463.224 185.571 463.286 184.342C463.351 183.108 457.777 181.699 455.261 181.515C454.784 181.481 454.484 181.504 454.258 181.555C452.793 180.42 450.905 179.158 450.377 178.067C448.542 174.283 446.629 174.42 444.269 175.595C441.909 176.767 440.69 178.185 442.552 181.953C443.09 183.041 442.957 185.308 442.983 187.159C442.806 187.311 442.607 187.532 442.351 187.931C440.979 190.049 438.737 195.343 439.758 196.035C440.773 196.725 443.662 194.099 445.045 191.989C445.143 192.082 445.246 192.158 445.346 192.239C445.36 192.749 445.285 193.313 445.221 193.761C445.169 194.13 445.134 194.421 445.134 194.674C445.133 194.686 445.134 194.699 445.133 194.708C445.133 194.731 445.131 194.756 445.131 194.776C445.315 198.092 444.123 200.055 441.254 201.132C440.901 201.267 440.726 201.665 440.864 202.028C441 202.391 441.397 202.574 441.751 202.443ZM447.194 181.486C446.461 181.851 445.76 181.936 445.632 181.679C445.504 181.422 445.543 180.008 446.278 179.643C447.012 179.278 448.163 180.1 448.291 180.357C448.419 180.615 447.927 181.122 447.194 181.486ZM452.162 183.825C452.849 184.745 453.169 185.746 452.88 186.068C452.59 186.39 451.801 185.907 451.116 184.99C450.432 184.073 450.113 183.069 450.401 182.748C450.689 182.424 451.478 182.907 452.162 183.825ZM444.7 176.466C446.027 175.807 448.046 177.176 448.207 177.501C448.368 177.825 447.028 177.821 445.701 178.48C444.374 179.14 443.567 180.212 443.406 179.888C443.244 179.563 443.373 177.126 444.7 176.466ZM446.058 186.859C445.74 185.759 445.832 184.838 446.262 184.802C446.692 184.765 447.3 185.627 447.619 186.725C447.936 187.826 447.844 188.748 447.413 188.784C446.984 188.82 446.377 187.959 446.058 186.859Z" fill="#543C00" fill-opacity="0.62"/>
<path d="M27.0272 461.234C27.1425 461.629 27.5778 461.866 28.0225 461.76L34.8621 460.079L37.231 461.334L34.3333 463.924C34.113 464.122 34.0341 464.419 34.1297 464.688C34.2252 464.957 34.4777 465.153 34.7842 465.194L35.9406 465.35L34.8642 465.92L28.0236 464.238C27.9539 464.221 27.8812 464.213 27.8137 464.213C27.4542 464.213 27.1259 464.432 27.0282 464.766C26.9139 465.164 27.1706 465.571 27.6028 465.678L32.8766 466.973L30.0298 468.482C29.6413 468.688 29.5083 469.144 29.7327 469.499C29.9571 469.855 30.4506 469.979 30.8413 469.771L33.685 468.265L32.272 473.102C32.1577 473.499 32.4153 473.908 32.8465 474.014C33.285 474.12 33.7255 473.883 33.8408 473.488L35.6736 467.212L38.5349 465.696L39.2705 465.794L41.1885 469.366V470.135L36.1816 474.728C35.8648 475.019 35.8648 475.491 36.1816 475.782C36.4996 476.072 37.0139 476.072 37.3308 475.782L41.1895 472.242V475.255C41.1895 475.666 41.5532 476 42.001 476C42.4498 476 42.8124 475.666 42.8124 475.255V472.238L46.6733 475.781C46.9891 476.071 47.5034 476.072 47.8214 475.781C48.1383 475.491 48.1383 475.018 47.8214 474.727L42.8135 470.131V469.369L44.7356 465.793L45.467 465.696L48.3294 467.213L50.1601 473.488C50.2744 473.884 50.7108 474.121 51.1544 474.015C51.5866 473.909 51.8454 473.5 51.7279 473.104L50.317 468.266L53.1607 469.773C53.5493 469.98 54.0459 469.857 54.2693 469.502C54.4927 469.145 54.3597 468.69 53.9721 468.484L51.1243 466.975L56.3982 465.68C56.8304 465.573 57.0891 465.164 56.9717 464.768C56.874 464.435 56.5457 464.215 56.1873 464.215C56.1197 464.215 56.048 464.223 55.9774 464.24L49.1357 465.921L48.0603 465.351L49.2178 465.196C49.5243 465.155 49.7788 464.959 49.8723 464.69C49.9689 464.421 49.8889 464.124 49.6676 463.926L46.7689 461.333L49.1378 460.077L55.9753 461.76C56.4127 461.866 56.8543 461.63 56.9707 461.234C57.087 460.837 56.8304 460.427 56.3961 460.321L51.1274 459.025L53.9711 457.518C54.3586 457.312 54.4916 456.857 54.2683 456.5C54.1176 456.261 53.8444 456.127 53.5649 456.127C53.4277 456.127 53.2875 456.16 53.1597 456.227L50.3118 457.736L51.7259 452.897C51.8412 452.501 51.5856 452.092 51.1523 451.985C51.0817 451.968 51.011 451.96 50.9425 451.96C50.583 451.96 50.2547 452.179 50.158 452.513L48.3232 458.792L46.6785 459.663L47.1907 456.924C47.2427 456.645 47.118 456.364 46.8665 456.197C46.6193 456.03 46.2847 456.009 46.0125 456.141L42.8114 457.684V455.871L47.8193 451.276C48.1362 450.984 48.1362 450.512 47.8193 450.221C47.5024 449.93 46.9881 449.93 46.6712 450.221L42.8114 453.765V450.747C42.8114 450.336 42.4478 450.003 42 450.003C41.5522 450.003 41.1885 450.337 41.1885 450.747V453.759L37.3308 450.218C37.1718 450.074 36.964 450 36.7562 450C36.5484 450 36.3417 450.072 36.1816 450.218C35.8648 450.51 35.8648 450.982 36.1816 451.273L41.1885 455.865V457.681L37.9905 456.139C37.8731 456.08 37.7432 456.052 37.6134 456.052C37.4451 456.052 37.2757 456.1 37.1365 456.194C36.8871 456.361 36.7614 456.642 36.8123 456.922L37.3245 459.661L35.6757 458.788L33.8419 452.511C33.7442 452.178 33.4169 451.958 33.0574 451.958C32.9899 451.958 32.9182 451.967 32.8476 451.983C32.4153 452.09 32.1577 452.499 32.274 452.895L33.6871 457.734L30.8413 456.225C30.7135 456.159 30.5732 456.126 30.4361 456.126C30.1545 456.126 29.8823 456.259 29.7316 456.498C29.5072 456.855 29.6413 457.311 30.0288 457.516L32.8725 459.022L27.6007 460.318C27.1695 460.427 26.9129 460.835 27.0272 461.234ZM41.6249 459.575C41.7412 459.632 41.8722 459.661 42.0031 459.661C42.1329 459.661 42.2628 459.632 42.3802 459.575L45.3133 458.161L44.7533 461.159C44.7086 461.4 44.7959 461.646 44.987 461.818L47.359 463.94L44.08 464.376C43.8151 464.411 43.5865 464.564 43.4691 464.783L42.0041 467.51L40.5381 464.783C40.4197 464.564 40.1911 464.411 39.9261 464.376L36.6492 463.94L39.0191 461.818C39.2113 461.647 39.2986 461.401 39.2529 461.159L38.6939 458.161L41.6249 459.575Z" fill="white" fill-opacity="0.25"/>
<path d="M44.0281 41.098C44.1473 41.5241 44.5971 41.7787 45.0566 41.6647L52.1242 39.8546L54.5721 41.2058L51.5777 43.9954C51.3501 44.2079 51.2685 44.5283 51.3673 44.8178C51.4661 45.1074 51.727 45.3189 52.0437 45.363L53.2386 45.5304L52.1264 46.1444L45.0577 44.3332C44.9857 44.3147 44.9106 44.3065 44.8408 44.3065C44.4693 44.3065 44.1301 44.5427 44.0292 44.902C43.9111 45.3302 44.1762 45.7686 44.6229 45.8836L50.0725 47.2789L47.1308 48.9042C46.7293 49.126 46.5919 49.6168 46.8238 49.9987C47.0557 50.3827 47.5656 50.5162 47.9693 50.2924L50.9078 48.6701L49.4477 53.8787C49.3296 54.3069 49.5959 54.7474 50.0414 54.8613C50.4945 54.9753 50.9497 54.7207 51.0689 54.2946L52.9627 47.5356L55.9194 45.9031L56.6796 46.0088L58.6615 49.856V50.6835L53.4877 55.6303C53.1603 55.9435 53.1603 56.4517 53.4877 56.7649C53.8162 57.078 54.3477 57.078 54.6751 56.7649L58.6625 52.9526V56.1981C58.6625 56.6406 59.0383 57 59.501 57C59.9648 57 60.3395 56.6406 60.3395 56.1981V52.9485L64.3291 56.7639C64.6555 57.076 65.1869 57.077 65.5154 56.7639C65.8429 56.4517 65.8429 55.9425 65.5154 55.6293L60.3406 50.6794V49.8591L62.3268 46.0078L63.0826 45.9031L66.0404 47.5366L67.9321 54.2946C68.0502 54.7217 68.5011 54.9763 68.9596 54.8623C69.4062 54.7484 69.6735 54.3079 69.5522 53.8808L68.0942 48.6712L71.0327 50.2944C71.4343 50.5172 71.9474 50.3848 72.1783 50.0018C72.4091 49.6178 72.2717 49.128 71.8712 48.9063L68.9284 47.281L74.3781 45.8856C74.8247 45.7706 75.0921 45.3302 74.9707 44.9041C74.8698 44.5457 74.5306 44.3086 74.1602 44.3086C74.0904 44.3086 74.0163 44.3168 73.9433 44.3353L66.8735 46.1454L65.7623 45.5314L66.9584 45.3651C67.2751 45.3209 67.5381 45.1094 67.6347 44.8199C67.7346 44.5303 67.6519 44.21 67.4232 43.9975L64.4278 41.2048L66.8757 39.8526L73.9411 41.6647C74.3931 41.7787 74.8494 41.5251 74.9697 41.098C75.0899 40.6709 74.8247 40.2294 74.376 40.1154L68.9317 38.719L71.8701 37.0958C72.2706 36.874 72.408 36.3843 72.1772 36.0003C72.0215 35.7425 71.7392 35.5988 71.4504 35.5988C71.3086 35.5988 71.1637 35.6337 71.0317 35.7056L68.0889 37.3309L69.5501 32.1202C69.6692 31.6931 69.4051 31.2526 68.9574 31.1377C68.8844 31.1192 68.8114 31.111 68.7406 31.111C68.3691 31.111 68.0298 31.3471 67.93 31.7065L66.034 38.4685L64.3344 39.4059L64.8637 36.4572C64.9174 36.1563 64.7886 35.8534 64.5288 35.6738C64.2732 35.4941 63.9275 35.4715 63.6463 35.6132L60.3384 37.2755V35.3226L65.5133 30.3738C65.8407 30.0596 65.8407 29.5514 65.5133 29.2382C65.1858 28.925 64.6544 28.925 64.3269 29.2382L60.3384 33.0546V29.805C60.3384 29.3614 59.9627 29.0031 59.5 29.0031C59.0372 29.0031 58.6615 29.3624 58.6615 29.805V33.0484L54.6751 29.2351C54.5109 29.0801 54.2961 29 54.0814 29C53.8667 29 53.653 29.077 53.4877 29.2351C53.1603 29.5493 53.1603 30.0575 53.4877 30.3707L58.6615 35.3165V37.2713L55.3569 35.6111C55.2356 35.5475 55.1013 35.5177 54.9671 35.5177C54.7932 35.5177 54.6182 35.569 54.4744 35.6707C54.2167 35.8504 54.0868 36.1532 54.1394 36.4541L54.6687 39.4039L52.9649 38.4644L51.0699 31.7044C50.969 31.3451 50.6308 31.1089 50.2593 31.1089C50.1896 31.1089 50.1155 31.1181 50.0425 31.1356C49.5959 31.2506 49.3296 31.6911 49.4498 32.1182L50.91 37.3288L47.9693 35.7035C47.8373 35.6327 47.6923 35.5967 47.5506 35.5967C47.2597 35.5967 46.9784 35.7405 46.8227 35.9982C46.5908 36.3822 46.7293 36.873 47.1298 37.0937L50.0682 38.716L44.6207 40.1113C44.1752 40.2294 43.91 40.6688 44.0281 41.098ZM59.1124 39.3115C59.2326 39.3731 59.3679 39.4039 59.5032 39.4039C59.6374 39.4039 59.7716 39.3731 59.8929 39.3115L62.9237 37.7888L62.345 41.0169C62.2989 41.2766 62.389 41.5415 62.5866 41.7274L65.0377 44.0118L61.6493 44.4821C61.3756 44.5201 61.1394 44.6844 61.018 44.9205L59.5042 47.857L57.9894 44.9205C57.867 44.6844 57.6308 44.519 57.357 44.4821L53.9708 44.0118L56.4197 41.7274C56.6184 41.5426 56.7086 41.2777 56.6613 41.0169L56.0837 37.7888L59.1124 39.3115Z" fill="white" fill-opacity="0.25"/>
<path d="M212.883 433.031C213.328 433.348 213.731 433.651 214.07 433.905L214.326 434.099C215.471 434.958 216.663 435.393 217.872 435.393C219.708 435.393 220.897 434.404 221.324 433.976C221.663 434.316 222.614 435.106 224.077 435.106C225.034 435.106 225.976 434.763 226.875 434.088L227.068 433.941C227.465 433.642 227.988 433.253 228.564 432.871C228.805 433.108 228.909 433.363 228.909 433.583L229.749 438.586C229.749 439.201 229.005 440.351 226.506 440.089C224.044 439.831 220.79 437.083 220.79 437.083C220.79 437.083 217.52 439.725 215.075 440.089C212.518 440.471 211.831 439.201 211.831 438.587L212.671 433.584C212.672 433.413 212.741 433.22 212.883 433.031ZM226.507 439.049C228.318 439.307 228.928 438.52 228.928 438.066C228.928 437.612 228.294 437.083 226.507 437.083H222.444C223.682 438.04 225.377 438.89 226.507 439.049ZM215.078 439.049C216.207 438.906 217.897 438.04 219.141 437.083H215.078C213.291 437.083 212.657 437.612 212.657 438.066C212.656 438.52 213.296 439.278 215.078 439.049Z" fill="#FFC42C" fill-opacity="0.29"/>
<path d="M228.616 425.733C228.775 425.885 228.935 426.04 229.097 426.202C231.51 428.613 232.698 430.699 232.698 430.699C230.444 430.241 227.653 432.456 226.371 433.416C224.413 434.887 222.7 434.162 221.919 433.381C221.902 433.364 221.884 433.344 221.868 433.326C222.751 432.056 223.087 430.271 222.282 428.4C223.344 426.98 225.006 424.584 224.611 422.612C224.611 422.612 225.482 423.108 226.748 424.11C226.803 424.011 226.868 423.917 226.953 423.832C227.448 423.336 228.252 423.336 228.748 423.832C229.244 424.328 229.244 425.132 228.748 425.628C228.707 425.668 228.661 425.699 228.616 425.733ZM226.509 431.292C225.24 432.561 223.473 432.85 223.877 433.253C224.279 433.657 225.775 433.095 227.044 431.826C228.313 430.558 229.708 430.248 230.629 430.205C229.713 429.887 227.777 430.023 226.509 431.292Z" fill="#FFC42C" fill-opacity="0.29"/>
<path d="M214.831 433.426C213.132 432.151 209.434 429.217 206.447 429.825C206.447 429.825 208.022 427.061 211.217 423.865C211.432 423.65 211.643 423.444 211.853 423.244C211.794 423.199 211.734 423.157 211.681 423.103C211.024 422.447 211.024 421.383 211.681 420.724C212.339 420.067 213.403 420.067 214.059 420.724C214.172 420.836 214.257 420.962 214.33 421.093C216.008 419.766 217.163 419.108 217.163 419.108C216.568 422.081 219.499 425.783 220.776 427.479C222.728 430.075 221.765 432.346 220.73 433.38C219.696 434.415 217.428 435.376 214.831 433.426ZM214.648 430.61C212.965 428.928 210.402 428.749 209.187 429.169C210.408 429.226 212.259 429.637 213.939 431.318C215.619 432.999 217.602 433.743 218.138 433.209C218.672 432.674 216.33 432.291 214.648 430.61Z" fill="#FFC42C" fill-opacity="0.29"/>
<path d="M447.886 312.138C448.43 312.19 448.93 312.251 449.351 312.302L449.67 312.341C451.09 312.513 452.341 312.294 453.388 311.689C454.977 310.772 455.513 309.32 455.668 308.736C456.132 308.861 457.351 309.07 458.617 308.338C459.446 307.86 460.091 307.092 460.532 306.057L460.626 305.834C460.82 305.376 461.078 304.777 461.386 304.159C461.714 304.244 461.931 304.413 462.041 304.603L465.27 308.516C465.577 309.048 465.507 310.416 463.213 311.44C460.951 312.446 456.76 311.694 456.76 311.694C456.76 311.694 455.248 315.617 453.314 317.155C451.29 318.764 450.06 318.008 449.752 317.476L447.979 312.723C447.894 312.574 447.858 312.373 447.886 312.138ZM462.694 310.538C464.391 309.856 464.526 308.869 464.299 308.476C464.072 308.083 463.258 307.942 461.711 308.835L458.192 310.867C459.742 311.076 461.635 310.965 462.694 310.538ZM452.796 316.253C453.702 315.564 454.733 313.969 455.332 312.518L451.813 314.55C450.265 315.444 449.981 316.219 450.207 316.611C450.434 317.005 451.367 317.342 452.796 316.253Z" fill="#FFC42C" fill-opacity="0.29"/>
<path d="M457.863 297.952C458.076 298.003 458.292 298.058 458.514 298.117C461.809 298.999 463.88 300.211 463.88 300.211C461.699 300.941 460.39 304.255 459.76 305.728C458.799 307.981 456.953 308.209 455.886 307.924C455.863 307.917 455.838 307.909 455.815 307.901C455.944 306.36 455.342 304.646 453.71 303.428C453.92 301.667 454.161 298.761 452.833 297.251C452.833 297.251 453.835 297.246 455.433 297.48C455.431 297.366 455.44 297.252 455.472 297.136C455.652 296.46 456.348 296.058 457.026 296.239C457.703 296.42 458.105 297.117 457.924 297.794C457.908 297.85 457.884 297.9 457.863 297.952ZM458.816 303.819C458.352 305.552 456.966 306.686 457.518 306.834C458.068 306.982 459.082 305.747 459.547 304.015C460.013 302.281 461.065 301.315 461.841 300.818C460.889 301 459.281 302.086 458.816 303.819Z" fill="#FFC42C" fill-opacity="0.29"/>
<path d="M449.77 311.506C447.662 311.252 442.992 310.56 440.709 312.579C440.709 312.579 440.691 309.399 441.86 305.033C441.939 304.74 442.019 304.456 442.101 304.177C442.027 304.168 441.954 304.161 441.881 304.142C440.984 303.902 440.452 302.98 440.691 302.081C440.933 301.183 441.854 300.651 442.751 300.892C442.904 300.932 443.041 300.999 443.17 301.076C443.96 299.088 444.631 297.941 444.631 297.941C445.602 300.813 449.992 302.553 451.945 303.383C454.933 304.655 455.235 307.104 454.856 308.517C454.478 309.93 452.994 311.897 449.77 311.506ZM448.204 309.159C445.906 308.544 443.596 309.67 442.754 310.642C443.841 310.08 445.648 309.511 447.944 310.127C450.239 310.742 452.329 310.396 452.525 309.665C452.72 308.934 450.501 309.774 448.204 309.159Z" fill="#FFC42C" fill-opacity="0.29"/>
<path d="M476.281 416.035C476.361 415.319 476.233 414.575 475.845 413.904C475.824 413.865 475.811 413.823 475.791 413.783L480.039 413.047C480.306 413.785 480.453 414.546 480.484 415.305L476.281 416.035Z" fill="#FF6262" fill-opacity="0.29"/>
<path d="M464.058 415.818L468.455 415.055L469.68 417.178L465.285 417.941L464.058 415.818Z" fill="#FF6262" fill-opacity="0.29"/>
<path d="M476.613 411.044C477.593 410.478 478.839 410.799 479.431 411.755L475.622 412.416C475.742 411.859 476.08 411.35 476.613 411.044Z" fill="#FF6262" fill-opacity="0.29"/>
<path d="M462.101 412.425L466.494 411.663L467.72 413.786L463.326 414.547L462.101 412.425Z" fill="#FF6262" fill-opacity="0.29"/>
<path d="M480.416 416.716C480.293 417.576 480.025 418.413 479.625 419.189L467.602 421.273C467.052 420.765 466.57 420.168 466.175 419.486L466.019 419.212L470.69 418.402C471.776 419.243 473.306 419.399 474.568 418.67C475.067 418.381 475.456 417.981 475.749 417.526L480.416 416.716Z" fill="#FF6262" fill-opacity="0.29"/>
<path d="M460.141 409.03L464.536 408.267L465.763 410.39L461.366 411.154L460.141 409.03Z" fill="#FF6262" fill-opacity="0.29"/>
<path d="M476.664 422.295C474.276 423.674 471.456 423.612 469.19 422.397L478.531 420.777C478.005 421.364 477.382 421.88 476.664 422.295Z" fill="#FF6262" fill-opacity="0.29"/>
<path d="M456.737 398.949C457.739 398.371 459.019 398.716 459.598 399.717L459.882 400.21L455.703 400.935C455.641 400.152 456.015 399.367 456.737 398.949Z" fill="#FF6262" fill-opacity="0.29"/>
<path d="M458.181 405.637L462.577 404.874L463.803 406.998L459.408 407.76L458.181 405.637Z" fill="#FF6262" fill-opacity="0.29"/>
<path d="M456.22 402.241L460.616 401.48L461.843 403.604L457.446 404.364L456.22 402.241Z" fill="#FF6262" fill-opacity="0.29"/>
<path d="M329.358 377.463C327.778 377.628 326.412 377.41 325.223 376.849C325.354 378.15 325.253 379.2 325.068 380.088C325.475 380.861 326 381.063 326.655 381.278C327.935 381.702 329.01 382.267 329.166 384.9C329.194 385.312 328.89 385.666 328.496 385.692C328.094 385.707 327.762 385.403 327.737 384.991C327.629 383.168 327.129 383.003 326.224 382.703C325.736 382.542 325.138 382.342 324.588 381.852C324.083 383.497 323.868 384.47 326.032 386.722C326.313 387.012 326.315 387.488 326.035 387.78C325.756 388.072 325.303 388.074 325.022 387.781C322.169 384.818 322.679 383.164 323.268 381.251C323.681 379.904 324.142 378.374 323.613 375.787C323.192 375.403 322.813 374.935 322.455 374.421C322.336 374.779 322.203 375.116 322.072 375.418C321.604 376.502 321.446 376.866 322.396 377.614C322.712 377.861 322.776 378.33 322.538 378.662C322.302 378.992 321.853 379.057 321.536 378.81C319.664 377.343 320.274 375.934 320.766 374.801C321.093 374.05 321.419 373.27 321.269 372.269C321.188 372.109 321.053 371.914 320.892 371.673C320.715 371.41 320.515 371.11 320.325 370.79C319.017 372.175 316.988 372.519 314.498 371.571C312.095 372.448 310.045 372.107 308.705 370.728C308.506 371.073 308.293 371.395 308.105 371.673C307.944 371.913 307.81 372.109 307.728 372.269C307.577 373.27 307.904 374.05 308.231 374.801C308.721 375.934 309.332 377.344 307.461 378.81C307.148 379.058 306.698 378.993 306.46 378.663C306.224 378.333 306.288 377.862 306.604 377.616C307.556 376.867 307.397 376.503 306.927 375.419C306.795 375.118 306.665 374.779 306.545 374.421C306.187 374.935 305.808 375.403 305.386 375.787C304.858 378.374 305.318 379.902 305.732 381.251C306.32 383.164 306.831 384.818 303.977 387.781C303.697 388.073 303.243 388.072 302.966 387.78C302.686 387.488 302.688 387.014 302.969 386.722C305.133 384.47 304.915 383.497 304.412 381.852C303.864 382.342 303.266 382.542 302.778 382.703C301.871 383.003 301.372 383.17 301.263 384.991C301.24 385.403 300.907 385.707 300.505 385.692C300.111 385.668 299.811 385.312 299.835 384.9C299.991 382.266 301.065 381.701 302.348 381.278C303.003 381.061 303.526 380.861 303.934 380.088C303.746 379.199 303.65 378.15 303.779 376.849C302.592 377.41 301.224 377.628 299.644 377.463C299.251 377.421 298.964 377.055 299.004 376.645C299.041 376.234 299.392 375.936 299.786 375.974C302.973 376.308 305.007 374.998 306.378 371.743C306.386 371.724 306.403 371.7 306.41 371.679C306.416 371.669 306.422 371.657 306.429 371.647C306.545 371.404 306.714 371.143 306.935 370.815C307.21 370.404 307.552 369.883 307.775 369.371C307.722 369.258 307.666 369.148 307.617 369.025C305.341 370.391 301.389 371.538 300.758 370.393C300.123 369.245 304.688 365.251 306.96 363.879C307.39 363.62 307.683 363.5 307.917 363.441C308.762 361.66 309.942 359.558 309.929 358.263C309.886 353.776 311.743 352.999 314.5 353C317.257 353 319.058 353.776 319.069 358.261C319.072 359.556 320.251 361.66 321.089 363.441C321.325 363.502 321.614 363.62 322.04 363.879C324.311 365.252 328.877 369.246 328.242 370.393C327.612 371.534 323.684 370.397 321.406 369.037C321.357 369.172 321.296 369.294 321.24 369.419C321.464 369.913 321.797 370.416 322.066 370.814C322.286 371.141 322.455 371.403 322.572 371.646C322.579 371.657 322.584 371.669 322.589 371.677C322.599 371.699 322.614 371.722 322.623 371.741C323.994 374.998 326.024 376.308 329.213 375.974C329.607 375.936 329.957 376.233 329.996 376.645C330.038 377.057 329.751 377.421 329.358 377.463ZM314.502 360.02C315.36 360.02 316.056 359.769 316.056 359.462C316.056 359.155 315.361 357.823 314.502 357.823C313.645 357.823 312.95 359.155 312.95 359.462C312.95 359.769 313.646 360.02 314.502 360.02ZM310.938 364.615C310.723 365.821 310.89 366.929 311.31 367.1C311.731 367.27 312.245 366.433 312.46 365.231C312.674 364.03 312.505 362.919 312.086 362.75C311.666 362.577 311.152 363.412 310.938 364.615ZM314.502 354.038C312.952 354.038 311.699 356.305 311.699 356.693C311.699 357.079 312.952 356.438 314.502 356.438C316.052 356.438 317.308 357.08 317.308 356.693C317.308 356.305 316.052 354.038 314.502 354.038ZM318.068 364.615C317.854 363.412 317.339 362.577 316.92 362.746C316.5 362.915 316.332 364.027 316.544 365.229C316.76 366.431 317.275 367.269 317.695 367.098C318.114 366.929 318.282 365.818 318.068 364.615Z" fill="#543C00" fill-opacity="0.62"/>
<path d="M130.87 186.426C129.742 186.002 128.886 185.396 128.264 184.621C127.922 185.532 127.507 186.197 127.087 186.725C127.108 187.377 127.397 187.689 127.771 188.053C128.5 188.768 129.043 189.507 128.278 191.313C128.161 191.596 127.837 191.73 127.561 191.614C127.283 191.488 127.158 191.174 127.278 190.891C127.807 189.641 127.523 189.362 127.007 188.857C126.729 188.585 126.389 188.25 126.177 187.738C125.29 188.662 124.821 189.238 125.547 191.468C125.641 191.756 125.486 192.073 125.198 192.173C124.912 192.273 124.604 192.122 124.51 191.832C123.552 188.896 124.446 187.967 125.479 186.892C126.206 186.134 127.025 185.271 127.522 183.371C127.363 182.972 127.261 182.533 127.187 182.07C126.988 182.269 126.786 182.448 126.597 182.604C125.921 183.168 125.693 183.357 126.09 184.176C126.223 184.447 126.111 184.781 125.84 184.922C125.571 185.062 125.244 184.954 125.111 184.682C124.324 183.073 125.205 182.342 125.914 181.753C126.384 181.363 126.864 180.954 127.093 180.237C127.091 180.103 127.064 179.928 127.034 179.713C127.002 179.478 126.965 179.211 126.942 178.933C125.595 179.414 124.103 178.958 122.726 177.486C120.803 177.259 119.523 176.34 119.069 174.97C118.82 175.132 118.569 175.274 118.349 175.396C118.16 175.501 118.004 175.587 117.896 175.666C117.462 176.281 117.426 176.911 117.399 177.521C117.357 178.441 117.306 179.586 115.55 179.931C115.255 179.99 114.971 179.794 114.919 179.495C114.867 179.195 115.066 178.904 115.363 178.846C116.257 178.669 116.27 178.373 116.309 177.492C116.319 177.247 116.343 176.978 116.38 176.699C115.967 176.92 115.554 177.104 115.141 177.217C113.926 178.761 113.733 179.934 113.568 180.972C113.334 182.444 113.133 183.718 110.215 184.727C109.928 184.827 109.62 184.673 109.528 184.385C109.434 184.096 109.593 183.781 109.88 183.682C112.096 182.913 112.27 182.192 112.472 180.927C111.938 181.068 111.465 180.999 111.081 180.942C110.365 180.835 109.971 180.777 109.294 181.954C109.142 182.22 108.816 182.31 108.548 182.164C108.288 182.015 108.202 181.677 108.354 181.411C109.332 179.709 110.249 179.696 111.26 179.848C111.776 179.924 112.198 179.968 112.731 179.591C112.898 178.935 113.179 178.204 113.697 177.382C112.705 177.354 111.704 177.038 110.686 176.395C110.433 176.234 110.359 175.894 110.521 175.634C110.683 175.373 111.02 175.293 111.275 175.451C113.329 176.749 115.144 176.564 117.153 174.859C117.164 174.849 117.183 174.84 117.196 174.828C117.203 174.823 117.211 174.817 117.219 174.813C117.378 174.691 117.58 174.574 117.838 174.43C118.161 174.249 118.566 174.017 118.886 173.752C118.888 173.659 118.886 173.566 118.894 173.468C116.895 173.609 113.831 173.039 113.782 172.063C113.73 171.085 118.153 169.967 120.15 169.82C120.528 169.793 120.766 169.812 120.945 169.852C122.108 168.951 123.606 167.95 124.025 167.084C125.481 164.082 126.999 164.191 128.871 165.122C130.744 166.053 131.711 167.178 130.234 170.168C129.808 171.031 129.912 172.83 129.892 174.298C130.032 174.419 130.19 174.595 130.393 174.911C131.482 176.592 133.262 180.792 132.451 181.342C131.646 181.889 129.353 179.806 128.256 178.131C128.178 178.205 128.097 178.265 128.017 178.33C128.006 178.734 128.066 179.181 128.116 179.537C128.158 179.83 128.186 180.061 128.185 180.262C128.186 180.271 128.185 180.281 128.186 180.289C128.186 180.307 128.188 180.327 128.188 180.343C128.042 182.974 128.987 184.531 131.264 185.386C131.544 185.493 131.683 185.809 131.574 186.096C131.466 186.385 131.15 186.53 130.87 186.426ZM126.55 169.797C127.133 170.086 127.689 170.155 127.79 169.95C127.892 169.746 127.86 168.624 127.277 168.334C126.695 168.045 125.782 168.697 125.68 168.902C125.579 169.106 125.969 169.508 126.55 169.797ZM122.609 171.653C122.063 172.383 121.81 173.178 122.039 173.433C122.269 173.689 122.895 173.305 123.439 172.578C123.982 171.85 124.234 171.053 124.006 170.799C123.778 170.542 123.152 170.925 122.609 171.653ZM128.53 165.814C127.477 165.291 125.875 166.377 125.747 166.635C125.619 166.892 126.683 166.889 127.736 167.412C128.789 167.935 129.429 168.787 129.557 168.529C129.685 168.271 129.583 166.337 128.53 165.814ZM127.452 174.06C127.705 173.187 127.631 172.457 127.291 172.428C126.949 172.399 126.467 173.083 126.214 173.955C125.962 174.828 126.035 175.559 126.377 175.588C126.717 175.617 127.199 174.933 127.452 174.06Z" fill="#543C00" fill-opacity="0.62"/>
<path d="M199.978 320.37C199.886 320.735 199.538 320.953 199.182 320.855L193.71 319.304L191.815 320.462L194.133 322.853C194.31 323.035 194.373 323.31 194.296 323.558C194.22 323.806 194.018 323.988 193.773 324.025L192.848 324.169L193.709 324.695L199.181 323.143C199.237 323.127 199.295 323.12 199.349 323.12C199.637 323.12 199.899 323.322 199.977 323.63C200.069 323.997 199.864 324.373 199.518 324.472L195.299 325.668L197.576 327.061C197.887 327.251 197.993 327.672 197.814 327.999C197.634 328.328 197.24 328.442 196.927 328.251L194.652 326.86L195.782 331.325C195.874 331.692 195.668 332.069 195.323 332.167C194.972 332.265 194.62 332.046 194.527 331.681L193.061 325.888L190.772 324.488L190.184 324.579L188.649 327.877V328.586L192.655 332.826C192.908 333.094 192.908 333.53 192.655 333.798C192.4 334.067 191.989 334.067 191.735 333.798L188.648 330.531V333.313C188.648 333.692 188.357 334 187.999 334C187.64 334 187.35 333.692 187.35 333.313V330.527L184.261 333.798C184.009 334.065 183.597 334.066 183.343 333.798C183.089 333.53 183.089 333.094 183.343 332.825L187.349 328.582V327.879L185.812 324.578L185.226 324.488L182.936 325.889L181.472 331.681C181.38 332.047 181.031 332.265 180.676 332.168C180.331 332.07 180.124 331.692 180.218 331.326L181.346 326.861L179.071 328.252C178.761 328.443 178.363 328.33 178.185 328.002C178.006 327.672 178.112 327.253 178.422 327.063L180.701 325.669L176.481 324.473C176.136 324.375 175.929 323.997 176.023 323.632C176.101 323.325 176.363 323.122 176.65 323.122C176.704 323.122 176.762 323.129 176.818 323.145L182.291 324.696L183.152 324.17L182.226 324.027C181.981 323.989 181.777 323.808 181.702 323.56C181.625 323.312 181.689 323.037 181.866 322.855L184.185 320.461L182.29 319.302L176.82 320.855C176.47 320.953 176.117 320.736 176.023 320.37C175.93 320.004 176.136 319.625 176.483 319.527L180.698 318.331L178.423 316.939C178.113 316.749 178.007 316.329 178.185 316C178.306 315.779 178.525 315.656 178.748 315.656C178.858 315.656 178.97 315.686 179.072 315.748L181.351 317.141L180.219 312.674C180.127 312.308 180.332 311.931 180.678 311.832C180.735 311.816 180.791 311.809 180.846 311.809C181.134 311.809 181.396 312.012 181.474 312.32L182.941 318.116L184.257 318.919L183.847 316.392C183.806 316.134 183.906 315.874 184.107 315.72C184.305 315.566 184.572 315.547 184.79 315.668L187.351 317.093V315.419L183.345 311.178C183.091 310.908 183.091 310.473 183.345 310.204C183.598 309.936 184.01 309.936 184.263 310.204L187.351 313.475V310.69C187.351 310.31 187.642 310.003 188 310.003C188.358 310.003 188.649 310.311 188.649 310.69V313.47L191.735 310.202C191.863 310.069 192.029 310 192.195 310C192.361 310 192.527 310.066 192.655 310.202C192.908 310.471 192.908 310.906 192.655 311.175L188.649 315.414V317.09L191.208 315.667C191.302 315.612 191.405 315.587 191.509 315.587C191.644 315.587 191.779 315.631 191.891 315.718C192.09 315.872 192.191 316.131 192.15 316.389L191.74 318.918L193.059 318.112L194.527 312.318C194.605 312.01 194.866 311.808 195.154 311.808C195.208 311.808 195.265 311.816 195.322 311.831C195.668 311.929 195.874 312.307 195.781 312.673L194.65 317.139L196.927 315.746C197.029 315.685 197.141 315.654 197.251 315.654C197.476 315.654 197.694 315.778 197.815 315.998C197.994 316.328 197.887 316.748 197.577 316.937L195.302 318.328L199.519 319.524C199.864 319.625 200.07 320.002 199.978 320.37ZM188.3 318.838C188.207 318.891 188.102 318.918 187.998 318.918C187.894 318.918 187.79 318.891 187.696 318.838L185.349 317.533L185.797 320.3C185.833 320.523 185.763 320.75 185.61 320.909L183.713 322.867L186.336 323.27C186.548 323.303 186.731 323.444 186.825 323.646L187.997 326.163L189.17 323.646C189.264 323.444 189.447 323.302 189.659 323.27L192.281 322.867L190.385 320.909C190.231 320.751 190.161 320.524 190.198 320.3L190.645 317.533L188.3 318.838Z" fill="white" fill-opacity="0.25"/>
<path d="M138.981 80.3697C138.9 80.7349 138.596 80.9532 138.284 80.8555L133.496 79.3039L131.838 80.4621L133.867 82.8532C134.021 83.0354 134.076 83.31 134.009 83.5581C133.942 83.8063 133.766 83.9876 133.551 84.0254L132.742 84.1689L133.495 84.6952L138.284 83.1428C138.332 83.1269 138.383 83.1199 138.43 83.1199C138.682 83.1199 138.912 83.3223 138.98 83.6303C139.06 83.9973 138.881 84.3731 138.578 84.4716L134.886 85.6676L136.879 87.0608C137.151 87.2509 137.244 87.6715 137.087 87.9989C136.93 88.328 136.585 88.4424 136.311 88.2506L134.321 86.8601L135.31 91.3246C135.39 91.6916 135.209 92.0692 134.907 92.1668C134.601 92.2645 134.292 92.0463 134.211 91.6811L132.928 85.8876L130.926 84.4884L130.411 84.579L129.068 87.8766V88.5859L132.573 92.826C132.795 93.0944 132.795 93.5301 132.573 93.7985C132.35 94.0669 131.99 94.0669 131.768 93.7985L129.067 90.5308V93.3127C129.067 93.692 128.813 94 128.499 94C128.185 94 127.931 93.692 127.931 93.3127V90.5273L125.229 93.7976C125.008 94.0651 124.648 94.066 124.425 93.7976C124.203 93.5301 124.203 93.0935 124.425 92.8251L127.931 88.5824V87.8792L126.585 84.5781L126.073 84.4884L124.069 85.8885L122.788 91.6811C122.708 92.0472 122.402 92.2654 122.092 92.1677C121.789 92.07 121.608 91.6925 121.69 91.3264L122.678 86.861L120.688 88.2524C120.416 88.4433 120.068 88.3298 119.911 88.0015C119.755 87.6724 119.848 87.2526 120.119 87.0625L122.113 85.6694L118.421 84.4734C118.119 84.3748 117.938 83.9973 118.02 83.6321C118.088 83.3249 118.318 83.1216 118.569 83.1216C118.616 83.1216 118.666 83.1287 118.716 83.1445L123.505 84.6961L124.258 84.1698L123.448 84.0272C123.233 83.9894 123.055 83.8081 122.989 83.5599C122.922 83.3117 122.978 83.0371 123.133 82.855L125.162 80.4612L123.504 79.3022L118.717 80.8555C118.411 80.9532 118.102 80.7358 118.021 80.3697C117.939 80.0036 118.119 79.6252 118.423 79.5275L122.111 78.3306L120.12 76.9392C119.849 76.7491 119.756 76.3294 119.912 76.0002C120.018 75.7793 120.209 75.6561 120.405 75.6561C120.501 75.6561 120.599 75.686 120.688 75.7476L122.682 77.1408L121.692 72.6745C121.611 72.3084 121.79 71.9308 122.093 71.8323C122.143 71.8164 122.192 71.8094 122.24 71.8094C122.492 71.8094 122.722 72.0118 122.789 72.3198L124.074 78.1159L125.225 78.9194L124.867 76.3918C124.83 76.134 124.917 75.8744 125.093 75.7204C125.267 75.5664 125.501 75.547 125.691 75.6684L127.932 77.0932V75.4194L124.426 71.1775C124.205 70.9082 124.205 70.4726 124.426 70.2042C124.648 69.9358 125.008 69.9358 125.23 70.2042L127.932 73.4753V70.69C127.932 70.3098 128.187 70.0026 128.5 70.0026C128.813 70.0026 129.068 70.3107 129.068 70.69V73.4701L131.768 70.2015C131.88 70.0686 132.025 70 132.171 70C132.316 70 132.461 70.066 132.573 70.2015C132.795 70.4708 132.795 70.9065 132.573 71.1749L129.068 75.4141V77.0897L131.307 75.6667C131.389 75.6121 131.48 75.5866 131.571 75.5866C131.688 75.5866 131.807 75.6306 131.904 75.7177C132.079 75.8717 132.167 76.1313 132.131 76.3892L131.773 78.9176L132.927 78.1124L134.211 72.3181C134.279 72.01 134.508 71.8076 134.76 71.8076C134.807 71.8076 134.857 71.8156 134.907 71.8305C135.209 71.9291 135.39 72.3066 135.308 72.6727L134.319 77.139L136.311 75.7459C136.401 75.6852 136.499 75.6544 136.595 75.6544C136.792 75.6544 136.982 75.7776 137.088 75.9985C137.245 76.3276 137.151 76.7483 136.88 76.9375L134.889 78.328L138.58 79.524C138.881 79.6252 139.061 80.0018 138.981 80.3697ZM128.763 78.8384C128.681 78.8912 128.589 78.9176 128.498 78.9176C128.407 78.9176 128.316 78.8912 128.234 78.8384L126.181 77.5333L126.573 80.3002C126.604 80.5228 126.543 80.7499 126.409 80.9092L124.749 82.8673L127.044 83.2704C127.229 83.3029 127.389 83.4437 127.472 83.6461L128.497 86.1631L129.523 83.6461C129.606 83.4437 129.766 83.302 129.952 83.2704L132.246 82.8673L130.587 80.9092C130.452 80.7508 130.391 80.5237 130.423 80.3002L130.814 77.5333L128.763 78.8384Z" fill="white" fill-opacity="0.25"/>
</svg>
