<?xml version="1.0" encoding="utf-8"?>
<!-- Generator: Adobe Illustrator 22.1.0, SVG Export Plug-In . SVG Version: 6.00 Build 0)  -->
<svg version="1.1" id="Layer_1" xmlns="http://www.w3.org/2000/svg" xmlns:xlink="http://www.w3.org/1999/xlink" x="0px" y="0px"
	 viewBox="0 0 2100 1400" style="enable-background:new 0 0 2100 1400;" xml:space="preserve">
<style type="text/css">
	.st0{fill:none;}
	.st1{clip-path:url(#SVGID_2_);}
	.st2{fill:#FFFFFF;}
	.st3{fill:#E0B300;}
	.st4{fill:none;stroke:#707070;}
	.st5{fill:#232323;}
	.st6{fill:none;stroke:#3A3A3A;stroke-width:2;}
	.st7{fill:#FF5A52;}
	.st8{fill:#696A6D;}
	.st9{fill:#54C22B;}
	.st10{clip-path:url(#SVGID_4_);}
	.st11{fill:none;stroke:#292929;stroke-width:3;}
	.st12{font-family:'SummerDaisyPersonalUse';}
	.st13{font-size:69px;}
	.st14{letter-spacing:2;}
	.st15{font-family:'SegoeUI';}
	.st16{font-size:85px;}
	.st17{letter-spacing:3;}
	.st18{fill:#292929;}
	.st19{font-family:'Lato-Regular';}
	.st20{font-size:43px;}
	.st21{fill:#474545;}
	.st22{fill:url(#images_1_);}
</style>
<pattern  y="1400" width="225" height="225" patternUnits="userSpaceOnUse" id="pattern" viewBox="0 -225 225 225" style="overflow:visible;">
	<g>
		<rect y="-225" class="st0" width="225" height="225"/>
		
			<image style="overflow:visible;enable-background:new    ;" width="225" height="225" xlink:href="7000725A.jpg"  transform="matrix(1 0 0 -1 0 0)">
		</image>
	</g>
</pattern>
<g>
	<defs>
		<rect id="SVGID_1_" width="2100" height="1400"/>
	</defs>
	<clipPath id="SVGID_2_">
		<use xlink:href="#SVGID_1_"  style="overflow:visible;"/>
	</clipPath>
	<g class="st1">
		<rect class="st2" width="2100" height="1400"/>
		<g id="Rectangle_10">
			<path class="st3" d="M40,0h2020c22.1,0,40,17.9,40,40v1320c0,22.1-17.9,40-40,40H40c-22.1,0-40-17.9-40-40V40C0,17.9,17.9,0,40,0
				z"/>
			<path class="st4" d="M40,0.5h2020c21.8,0,39.5,17.7,39.5,39.5v1320c0,21.8-17.7,39.5-39.5,39.5H40c-21.8,0-39.5-17.7-39.5-39.5
				V40C0.5,18.2,18.2,0.5,40,0.5z"/>
		</g>
		<g id="Group_13" transform="translate(-351.46 363.682)">
			<g id="Rectangle_9" transform="translate(415.46 149.318)">
				<path class="st5" d="M20,0h1932c11,0,20,9,20,20v1608c0,11-9,20-20,20H20c-11,0-20-9-20-20V20C0,9,9,0,20,0z"/>
				<path class="st6" d="M20,1h1932c10.5,0,19,8.5,19,19v1608c0,10.5-8.5,19-19,19H20c-10.5,0-19-8.5-19-19V20C1,9.5,9.5,1,20,1z"/>
			</g>
			<g id="Group_12" transform="translate(445.401 171.096)">
				<g id="Ellipse_2" transform="translate(0.059 0.222)">
					<ellipse class="st7" cx="18" cy="17" rx="18" ry="17"/>
					<ellipse class="st6" cx="18" cy="17" rx="17" ry="16"/>
				</g>
				<g id="Ellipse_3" transform="translate(59.059 0.222)">
					<ellipse class="st8" cx="16.5" cy="17" rx="16.5" ry="17"/>
					<ellipse class="st6" cx="16.5" cy="17" rx="15.5" ry="16"/>
				</g>
				<g id="Ellipse_4" transform="translate(117.059 0.222)">
					<circle class="st9" cx="17" cy="17" r="17"/>
					<circle class="st6" cx="17" cy="17" r="16"/>
				</g>
			</g>
		</g>
		<g id="Artboard_3">
			<defs>
				<rect id="SVGID_3_" x="65" y="596" width="1971" height="804"/>
			</defs>
			<clipPath id="SVGID_4_">
				<use xlink:href="#SVGID_3_"  style="overflow:visible;"/>
			</clipPath>
			<g id="Add_category_2-2" transform="translate(65.303 596)" class="st10">
				<rect id="Rectangle_14" x="-0.3" class="st2" width="1971" height="804"/>
				<g id="Nav">
					<rect id="Rectangle_1" x="-0.3" class="st3" width="3802" height="220"/>
					<text transform="matrix(1 0 0 1 2938.697 127)" class="st18 st19" style="font-size:51px;">How it works?</text>
					<g id="Create_menu_btn" transform="translate(3336.798 61.389)">
						<g id="Rectangle_2" transform="translate(-0.101 -0.389)">
							<path class="st3" d="M5,0h364c2.8,0,5,2.2,5,5v87c0,2.8-2.2,5-5,5H5c-2.8,0-5-2.2-5-5V5C0,2.2,2.2,0,5,0z"/>
							<path class="st11" d="M5,1.5h364c1.9,0,3.5,1.6,3.5,3.5v87c0,1.9-1.6,3.5-3.5,3.5H5c-1.9,0-3.5-1.6-3.5-3.5V5
								C1.5,3.1,3.1,1.5,5,1.5z"/>
						</g>
						<text transform="matrix(1 0 0 1 39.8979 65.611)" class="st18 st19" style="font-size:51px;">Create Menu</text>
					</g>
					<g id="Logo" transform="translate(95.046 8.783)">
						<g id="Layer_1_1_" transform="translate(0 0)">
							<g id="Group" transform="translate(0)">
								<text transform="matrix(0.9698 -0.244 0.244 0.9698 36.998 129.5499)" class="st12 st13 st14">Grub</text>
								<text transform="matrix(0.9698 -0.244 0.244 0.9698 114.211 166.151)" class="st12 st13 st14">  </text>
								<text transform="matrix(0.9698 -0.244 0.244 0.9698 179.953 150.5799)" class="st15 st16 st17">.</text>
								<text transform="matrix(0.9698 -0.244 0.244 0.9698 203.994 143.567)" class="st12 st13 st14">live</text>
							</g>
						</g>
					</g>
				</g>
				<g id="Add_category" transform="translate(87.133 360.414)">
					
						<image style="overflow:visible;" width="14776" height="630" xlink:href="7000725E.png"  transform="matrix(1 0 0 1 365.64 497.08)">
					</image>
					<g id="text_input" transform="translate(65.35 35.645)">
						<g id="Rectangle_3" transform="translate(0.214 76.941)">
							<path class="st2" d="M5,0h1525c2.8,0,5,2.2,5,5v93c0,2.8-2.2,5-5,5H5c-2.8,0-5-2.2-5-5V5C0,2.2,2.2,0,5,0z"/>
							<path class="st4" d="M5,0.5h1525c2.5,0,4.5,2,4.5,4.5v93c0,2.5-2,4.5-4.5,4.5H5c-2.5,0-4.5-2-4.5-4.5V5
								C0.5,2.5,2.5,0.5,5,0.5z"/>
						</g>
						<text transform="matrix(1 0 0 1 0.214 41.941)" class="st18 st19 st20">Title</text>
						<text transform="matrix(1 0 0 1 26.214 144.941)" class="st21 st19 st20">Chinese Food</text>
					</g>
				</g>
				<pattern  id="images_1_" xlink:href="#pattern" patternTransform="matrix(0.2889 0 0 -0.2933 -4589.7554 -12424.3203)">
				</pattern>
				<rect id="images_2_" x="463.7" y="483" class="st22" width="65" height="66"/>
			</g>
		</g>
	</g>
</g>
</svg>
