<svg id="Layer_1" data-name="Layer 1" xmlns="http://www.w3.org/2000/svg" xmlns:xlink="http://www.w3.org/1999/xlink" viewBox="0 0 2100 1400"><defs><style>.cls-1,.cls-5,.cls-7{fill:none;}.cls-2{clip-path:url(#clip-path);}.cls-3{fill:#fff;}.cls-4{fill:#e0b300;}.cls-5{stroke:#707070;}.cls-6{fill:#232323;}.cls-7{stroke:#3a3a3a;stroke-width:2px;}.cls-8{fill:#ff5a52;}.cls-9{fill:#696a6d;}.cls-10{fill:#54c22b;}.cls-11{clip-path:url(#clip-path-2);}.cls-12,.cls-13,.cls-15{isolation:isolate;}.cls-13,.cls-15{font-size:43px;font-family:Lato-Regular, Lato;}.cls-13{fill:#292929;letter-spacing:0em;}.cls-14{letter-spacing:0em;}.cls-15{fill:#474545;}.cls-16{letter-spacing:-0.04em;}</style><clipPath id="clip-path"><rect class="cls-1" width="2100" height="1400"/></clipPath><clipPath id="clip-path-2"><rect class="cls-1" x="65" y="596" width="1971" height="804"/></clipPath></defs><title>kb_grubArtboard 1</title><g class="cls-2"><rect class="cls-3" width="2100" height="1400"/><g id="Rectangle_10" data-name="Rectangle 10"><rect class="cls-4" width="2100" height="1400" rx="40" ry="40"/><rect class="cls-5" x="0.5" y="0.5" width="2099" height="1399" rx="39.5" ry="39.5"/></g><g id="Group_13" data-name="Group 13"><g id="Rectangle_9" data-name="Rectangle 9"><rect class="cls-6" x="64" y="513" width="1972" height="1648" rx="20" ry="20"/><rect class="cls-7" x="65" y="514" width="1970" height="1646" rx="19" ry="19"/></g><g id="Group_12" data-name="Group 12"><g id="Ellipse_2" data-name="Ellipse 2"><ellipse class="cls-8" cx="112" cy="552" rx="18" ry="17"/><ellipse class="cls-7" cx="112" cy="552" rx="17" ry="16"/></g><g id="Ellipse_3" data-name="Ellipse 3"><ellipse class="cls-9" cx="169.5" cy="552" rx="16.5" ry="17"/><ellipse class="cls-7" cx="169.5" cy="552" rx="15.5" ry="16"/></g><g id="Ellipse_4" data-name="Ellipse 4"><circle class="cls-10" cx="228" cy="552" r="17"/><circle class="cls-7" cx="228" cy="552" r="16"/></g></g></g><g id="Artboard_3" data-name="Artboard 3"><g class="cls-11"><g id="Add_category_2-2" data-name="Add category 2-2"><rect id="Rectangle_14" data-name="Rectangle 14" class="cls-3" x="65" y="596" width="1971" height="804"/><g id="Nav"><rect id="Rectangle_1" data-name="Rectangle 1" class="cls-4" x="65" y="596" width="3802" height="220"/><g id="Logo"><g id="Layer_1-2" data-name="Layer 1"><g id="Group"><g id="Grub_" data-name="Grub " class="cls-12"><g class="cls-12"><path d="M227.05,685.1a6.26,6.26,0,0,1,2.62.4,8.13,8.13,0,0,1,2.54,1.46,2.54,2.54,0,0,1,1.1,2q-.26,10-.57,19.78T231.37,728a171,171,0,0,1-3.13,18.82,102.57,102.57,0,0,1-6,18.22,22.51,22.51,0,0,1-4.94,7.36,22,22,0,0,1-6.55,4.49,16.86,16.86,0,0,1-7,1.48,13.2,13.2,0,0,1-6.43-1.65,13,13,0,0,1-4.81-4.84,17.06,17.06,0,0,1-2.09-8.15,11.48,11.48,0,0,1,1.29-2.39,20.62,20.62,0,0,1,2.21-2.83,11,11,0,0,1,2.28-2c.72-.44,1.19-.39,1.43.17a33.67,33.67,0,0,0,.48,9.13,12.67,12.67,0,0,0,2.42,5.51,5.42,5.42,0,0,0,3.72,2,6.91,6.91,0,0,0,4.37-1.28,17,17,0,0,0,4.43-4.45,31.34,31.34,0,0,0,3.81-7.47,87.24,87.24,0,0,0,3.17-10.87q1.24-5.54,2-11.24t1.09-11.51q.34-5.82.59-11.64a110.7,110.7,0,0,1-6.29,11.61,54.4,54.4,0,0,1-7.34,9.46,8.56,8.56,0,0,1-3.75,1.9,8.44,8.44,0,0,1-3.61-.05,10.15,10.15,0,0,1-3.32-1.48,19.61,19.61,0,0,1-2.91-2.36,18.63,18.63,0,0,1-2.29-2.73,24.5,24.5,0,0,1-1.53-2.57,34.52,34.52,0,0,1-2.44-7.57,57.72,57.72,0,0,1-1.11-9.36,79.75,79.75,0,0,1,.31-10.5,83.77,83.77,0,0,1,1.81-11.06q1.08-4.18,2.36-8.85a89.49,89.49,0,0,1,3.05-9.12,60.68,60.68,0,0,1,4.07-8.42,26.5,26.5,0,0,1,5.52-6.76,4.07,4.07,0,0,1,3.48-.6,16.2,16.2,0,0,1,4.88,1.73,19.94,19.94,0,0,1,4.56,3.3,8.06,8.06,0,0,1,2.52,4.06,39.41,39.41,0,0,1,1.08,8.55,42.06,42.06,0,0,1-.62,8,35.59,35.59,0,0,1-2,7.14,34.15,34.15,0,0,1-3.12,6,7.79,7.79,0,0,1-2.36,1.81,14.19,14.19,0,0,1-3.11,1.21,8.55,8.55,0,0,1-2.84.28c-.85-.07-1.34-.35-1.46-.84a52.85,52.85,0,0,0,2.9-4.86q1.56-2.88,3-6.18a72.2,72.2,0,0,0,2.49-6.78,47.69,47.69,0,0,0,1.58-6.59,22.29,22.29,0,0,0,.24-5.68,6.93,6.93,0,0,0-1.54-4,4,4,0,0,0-1.9-1.44,1.61,1.61,0,0,0-1.38.31,4,4,0,0,0-1,1.37c-.3.6-.6,1.17-.89,1.71a44.22,44.22,0,0,0-3.43,6.84c-1.14,2.76-2.21,5.76-3.21,9s-1.92,6.7-2.75,10.3-1.51,7.17-2.07,10.72-.95,7-1.19,10.37a68.93,68.93,0,0,0-.13,9.11,29.62,29.62,0,0,0,1.15,7,7,7,0,0,0,2.7,4.05,3,3,0,0,0,3.34-.27,14.79,14.79,0,0,0,3.63-3.69,46,46,0,0,0,3.71-6.16q1.86-3.63,3.61-7.74t3.31-8.34q1.56-4.23,2.81-8t2.13-6.8c.59-2,1-3.55,1.25-4.65l.1-1A1.42,1.42,0,0,1,227.05,685.1Z"/><path d="M244.79,674.59a2.29,2.29,0,0,1,2.25-1.25,7.06,7.06,0,0,1,4.89,2.62c.53.69.65,1.24.38,1.64q-.51.84-1.11,2.1a23.22,23.22,0,0,0-1.07,2.54,12.76,12.76,0,0,0-.62,2.36,1.88,1.88,0,0,0,.2,1.48c.23.28.69.26,1.37-.06a14.05,14.05,0,0,0,3-2.24,6.8,6.8,0,0,1,2.68-.25,10.93,10.93,0,0,1,2.55.53,5.05,5.05,0,0,1,1.74,1c.4.38.45.74.16,1.1q-1.63,3.4-2.66,6.22a30.78,30.78,0,0,0-1.49,5.53,28,28,0,0,0-.37,5.61,47.76,47.76,0,0,0,.69,6.44c1.09,1.48,2.15,2.05,3.2,1.69a6.36,6.36,0,0,0,3-2.93,33.3,33.3,0,0,0,2.8-6.15q1.34-3.75,2.46-7.88t2-8.19q.9-4.08,1.55-7.15a.92.92,0,0,1,.68-.56,1.27,1.27,0,0,1,.85.14,2,2,0,0,1,.69.61,1,1,0,0,1,.17.84c-.42,2.48-.87,5.13-1.37,8s-1,5.66-1.64,8.49-1.22,5.55-1.9,8.16a61.38,61.38,0,0,1-2.19,7,22.45,22.45,0,0,1-2.57,4.91,4.4,4.4,0,0,1-2.9,2.05,7.89,7.89,0,0,1-4.2.41,12.67,12.67,0,0,1-4.25-1.45A12.07,12.07,0,0,1,250.4,715a7.34,7.34,0,0,1-1.71-3.7,29.45,29.45,0,0,1-.48-6,43.79,43.79,0,0,1,.46-4.7c.22-1.45.48-2.89.76-4.32a36.65,36.65,0,0,0,.59-4.88,9.21,9.21,0,0,1-4.85.4,4.89,4.89,0,0,1-3.48-3.21,9.16,9.16,0,0,1-.7-3.49,16.48,16.48,0,0,1,.44-3.92,17.07,17.07,0,0,1,1.34-3.71A11.12,11.12,0,0,1,244.79,674.59Z"/><path d="M290.92,671q.06-.59,1.5-.84a16.29,16.29,0,0,1,3.14-.22,14.77,14.77,0,0,1,3.12.36c.93.21,1.37.52,1.33.91a110.94,110.94,0,0,0-2.48,15.17,86.7,86.7,0,0,0,.11,16.16c.08,1.45.37,2.09.88,1.91a4.21,4.21,0,0,0,1.72-1.64,26.64,26.64,0,0,0,1.89-3.22c.62-1.22,1.08-2.15,1.39-2.8q1.14-3.13,2.21-6.78c.72-2.43,1.4-4.92,2-7.45s1.25-5.06,1.83-7.58,1.13-4.91,1.65-7.17a1.55,1.55,0,0,1,1.65-.63,1.34,1.34,0,0,1,.72.46,1.19,1.19,0,0,1,.24.93q-.89,3.57-1.71,7.62c-.56,2.7-1.12,5.41-1.7,8.11s-1.17,5.36-1.77,7.95-1.24,5-1.9,7.14a37.65,37.65,0,0,1-2.16,5.56,9.18,9.18,0,0,1-2.48,3.29c-3.53.69-6.3.66-8.32-.12a5.81,5.81,0,0,1-3.81-3.66,38.56,38.56,0,0,1-1.21-8c-.27,1.2-.53,2.52-.79,3.93s-.53,2.8-.81,4.15-.53,2.58-.78,3.69-.45,2-.63,2.58a2.16,2.16,0,0,1-1.54,1.38,5.57,5.57,0,0,1-2.53,0,14.64,14.64,0,0,1-3-1,24.15,24.15,0,0,1-2.91-1.54A18.75,18.75,0,0,1,273.5,708a3.26,3.26,0,0,1-1.1-1.43,117.8,117.8,0,0,1-.23-15.88q.42-7.65,1.47-15.38c.1-.36.55-.66,1.37-.92a12.64,12.64,0,0,1,2.68-.49,10.52,10.52,0,0,1,2.77.12c.87.16,1.36.44,1.46.84q-1.14,8.19-1.74,15.42a75.27,75.27,0,0,0,.11,14,3.71,3.71,0,0,0,.67,2.22,1,1,0,0,0,1.18.3,2.76,2.76,0,0,0,1.25-1.09,6.39,6.39,0,0,0,.9-1.94c.25-.87.61-2.3,1.06-4.28s.92-4.17,1.41-6.55,1-4.76,1.51-7.14,1-4.43,1.34-6.13c.18-1.57.39-3.07.65-4.51S290.73,672.35,290.92,671Z"/><path d="M317.3,640.69c.21-.29.72-.31,1.51-.06a17.66,17.66,0,0,1,5,2.59c.74.55,1.1,1,1.09,1.33a76.66,76.66,0,0,0-2.71,10.6q-.82,4.8-1.21,9.59t-.55,10.14q-.15,5.34-.63,12.21c-.15,1.66-.22,2.66-.2,3s.08.32.19-.08.26-1,.45-1.9.38-1.66.57-2.41q1-4,1.57-6.77t1.19-5.14c.41-1.59.9-3.25,1.46-4.95s1.32-3.8,2.27-6.27a1.48,1.48,0,0,1,1.84-1,8.37,8.37,0,0,1,3,1.16,15.51,15.51,0,0,1,3,2.32,7.41,7.41,0,0,1,1.78,2.39,29.46,29.46,0,0,1,1,4,23.11,23.11,0,0,1,.37,4.28q3-4,5.41-8.05a34.33,34.33,0,0,0,3.65-8.25,1.18,1.18,0,0,1,.72-.68,1.21,1.21,0,0,1,.85.11,1.72,1.72,0,0,1,.67.69,1.69,1.69,0,0,1,.19,1,17.47,17.47,0,0,1-1.29,3.35q-1,2.15-2.61,4.89c-1.06,1.83-2.25,3.77-3.56,5.8s-2.66,4.09-4,6.14a31.56,31.56,0,0,1-.73,6,27.83,27.83,0,0,1-1.79,5.47,20.57,20.57,0,0,1-2.69,4.44,12.69,12.69,0,0,1-3.46,3.05,3.13,3.13,0,0,1-1.66.34,3.86,3.86,0,0,1-1.69-.5,5.26,5.26,0,0,1-1.43-1.17,4.44,4.44,0,0,1-.95-1.64,3.4,3.4,0,0,1-.63-1.8,6.25,6.25,0,0,1,.17-2.15,8.89,8.89,0,0,1,.8-2,5.53,5.53,0,0,1,1.24-1.59c1.24-1.45,2.3-2.77,3.16-4a12.08,12.08,0,0,0,1.85-3.67,11.39,11.39,0,0,0,.38-4.15,28.4,28.4,0,0,0-1.15-5.58c-.28-1.87-.56-2.92-.83-3.13s-.54,0-.83.63a14.59,14.59,0,0,0-.81,2.59c-.25,1.08-.47,2-.67,2.69-.56,1.95-1.1,4.07-1.64,6.36s-1,4.47-1.49,6.53-.82,3.86-1.1,5.4a28.26,28.26,0,0,0-.43,2.81q-.21,1.41-.33,3.21a18.38,18.38,0,0,1-.43,3.1,1.9,1.9,0,0,1-1.59,1.46,6,6,0,0,1-2.62-.08,8.92,8.92,0,0,1-2.45-1c-.72-.43-1.09-.86-1.11-1.28q-.83-7-1.25-14.2a144.49,144.49,0,0,1-.12-14.74,138.21,138.21,0,0,1,1.54-15.36A114.9,114.9,0,0,1,317.3,640.69Z"/></g></g><g id="_." data-name=" ." class="cls-12"><g class="cls-12"><path d="M349.5,754a4.42,4.42,0,0,1-3.49-.53,4.51,4.51,0,0,1-2.11-2.85,4.6,4.6,0,0,1,.5-3.53,4.4,4.4,0,0,1,2.82-2.15,4.71,4.71,0,0,1,5.69,3.41,4.44,4.44,0,0,1-.52,3.51A4.56,4.56,0,0,1,349.5,754Z"/></g></g><g id="live" class="cls-12"><g class="cls-12"><path d="M362.11,685.45c0-.39.45-.5,1.24-.32a14.49,14.49,0,0,1,2.58.92,16.24,16.24,0,0,1,2.58,1.49c.78.56,1.17,1.05,1.18,1.48a48.63,48.63,0,0,0-1.65,7q-.75,4.37-1.4,9.57t-1.05,10.83c-.26,3.74-.45,7.35-.55,10.81s-.11,6.65,0,9.54a37.55,37.55,0,0,0,.71,6.9c.2,1,.44,1.59.73,1.78s.61.12,1-.22a6,6,0,0,0,1.11-1.52c.37-.69.73-1.43,1.07-2.23s.65-1.57.91-2.33.48-1.36.64-1.83q1.2-3.15,2.27-7t2-7.83q.91-4,1.78-8t1.81-7.68a1.13,1.13,0,0,1,.7-.6,1.63,1.63,0,0,1,.82,0,1.28,1.28,0,0,1,.7.5,1.49,1.49,0,0,1,.26.9q-.87,3.63-1.62,7.7c-.51,2.71-1,5.44-1.43,8.19s-.91,5.42-1.39,8-1,5-1.62,7.17a31.86,31.86,0,0,1-2,5.6,8.45,8.45,0,0,1-2.67,3.37,8.33,8.33,0,0,1-3.65.49,12.1,12.1,0,0,1-3.75-.9,11.2,11.2,0,0,1-3.17-2,6.23,6.23,0,0,1-1.86-2.84,38.62,38.62,0,0,1-1.47-8.84,97,97,0,0,1-.09-10.83q.24-5.68.91-11.51t1.48-10.93q.81-5.12,1.61-9T362.11,685.45Z"/><path d="M381.1,704.36c0-.39.54-.67,1.49-.84a17.31,17.31,0,0,1,3.15-.22,14.68,14.68,0,0,1,3.11.36c.93.21,1.38.52,1.33.91a112.45,112.45,0,0,0-2.47,15.17,86.7,86.7,0,0,0,.11,16.16c.06,1,.23,1.58.52,1.79a.8.8,0,0,0,1-.11,5.77,5.77,0,0,0,1.21-1.38c.44-.63.87-1.32,1.3-2.06s.81-1.49,1.15-2.22.62-1.32.83-1.8Q395,727,396,723.3c.71-2.45,1.37-4.93,2-7.44s1.22-5,1.77-7.53,1.09-4.89,1.62-7.16a1.62,1.62,0,0,1,.77-.59,1.57,1.57,0,0,1,.88,0,1.4,1.4,0,0,1,.72.46,1.2,1.2,0,0,1,.24.94q-.89,3.55-1.63,7.52t-1.48,8q-.74,4-1.54,7.86c-.55,2.55-1.15,4.91-1.82,7.07A32.51,32.51,0,0,1,395.3,738a9.56,9.56,0,0,1-3,3.56q-5.28,1-8.28-.12a5.83,5.83,0,0,1-3.77-3.68,36.9,36.9,0,0,1-1.19-8,82.93,82.93,0,0,1,.07-8.77c.18-3,.45-5.88.82-8.74S380.71,706.79,381.1,704.36Zm2.78-21.47c.3-.5,1-.68,2-.54a14,14,0,0,1,3.2.86,18.75,18.75,0,0,1,3,1.49c.9.56,1.35,1,1.35,1.4-.71,1.51-1.29,2.78-1.71,3.81l-1.22,2.94c-.38.93-.76,1.88-1.13,2.85s-.86,2.15-1.46,3.53a1.42,1.42,0,0,1-1.14.57,3.56,3.56,0,0,1-1.6-.27,4.44,4.44,0,0,1-1.43-.89,1.6,1.6,0,0,1-.57-1.27c0-.62,0-1.45-.1-2.51s-.06-2.23,0-3.54.1-2.7.21-4.15A30.45,30.45,0,0,1,383.88,682.89Z"/><path d="M442.05,696.36a12.07,12.07,0,0,1-3.25,3.2,13.94,13.94,0,0,1-4.21,1.91,12.53,12.53,0,0,1-4.65.35,10.43,10.43,0,0,1-4.48-1.57c-.26,3.15-.5,6.31-.74,9.5a75,75,0,0,1-1.27,9.25,43,43,0,0,1-2.63,8.49,25.26,25.26,0,0,1-4.75,7.28,14.11,14.11,0,0,1-2.34.2c-1.2,0-2.45,0-3.77,0a24.3,24.3,0,0,1-3.62-.37c-1.09-.2-1.75-.48-2-.85a37.56,37.56,0,0,1-1.47-7.81,85,85,0,0,1-.3-9.14c.06-3.17.24-6.42.57-9.75s.74-6.55,1.23-9.66c0-.44.47-.71,1.32-.83a10.36,10.36,0,0,1,2.78,0,12.67,12.67,0,0,1,2.76.66q1.26.46,1.29,1.17a28,28,0,0,0-.69,3.19c-.22,1.37-.44,2.9-.65,4.61s-.4,3.56-.57,5.52-.31,3.92-.41,5.87-.18,3.81-.23,5.6,0,3.39,0,4.8a5.06,5.06,0,0,0,.53,2.25.79.79,0,0,0,.92.41,2.8,2.8,0,0,0,1.13-.89c.4-.48.81-1,1.23-1.6a20.68,20.68,0,0,0,2.91-7.09,65.53,65.53,0,0,0,1.15-8q.33-4.17.59-8.51a51.81,51.81,0,0,1,1.26-8.57c-.05-.41.23-.79.85-1.14a7.34,7.34,0,0,1,2.13-.74,7.88,7.88,0,0,1,2.24-.14c.7.06,1.11.31,1.22.76a.5.5,0,0,0,0,.42,41.53,41.53,0,0,0,4.24,1.74,12.25,12.25,0,0,0,3.7.7,6.39,6.39,0,0,0,3.07-.66,6,6,0,0,0,2.36-2.37,1.84,1.84,0,0,1,1.18-.41,1.79,1.79,0,0,1,1,.36,1.58,1.58,0,0,1,.53.86A1.23,1.23,0,0,1,442.05,696.36Z"/><path d="M452.8,690.74a17.36,17.36,0,0,1,.44,7,24.85,24.85,0,0,1-2,6.86,27.73,27.73,0,0,1-3.68,6A22,22,0,0,1,442.9,715c.23,1.32.47,2.45.71,3.41a6.54,6.54,0,0,0,1,2.28c.79,1.41,1.72,2.15,2.8,2.21a5.78,5.78,0,0,0,3.75-1.65,18.67,18.67,0,0,0,5.07-6.4,48.71,48.71,0,0,0,3.26-8.58q1.31-4.66,2.32-9.72t2.37-9.81c.12-.46.32-.74.61-.83a1,1,0,0,1,.88.13,2.27,2.27,0,0,1,.77.77,1.78,1.78,0,0,1,.28,1c-.62,2.44-1.21,5-1.78,7.64s-1.14,5.31-1.73,8-1.2,5.22-1.83,7.68a55,55,0,0,1-2.19,6.74,25.78,25.78,0,0,1-2.77,5.25,8.5,8.5,0,0,1-3.53,3.06,7.54,7.54,0,0,1-4.23.6,15.4,15.4,0,0,1-4.72-1.38,18,18,0,0,1-4.29-2.79,13.28,13.28,0,0,1-3-3.72,11.79,11.79,0,0,1-1.14-4,33.32,33.32,0,0,1-.26-5.42,55.79,55.79,0,0,1,.52-6.11,54.85,54.85,0,0,1,1.21-6.1,35.62,35.62,0,0,1,1.79-5.32,14.83,14.83,0,0,1,2.3-3.85,3.71,3.71,0,0,1,2.86-1.25,10.62,10.62,0,0,1,3.75.51,14.07,14.07,0,0,1,3.42,1.56A3.56,3.56,0,0,1,452.8,690.74Zm-3.7.29a10.63,10.63,0,0,0-1.84,2.84,46.74,46.74,0,0,0-2.13,5,50.09,50.09,0,0,0-1.76,6,27.5,27.5,0,0,0-.76,5.88c.79-.81,1.42-1.49,1.9-2a10.65,10.65,0,0,0,1.17-1.58,12.83,12.83,0,0,0,.79-1.51c.23-.51.52-1.12.86-1.82a10.44,10.44,0,0,0,.56-1.74c.22-.84.42-1.75.62-2.75s.39-2,.55-3.06.29-2,.37-2.79a11,11,0,0,0,0-1.94C449.43,691,449.31,690.88,449.1,691Z"/></g></g></g></g></g></g><g id="Add_category" data-name="Add category"><g id="text_input" data-name="text input"><g id="Rectangle_3" data-name="Rectangle 3"><rect class="cls-3" x="218" y="1069" width="1535" height="103" rx="5" ry="5"/><rect class="cls-5" x="218.5" y="1069.5" width="1534" height="102" rx="4.5" ry="4.5"/></g><g id="Title" class="cls-12"><text class="cls-13" transform="translate(218 1034)">T<tspan class="cls-14" x="25.26" y="0">itle</tspan></text></g><g id="Chinese_Food" data-name="Chinese Food" class="cls-12"><text class="cls-15" transform="translate(244 1137)">Chinese <tspan class="cls-16" x="162.07" y="0">F</tspan><tspan x="184.51" y="0">ood</tspan></text></g></g></g></g></g></g></g></svg>