<svg id="Layer_1" data-name="Layer 1" xmlns="http://www.w3.org/2000/svg" xmlns:xlink="http://www.w3.org/1999/xlink" viewBox="0 0 2100 1400"><defs><style>.cls-1,.cls-5,.cls-7{fill:none;}.cls-2{clip-path:url(#clip-path);}.cls-3{fill:#fff;}.cls-4{fill:#e0b300;}.cls-5{stroke:#707070;}.cls-6{fill:#232323;}.cls-7{stroke:#3a3a3a;stroke-width:2px;}.cls-8{fill:#ff5a52;}.cls-9{fill:#696a6d;}.cls-10{fill:#54c22b;}.cls-11{clip-path:url(#clip-path-2);}.cls-12,.cls-13,.cls-21,.cls-27,.cls-46,.cls-49,.cls-66{isolation:isolate;}.cls-13,.cls-66{font-size:39px;}.cls-13,.cls-27,.cls-46,.cls-49{fill:#292929;}.cls-13,.cls-21,.cls-27,.cls-49,.cls-66{font-family:Lato-Regular, Lato;}.cls-14{letter-spacing:-0.01em;}.cls-15{letter-spacing:-0.01em;}.cls-16{letter-spacing:-0.02em;}.cls-17{letter-spacing:-0.03em;}.cls-18{letter-spacing:-0.01em;}.cls-19{letter-spacing:-0.01em;}.cls-20{letter-spacing:0em;}.cls-21,.cls-27{font-size:38px;}.cls-21{fill:#5d5656;}.cls-22{letter-spacing:0em;}.cls-23{letter-spacing:-0.03em;}.cls-24{letter-spacing:-0.01em;}.cls-25{letter-spacing:-0.01em;}.cls-26{letter-spacing:0em;}.cls-28{letter-spacing:-0.01em;}.cls-29{letter-spacing:0.01em;}.cls-30{letter-spacing:-0.11em;}.cls-31{letter-spacing:0em;}.cls-32{letter-spacing:-0.02em;}.cls-33{letter-spacing:-0.01em;}.cls-34{letter-spacing:-0.02em;}.cls-35{letter-spacing:-0.01em;}.cls-36{letter-spacing:-0.01em;}.cls-37{letter-spacing:-0.01em;}.cls-38{letter-spacing:-0.01em;}.cls-39{letter-spacing:-0.01em;}.cls-40{fill:#f2f2f2;}.cls-41{letter-spacing:-0.04em;}.cls-42{letter-spacing:-0.01em;}.cls-43{letter-spacing:-0.02em;}.cls-44{letter-spacing:-0.02em;}.cls-45{letter-spacing:-0.01em;}.cls-46{font-size:63px;font-family:Lato-Bold, Lato;font-weight:700;}.cls-47{letter-spacing:-0.02em;}.cls-48{letter-spacing:-0.02em;}.cls-49{font-size:46px;}.cls-50{letter-spacing:0em;}.cls-51{letter-spacing:-0.01em;}.cls-52{letter-spacing:0em;}.cls-53{letter-spacing:-0.02em;}.cls-54{letter-spacing:-0.02em;}.cls-55{letter-spacing:-0.01em;}.cls-56{letter-spacing:0em;}.cls-57{letter-spacing:0em;}.cls-58{letter-spacing:0em;}.cls-59{letter-spacing:-0.02em;}.cls-60{letter-spacing:-0.01em;}.cls-61{letter-spacing:-0.02em;}.cls-62{letter-spacing:-0.01em;}.cls-63{letter-spacing:0em;}.cls-64{letter-spacing:-0.02em;}.cls-65{letter-spacing:-0.04em;}.cls-66,.cls-71{fill:#178caa;}.cls-67{letter-spacing:0em;}.cls-68{letter-spacing:-0.01em;}.cls-69{letter-spacing:-0.02em;}.cls-70{letter-spacing:-0.01em;}</style><clipPath id="clip-path"><rect class="cls-1" width="2100" height="1400"/></clipPath><clipPath id="clip-path-2"><rect class="cls-1" x="64" y="183" width="1972" height="1365"/></clipPath></defs><title>lastscreen_4Artboard 1</title><g class="cls-2"><rect class="cls-3" width="2100" height="1400"/><rect class="cls-4" width="2100" height="1400" rx="40" ry="40"/><rect class="cls-5" x="0.5" y="0.5" width="2099" height="1399" rx="39.5" ry="39.5"/><rect class="cls-6" x="64" y="82" width="1972" height="1648" rx="20" ry="20"/><rect class="cls-7" x="65" y="83" width="1970" height="1646" rx="19" ry="19"/><ellipse class="cls-8" cx="112" cy="121" rx="18" ry="17"/><ellipse class="cls-7" cx="112" cy="121" rx="17" ry="16"/><ellipse class="cls-9" cx="169.5" cy="121" rx="16.5" ry="17"/><ellipse class="cls-7" cx="169.5" cy="121" rx="15.5" ry="16"/><circle class="cls-10" cx="228" cy="121" r="17"/><circle class="cls-7" cx="228" cy="121" r="16"/><g id="e"><g class="cls-11"><rect class="cls-3" x="64" y="183" width="1972" height="1365"/><rect class="cls-4" x="64" y="183" width="3399" height="197"/><g class="cls-12"><g class="cls-12"><path d="M208.51,263.34a5.83,5.83,0,0,1,2.36.37,7.29,7.29,0,0,1,2.28,1.31,2.28,2.28,0,0,1,1,1.77q-.22,9-.51,17.77t-1.24,17.35a151,151,0,0,1-2.81,16.91,91,91,0,0,1-5.34,16.37,20.21,20.21,0,0,1-4.44,6.61,19.63,19.63,0,0,1-5.89,4,15.34,15.34,0,0,1-6.31,1.34,12,12,0,0,1-5.78-1.49,11.56,11.56,0,0,1-4.32-4.35,15.27,15.27,0,0,1-1.88-7.33,10.52,10.52,0,0,1,1.16-2.14,19.27,19.27,0,0,1,2-2.55,10.32,10.32,0,0,1,2.05-1.76c.65-.4,1.07-.34,1.29.16a29.93,29.93,0,0,0,.43,8.2,11.29,11.29,0,0,0,2.17,4.95,4.93,4.93,0,0,0,3.34,1.85,6.32,6.32,0,0,0,3.93-1.15,15.28,15.28,0,0,0,4-4,27.8,27.8,0,0,0,3.43-6.71,78.47,78.47,0,0,0,2.85-9.76q1.11-5,1.77-10.1t1-10.35q.32-5.22.53-10.46a99.79,99.79,0,0,1-5.65,10.44,49.47,49.47,0,0,1-6.59,8.5,7.82,7.82,0,0,1-3.37,1.71,7.67,7.67,0,0,1-3.24-.05,9.06,9.06,0,0,1-3-1.33,17.38,17.38,0,0,1-2.61-2.12,15.63,15.63,0,0,1-2.06-2.46,20.17,20.17,0,0,1-1.38-2.3,31.59,31.59,0,0,1-2.19-6.8,51.26,51.26,0,0,1-1-8.42,73.82,73.82,0,0,1,.28-9.43,74.82,74.82,0,0,1,1.63-9.94q1-3.75,2.12-8a82.93,82.93,0,0,1,2.73-8.2,57,57,0,0,1,3.66-7.57,24.33,24.33,0,0,1,5-6.07,3.66,3.66,0,0,1,3.13-.53,14.48,14.48,0,0,1,4.39,1.55,18.29,18.29,0,0,1,4.1,3,7.32,7.32,0,0,1,2.26,3.65,35.75,35.75,0,0,1,1,7.69,37.09,37.09,0,0,1-.56,7.17,31.53,31.53,0,0,1-1.84,6.41,31.11,31.11,0,0,1-2.8,5.37,7,7,0,0,1-2.12,1.62,12.38,12.38,0,0,1-2.8,1.09,8.12,8.12,0,0,1-2.55.26c-.76-.07-1.2-.32-1.31-.76a48,48,0,0,0,2.61-4.37q1.4-2.58,2.66-5.56t2.24-6.09a42.4,42.4,0,0,0,1.42-5.92,20,20,0,0,0,.22-5.1,6.31,6.31,0,0,0-1.39-3.62,3.61,3.61,0,0,0-1.7-1.3,1.46,1.46,0,0,0-1.24.28,3.51,3.51,0,0,0-.94,1.23c-.27.54-.53,1.05-.8,1.54a39,39,0,0,0-3.08,6.15c-1,2.47-2,5.18-2.89,8.11s-1.72,6-2.46,9.25-1.37,6.45-1.86,9.64-.86,6.3-1.08,9.32a61.49,61.49,0,0,0-.11,8.18,26.79,26.79,0,0,0,1,6.29,6.29,6.29,0,0,0,2.42,3.64,2.74,2.74,0,0,0,3-.24,13.3,13.3,0,0,0,3.26-3.31,42.53,42.53,0,0,0,3.34-5.54q1.66-3.27,3.23-6.95t3-7.5q1.41-3.8,2.53-7.22c.75-2.27,1.38-4.31,1.91-6.11s.91-3.19,1.13-4.18l.09-.92A1.27,1.27,0,0,1,208.51,263.34Z"/><path d="M224.45,253.9a2.07,2.07,0,0,1,2-1.12,5.9,5.9,0,0,1,2.49.75,6.06,6.06,0,0,1,1.91,1.6c.47.62.59,1.12.34,1.48s-.63,1.13-1,1.88-.68,1.52-1,2.29a11.28,11.28,0,0,0-.55,2.12,1.68,1.68,0,0,0,.17,1.33c.21.25.62.23,1.24-.05a13.29,13.29,0,0,0,2.68-2,6.2,6.2,0,0,1,2.41-.23,10.5,10.5,0,0,1,2.29.48,4.37,4.37,0,0,1,1.56.86c.36.33.41.66.15,1a60.64,60.64,0,0,0-2.39,5.59,27.67,27.67,0,0,0-1.34,5,24.65,24.65,0,0,0-.33,5,42.14,42.14,0,0,0,.62,5.79c1,1.33,1.93,1.84,2.88,1.51a5.69,5.69,0,0,0,2.72-2.63,30.19,30.19,0,0,0,2.51-5.52q1.2-3.37,2.22-7.08c.68-2.47,1.28-4.93,1.82-7.37s1-4.57,1.39-6.42a.8.8,0,0,1,.61-.5,1.16,1.16,0,0,1,.77.12,1.78,1.78,0,0,1,.61.55.91.91,0,0,1,.16.76q-.57,3.35-1.24,7.15t-1.47,7.63c-.53,2.54-1.1,5-1.7,7.33a52.1,52.1,0,0,1-2,6.25,19,19,0,0,1-2.31,4.42,3.94,3.94,0,0,1-2.6,1.84,7,7,0,0,1-3.77.37,11.4,11.4,0,0,1-3.82-1.31,10.69,10.69,0,0,1-3.06-2.52A6.53,6.53,0,0,1,228,286.9a26,26,0,0,1-.43-5.39,37.94,37.94,0,0,1,.41-4.23c.2-1.3.43-2.6.68-3.88a32,32,0,0,0,.53-4.38,8.44,8.44,0,0,1-4.35.36,4.43,4.43,0,0,1-3.13-2.89,8.17,8.17,0,0,1-.63-3.14,14.69,14.69,0,0,1,.4-3.52,15.81,15.81,0,0,1,1.2-3.34A10.15,10.15,0,0,1,224.45,253.9Z"/><path d="M265.9,250.69q.06-.52,1.35-.75a14.79,14.79,0,0,1,2.83-.2,13.8,13.8,0,0,1,2.79.32c.84.2,1.24.47,1.2.82a100.75,100.75,0,0,0-2.23,13.63A77.73,77.73,0,0,0,272,279c.07,1.31.33,1.88.78,1.72a3.77,3.77,0,0,0,1.55-1.47,25.11,25.11,0,0,0,1.7-2.89c.56-1.1,1-1.94,1.25-2.52q1-2.82,2-6.1c.65-2.18,1.26-4.42,1.84-6.69s1.12-4.55,1.64-6.81,1-4.41,1.48-6.44a1.39,1.39,0,0,1,.7-.53,1.43,1.43,0,0,1,.79,0,1.29,1.29,0,0,1,.65.41,1.05,1.05,0,0,1,.21.84q-.79,3.21-1.54,6.85c-.5,2.43-1,4.85-1.52,7.29s-1,4.81-1.6,7.14-1.11,4.47-1.71,6.41a32.17,32.17,0,0,1-1.94,5,8.07,8.07,0,0,1-2.23,3q-4.74.94-7.47-.1a5.18,5.18,0,0,1-3.42-3.29,34.72,34.72,0,0,1-1.09-7.15c-.24,1.09-.48,2.27-.71,3.54s-.48,2.52-.72,3.73-.49,2.32-.71,3.31-.41,1.76-.57,2.32a1.9,1.9,0,0,1-1.38,1.24,5,5,0,0,1-2.27,0,13.48,13.48,0,0,1-2.7-.92,22.27,22.27,0,0,1-2.62-1.38,16.85,16.85,0,0,1-2.07-1.5,2.87,2.87,0,0,1-1-1.28,105.34,105.34,0,0,1-.2-14.27q.38-6.87,1.32-13.82c.09-.32.5-.6,1.23-.82a10.86,10.86,0,0,1,2.41-.45,9.27,9.27,0,0,1,2.49.11c.78.14,1.22.39,1.31.76q-1,7.35-1.57,13.85a67.8,67.8,0,0,0,.1,12.6,3.42,3.42,0,0,0,.6,2,.94.94,0,0,0,1.06.28,2.49,2.49,0,0,0,1.13-1,5.78,5.78,0,0,0,.81-1.74c.23-.78.54-2.06.95-3.85s.82-3.74,1.27-5.88.89-4.28,1.36-6.42.86-4,1.2-5.51c.16-1.4.35-2.75.58-4S265.74,251.89,265.9,250.69Z"/><path d="M289.61,223.44c.19-.26.64-.28,1.36-.05a13.73,13.73,0,0,1,2.29,1,15.08,15.08,0,0,1,2.19,1.36c.66.5,1,.9,1,1.2a69.48,69.48,0,0,0-2.42,9.53c-.5,2.87-.86,5.74-1.1,8.61s-.4,5.91-.49,9.11-.28,6.86-.56,11a26.51,26.51,0,0,0-.18,2.7c0,.31.07.29.17-.08s.23-.93.4-1.7.34-1.49.51-2.17c.59-2.41,1.06-4.43,1.41-6.08s.71-3.18,1.08-4.62.8-2.92,1.31-4.45,1.19-3.41,2-5.63a1.32,1.32,0,0,1,1.66-.92,7.33,7.33,0,0,1,2.72,1,14.14,14.14,0,0,1,2.67,2.08,6.68,6.68,0,0,1,1.59,2.15,28.39,28.39,0,0,1,.9,3.58,20.28,20.28,0,0,1,.33,3.85q2.67-3.62,4.86-7.23a30.65,30.65,0,0,0,3.28-7.41,1.06,1.06,0,0,1,.65-.62,1.07,1.07,0,0,1,.76.1,1.44,1.44,0,0,1,.6.62,1.5,1.5,0,0,1,.18.94,15.28,15.28,0,0,1-1.16,3c-.62,1.29-1.4,2.75-2.35,4.4s-2,3.38-3.2,5.21-2.39,3.67-3.63,5.52a28.58,28.58,0,0,1-.65,5.41,25.46,25.46,0,0,1-1.61,4.91,18.34,18.34,0,0,1-2.42,4,11.27,11.27,0,0,1-3.11,2.74,2.78,2.78,0,0,1-1.49.31,3.53,3.53,0,0,1-1.52-.45,4.88,4.88,0,0,1-1.29-1,4.3,4.3,0,0,1-.85-1.48,3,3,0,0,1-.56-1.62,5.68,5.68,0,0,1,.15-1.92,7.81,7.81,0,0,1,.72-1.84,5,5,0,0,1,1.11-1.44q1.68-2,2.84-3.56a10.77,10.77,0,0,0,1.67-3.29,10.26,10.26,0,0,0,.34-3.73,25.17,25.17,0,0,0-1-5c-.25-1.69-.5-2.63-.74-2.82s-.49,0-.75.57a13.39,13.39,0,0,0-.73,2.32c-.22,1-.42,1.78-.6,2.43q-.75,2.61-1.47,5.7c-.49,2.07-.93,4-1.34,5.87s-.74,3.47-1,4.85a22.86,22.86,0,0,0-.38,2.53c-.13.84-.23,1.8-.3,2.89a16.16,16.16,0,0,1-.39,2.78,1.72,1.72,0,0,1-1.42,1.32,5.56,5.56,0,0,1-2.36-.08,7.87,7.87,0,0,1-2.2-.89c-.65-.39-1-.77-1-1.15q-.74-6.27-1.13-12.76t-.1-13.24a122.11,122.11,0,0,1,1.39-13.81A102.08,102.08,0,0,1,289.61,223.44Z"/></g></g><g class="cls-12"><g class="cls-12"><path d="M318.34,325a4,4,0,0,1-3.16-.48,4.11,4.11,0,0,1-1.91-2.59,4.16,4.16,0,0,1,.45-3.19,4,4,0,0,1,2.56-1.95,4.09,4.09,0,0,1,3.22.49,4.14,4.14,0,0,1,1.94,2.6,4,4,0,0,1-.48,3.18A4.11,4.11,0,0,1,318.34,325Z"/></g></g><g class="cls-12"><g class="cls-12"><path d="M329,263.61c0-.36.41-.45,1.11-.28a12.79,12.79,0,0,1,2.32.82,14.36,14.36,0,0,1,2.31,1.33c.71.51,1.06.95,1.07,1.33a42.84,42.84,0,0,0-1.48,6.29c-.46,2.61-.88,5.47-1.26,8.6s-.7,6.36-.94,9.73-.41,6.6-.5,9.71-.1,6,0,8.57a34,34,0,0,0,.64,6.21,2.76,2.76,0,0,0,.65,1.59c.26.17.55.11.88-.19a5.27,5.27,0,0,0,1-1.37c.33-.62.66-1.28,1-2s.58-1.42.81-2.09l.58-1.65c.72-1.89,1.4-4,2-6.27s1.23-4.63,1.77-7,1.09-4.8,1.61-7.21,1.06-4.71,1.62-6.9a1.07,1.07,0,0,1,.63-.54,1.43,1.43,0,0,1,.74,0,1,1,0,0,1,.62.45,1.24,1.24,0,0,1,.24.8c-.52,2.18-1,4.48-1.46,6.92s-.88,4.89-1.28,7.35-.82,4.88-1.25,7.22-.92,4.5-1.45,6.44a28.14,28.14,0,0,1-1.84,5,4.79,4.79,0,0,1-5.68,3.48,10.73,10.73,0,0,1-3.36-.81,10.15,10.15,0,0,1-2.86-1.81,5.62,5.62,0,0,1-1.66-2.56,34.39,34.39,0,0,1-1.33-7.94,89.51,89.51,0,0,1-.08-9.73c.14-3.4.42-6.85.82-10.34s.84-6.77,1.33-9.83,1-5.76,1.45-8.1S328.69,264.76,329,263.61Z"/><path d="M346.1,280.6c0-.35.49-.6,1.34-.75a14.79,14.79,0,0,1,2.83-.2,13.22,13.22,0,0,1,2.8.32c.83.19,1.23.47,1.19.82A102,102,0,0,0,352,294.42a77.69,77.69,0,0,0,.1,14.52c.05.88.21,1.42.47,1.61a.7.7,0,0,0,.9-.1,5.4,5.4,0,0,0,1.1-1.24c.39-.56.77-1.18,1.16-1.86s.73-1.33,1-2,.56-1.19.74-1.63q1-2.81,2-6.12c.64-2.21,1.24-4.43,1.8-6.69s1.1-4.5,1.6-6.76,1-4.4,1.44-6.44a1.41,1.41,0,0,1,.7-.52,1.35,1.35,0,0,1,.79,0,1.23,1.23,0,0,1,.65.41,1.05,1.05,0,0,1,.21.84c-.53,2.14-1,4.39-1.46,6.76s-.89,4.77-1.33,7.18-.9,4.77-1.39,7.06-1,4.42-1.63,6.36a30.15,30.15,0,0,1-2,5.08,8.54,8.54,0,0,1-2.68,3.2q-4.76.94-7.45-.11a5.26,5.26,0,0,1-3.39-3.3,33.69,33.69,0,0,1-1.07-7.18,76.89,76.89,0,0,1,.07-7.88q.24-4,.74-7.86T346.1,280.6Zm2.5-19.29c.27-.45.86-.62,1.79-.49a12.64,12.64,0,0,1,2.88.78,16.18,16.18,0,0,1,2.7,1.34c.81.5,1.22.92,1.22,1.26-.64,1.35-1.16,2.49-1.54,3.42l-1.09,2.64c-.35.83-.69,1.69-1,2.56s-.77,1.93-1.31,3.17a1.28,1.28,0,0,1-1,.52,3.4,3.4,0,0,1-1.44-.25,4.18,4.18,0,0,1-1.29-.79,1.44,1.44,0,0,1-.51-1.15q0-.84-.09-2.25c0-.95-.06-2,0-3.19s.08-2.42.18-3.72A27.27,27.27,0,0,1,348.6,261.31Z"/><path d="M400.87,273.41a11.11,11.11,0,0,1-2.92,2.88,12.86,12.86,0,0,1-3.79,1.72,11.46,11.46,0,0,1-4.17.31,9.33,9.33,0,0,1-4-1.41q-.34,4.23-.67,8.54a64.48,64.48,0,0,1-1.14,8.31,39.33,39.33,0,0,1-2.36,7.63,22.86,22.86,0,0,1-4.27,6.54,13.59,13.59,0,0,1-2.1.17c-1.07,0-2.21,0-3.39,0a22.44,22.44,0,0,1-3.25-.33c-1-.18-1.58-.44-1.79-.77a34,34,0,0,1-1.32-7,78.28,78.28,0,0,1-.27-8.21q.08-4.26.51-8.76t1.11-8.68c0-.39.43-.64,1.19-.75a9.89,9.89,0,0,1,2.49,0,11.5,11.5,0,0,1,2.49.59c.75.28,1.13.63,1.16,1.05a23.46,23.46,0,0,0-.62,2.88c-.21,1.22-.4,2.6-.59,4.14s-.36,3.19-.51,5-.28,3.52-.37,5.27-.16,3.43-.21,5,0,3,0,4.3a4.46,4.46,0,0,0,.48,2,.7.7,0,0,0,.83.37,2.35,2.35,0,0,0,1-.8c.36-.43.73-.9,1.11-1.43a18.59,18.59,0,0,0,2.62-6.38,58.38,58.38,0,0,0,1-7.22c.21-2.5.38-5.05.54-7.65a45.55,45.55,0,0,1,1.13-7.7c-.05-.37.21-.71.77-1a6.27,6.27,0,0,1,1.91-.68,7.75,7.75,0,0,1,2-.12c.63.05,1,.28,1.1.68a.45.45,0,0,0,0,.38,35.9,35.9,0,0,0,3.82,1.56,10.79,10.79,0,0,0,3.32.64,5.66,5.66,0,0,0,2.76-.6,5.54,5.54,0,0,0,2.12-2.13,1.63,1.63,0,0,1,1-.36,1.5,1.5,0,0,1,.89.32,1.38,1.38,0,0,1,.48.77A1.12,1.12,0,0,1,400.87,273.41Z"/><path d="M410.53,268.36a15.67,15.67,0,0,1,.39,6.26,22.14,22.14,0,0,1-1.77,6.17,24.67,24.67,0,0,1-3.31,5.4,19.51,19.51,0,0,1-4.21,4c.21,1.18.43,2.21.64,3.07a5.69,5.69,0,0,0,.9,2,3.21,3.21,0,0,0,2.51,2,5.16,5.16,0,0,0,3.37-1.49,16.63,16.63,0,0,0,4.56-5.75,44.17,44.17,0,0,0,2.93-7.7c.78-2.8,1.48-5.71,2.08-8.74s1.31-6,2.13-8.81a.84.84,0,0,1,1.34-.63,2,2,0,0,1,.69.69,1.6,1.6,0,0,1,.26.89q-.84,3.28-1.6,6.86t-1.56,7.17c-.52,2.39-1.08,4.69-1.65,6.91a47.81,47.81,0,0,1-2,6,22.9,22.9,0,0,1-2.49,4.72,7.57,7.57,0,0,1-3.17,2.75,6.78,6.78,0,0,1-3.8.54,14.24,14.24,0,0,1-4.24-1.24,16,16,0,0,1-3.86-2.51,11.88,11.88,0,0,1-2.73-3.34,11,11,0,0,1-1-3.58,30,30,0,0,1-.23-4.86,51.31,51.31,0,0,1,.47-5.49,48.91,48.91,0,0,1,1.09-5.49,32.23,32.23,0,0,1,1.6-4.78A13,13,0,0,1,400,266a3.35,3.35,0,0,1,2.56-1.13,9.88,9.88,0,0,1,3.37.47,12.5,12.5,0,0,1,3.07,1.4A3.24,3.24,0,0,1,410.53,268.36Zm-3.32.26a9.44,9.44,0,0,0-1.66,2.56,40.53,40.53,0,0,0-1.91,4.47,46,46,0,0,0-1.59,5.39,24.21,24.21,0,0,0-.68,5.29c.71-.74,1.28-1.35,1.71-1.84a9.85,9.85,0,0,0,1.05-1.41,12.78,12.78,0,0,0,.71-1.37c.21-.45.46-1,.77-1.63a10,10,0,0,0,.51-1.56c.19-.76.38-1.58.56-2.48s.34-1.81.49-2.74.26-1.77.33-2.52a10.6,10.6,0,0,0,0-1.73C407.5,268.63,407.39,268.49,407.21,268.62Z"/></g></g><rect class="cls-3" x="243" y="872" width="811" height="95" rx="5" ry="5"/><rect class="cls-5" x="243.5" y="872.5" width="810" height="94" rx="4.5" ry="4.5"/><g class="cls-12"><text class="cls-13" transform="translate(243 842)"><tspan class="cls-14">N</tspan><tspan x="29.19" y="0">ame </tspan><tspan class="cls-15" x="111.23" y="0">o</tspan><tspan class="cls-16" x="132.91" y="0">f</tspan><tspan x="145.86" y="0"> </tspan><tspan class="cls-17" x="155.84" y="0">R</tspan><tspan x="179.01" y="0">estau</tspan><tspan class="cls-18" x="271.59" y="0">r</tspan><tspan x="285.48" y="0">a</tspan><tspan class="cls-19" x="304.86" y="0">n</tspan><tspan class="cls-20" x="326.35" y="0">t</tspan></text></g><g class="cls-12"><text class="cls-21" transform="translate(264 934)"><tspan class="cls-22">K</tspan><tspan x="25.06" y="0">aa</tspan><tspan class="cls-23" x="62.83" y="0">k</tspan><tspan x="81.05" y="0">e </tspan><tspan class="cls-24" x="110.85" y="0">D</tspan><tspan x="139.25" y="0">a </tspan><tspan class="cls-25" x="167.86" y="0">D</tspan><tspan class="cls-26" x="196.4" y="0">haba</tspan></text></g><rect class="cls-3" x="243" y="1261" width="811" height="96" rx="5" ry="5"/><rect class="cls-5" x="243.5" y="1261.5" width="810" height="95" rx="4.5" ry="4.5"/><g class="cls-12"><text class="cls-27" transform="translate(243 1232)"><tspan class="cls-28">E</tspan><tspan x="21.41" y="0">mail ID </tspan><tspan class="cls-29" x="148.64" y="0">(</tspan><tspan class="cls-30" x="159.03" y="0">Y</tspan><tspan x="178.58" y="0">ou can use this </tspan><tspan class="cls-31" x="436.56" y="0">t</tspan><tspan x="450.09" y="0">o edit </tspan><tspan class="cls-32" x="555.17" y="0">M</tspan><tspan x="589.87" y="0">enu l</tspan><tspan class="cls-33" x="671.02" y="0">a</tspan><tspan class="cls-31" x="689.66" y="0">t</tspan><tspan x="703.18" y="0">e</tspan><tspan class="cls-34" x="723.25" y="0">r</tspan><tspan x="736.3" y="0">)</tspan></text></g><g class="cls-12"><text class="cls-21" transform="translate(264 1324)"><tspan class="cls-35">m</tspan><tspan class="cls-36" x="30.78" y="0">y</tspan><tspan x="49.84" y="0">emai</tspan><tspan class="cls-37" x="129.16" y="0">l</tspan><tspan class="cls-38" x="137.84" y="0">I</tspan><tspan x="147.91" y="0">d@gmail.</tspan><tspan class="cls-39" x="297.94" y="0">c</tspan><tspan x="315.74" y="0">om</tspan></text></g><rect class="cls-40" x="243" y="1077" width="290" height="74" rx="5" ry="5"/><rect class="cls-5" x="243.5" y="1077.5" width="289" height="73" rx="4.5" ry="4.5"/><g class="cls-12"><text class="cls-27" transform="translate(243 1037)"><tspan class="cls-41">L</tspan><tspan class="cls-31" x="18.13" y="0">o</tspan><tspan class="cls-42" x="39.58" y="0">g</tspan><tspan x="59.03" y="0">o (i</tspan><tspan class="cls-43" x="109.57" y="0">f</tspan><tspan class="cls-26" x="122.19" y="0" xml:space="preserve"> a</tspan><tspan class="cls-35" x="150.8" y="0">n</tspan><tspan class="cls-44" x="171.53" y="0">y</tspan><tspan class="cls-26" x="190.3" y="0">)</tspan></text></g><g class="cls-12"><text class="cls-21" transform="translate(551 1129)"><tspan class="cls-22">K</tspan><tspan x="25.06" y="0">aa</tspan><tspan class="cls-23" x="62.83" y="0">k</tspan><tspan x="81.05" y="0">e_</tspan><tspan class="cls-45" x="118.56" y="0">D</tspan><tspan x="146.97" y="0">a_</tspan><tspan class="cls-25" x="183.29" y="0">D</tspan><tspan class="cls-26" x="211.83" y="0">haba.jpg</tspan></text></g><g class="cls-12"><text class="cls-21" transform="translate(292 1129)">Choose file</text></g><g class="cls-12"><text class="cls-46" transform="translate(167 530)"><tspan class="cls-47">E</tspan><tspan x="35.09" y="0">dit </tspan><tspan class="cls-48" x="125.59" y="0">M</tspan><tspan x="184.15" y="0">enu</tspan></text></g><g class="cls-12"><text class="cls-49" transform="translate(167 630)"><tspan class="cls-50">P</tspan><tspan x="27.49" y="0">lease e</tspan><tspan class="cls-51" x="165.76" y="0">n</tspan><tspan class="cls-52" x="191.11" y="0">t</tspan><tspan x="207.48" y="0">e</tspan><tspan class="cls-53" x="231.77" y="0">r</tspan><tspan x="247.55" y="0" xml:space="preserve"> the </tspan><tspan class="cls-54" x="337.55" y="0">f</tspan><tspan x="352.91" y="0">oll</tspan><tspan class="cls-55" x="400.7" y="0">o</tspan><tspan x="426.44" y="0">wing d</tspan><tspan class="cls-56" x="560.74" y="0">e</tspan><tspan class="cls-57" x="584.86" y="0">tails </tspan><tspan class="cls-58" x="677.8" y="0">t</tspan><tspan class="cls-57" x="694.18" y="0">o c</tspan><tspan class="cls-59" x="754" y="0">r</tspan><tspan x="769.8" y="0">e</tspan><tspan class="cls-60" x="794.09" y="0">a</tspan><tspan class="cls-58" x="816.66" y="0">t</tspan><tspan x="833.03" y="0">e</tspan><tspan class="cls-61" x="857.32" y="0"> </tspan><tspan class="cls-62" x="867.95" y="0">y</tspan><tspan class="cls-63" x="891.01" y="0">ou</tspan><tspan class="cls-64" x="942.74" y="0">r</tspan><tspan class="cls-65" x="958.52" y="0"> </tspan><tspan x="968.64" y="0">Virtual menu.</tspan></text></g><path d="M474.1,522.21V532.4h10.2l30.06-30.06-10.19-10.19Zm48.14-27.76a2.71,2.71,0,0,0,0-3.83h0l-6.36-6.36a2.7,2.7,0,0,0-3.83,0h0l-5,5,10.2,10.2Z"/><g class="cls-12"><text class="cls-66" transform="translate(1493 726)"><tspan class="cls-67">F</tspan><tspan x="21.98" y="0">ill dum</tspan><tspan class="cls-68" x="135.39" y="0">m</tspan><tspan class="cls-69" x="166.98" y="0">y</tspan><tspan x="186.13" y="0" xml:space="preserve"> d</tspan><tspan class="cls-70" x="217.95" y="0">a</tspan><tspan x="237.08" y="0">ta</tspan></text></g><path class="cls-71" d="M1838.48,735.19H1787a5.15,5.15,0,0,1-5.15-5.15h0V699.15A5.14,5.14,0,0,1,1787,694h51.48a5.16,5.16,0,0,1,5.15,5.15V730A5.16,5.16,0,0,1,1838.48,735.19Zm-42.9-28.75v-4.29a1.28,1.28,0,0,0-1.29-1.28H1790a1.28,1.28,0,0,0-1.29,1.28v4.29a1.29,1.29,0,0,0,1.29,1.29h4.29a1.29,1.29,0,0,0,1.29-1.29Zm10.3,0v-4.29a1.28,1.28,0,0,0-1.29-1.28h-4.29a1.28,1.28,0,0,0-1.29,1.28h0v4.29a1.29,1.29,0,0,0,1.29,1.29h4.29a1.28,1.28,0,0,0,1.28-1.29h0Zm10.3,0v-4.29a1.28,1.28,0,0,0-1.29-1.28h-4.3a1.28,1.28,0,0,0-1.28,1.28h0v4.29a1.28,1.28,0,0,0,1.28,1.29h4.29a1.29,1.29,0,0,0,1.29-1.29h0Zm10.3,0v-4.29a1.28,1.28,0,0,0-1.29-1.28h-4.3a1.28,1.28,0,0,0-1.29,1.28v4.29a1.29,1.29,0,0,0,1.29,1.29h4.29a1.29,1.29,0,0,0,1.29-1.29Zm10.3,0v-4.29a1.28,1.28,0,0,0-1.29-1.28h-4.3a1.28,1.28,0,0,0-1.29,1.28v4.29a1.29,1.29,0,0,0,1.29,1.29h4.3a1.28,1.28,0,0,0,1.28-1.29Zm-36.06,10.3v-4.29a1.28,1.28,0,0,0-1.28-1.29h-4.29a1.29,1.29,0,0,0-1.29,1.29h0v4.29a1.29,1.29,0,0,0,1.29,1.29h4.29a1.28,1.28,0,0,0,1.28-1.29Zm10.3,0v-4.29a1.28,1.28,0,0,0-1.28-1.29h-4.29a1.29,1.29,0,0,0-1.29,1.29h0v4.29a1.29,1.29,0,0,0,1.29,1.29h4.29a1.28,1.28,0,0,0,1.28-1.29Zm10.3,0v-4.29a1.28,1.28,0,0,0-1.28-1.29h-4.3a1.29,1.29,0,0,0-1.29,1.29v4.29a1.29,1.29,0,0,0,1.29,1.29H1820a1.29,1.29,0,0,0,1.29-1.29Zm10.3,0v-4.29a1.28,1.28,0,0,0-1.28-1.29H1826a1.29,1.29,0,0,0-1.29,1.29h0v4.29A1.28,1.28,0,0,0,1826,718h4.3a1.3,1.3,0,0,0,1.29-1.29Zm-36,10.3v-4.29a1.29,1.29,0,0,0-1.29-1.29H1790a1.29,1.29,0,0,0-1.29,1.29h0V727a1.28,1.28,0,0,0,1.29,1.28h4.29A1.28,1.28,0,0,0,1795.58,727Zm30.89,0v-4.29a1.29,1.29,0,0,0-1.29-1.29H1800.3a1.29,1.29,0,0,0-1.29,1.29h0V727a1.28,1.28,0,0,0,1.29,1.28h24.88a1.28,1.28,0,0,0,1.29-1.28Zm10.3,0v-4.29a1.29,1.29,0,0,0-1.29-1.29h-4.29a1.29,1.29,0,0,0-1.29,1.29V727a1.28,1.28,0,0,0,1.29,1.28h4.3a1.28,1.28,0,0,0,1.28-1.28Z"/></g></g></g></svg>