<?xml version="1.0" encoding="utf-8"?>
<!-- Generator: Adobe Illustrator 22.1.0, SVG Export Plug-In . SVG Version: 6.00 Build 0)  -->
<svg version="1.1" id="ac370e99-250f-4203-ae2c-c306a69114f3"
	 xmlns="http://www.w3.org/2000/svg" xmlns:xlink="http://www.w3.org/1999/xlink" x="0px" y="0px" viewBox="0 0 1144 698"
	 style="enable-background:new 0 0 1144 698;" xml:space="preserve">
<style type="text/css">
	.st0{opacity:0.3;fill:#E0B300;enable-background:new    ;}
	.st1{opacity:0.2;}
	.st2{fill:#3F3D56;}
	.st3{fill:#E0B300;}
	.st4{opacity:0.3;enable-background:new    ;}
	.st5{fill:#FFFFFF;}
	.st6{opacity:0.5;}
	
		.st7{opacity:0.7;fill:none;stroke:#3F3D56;stroke-width:0.79;stroke-linecap:round;stroke-miterlimit:10;enable-background:new    ;}
	.st8{opacity:0.25;enable-background:new    ;}
	.st9{opacity:0.5;fill:#898484;enable-background:new    ;}
	.st10{fill:#F9F9F9;stroke:#303030;stroke-width:11.44;stroke-miterlimit:10;}
	.st11{fill:#303030;}
	.st12{fill:none;stroke:#303030;stroke-width:10;stroke-miterlimit:10;}
	.st13{fill:#303030;stroke:#303030;stroke-width:10;stroke-miterlimit:10;}
</style>
<title>kb_grubArtboard 1</title>
<path class="st0" d="M1023.5,330c0,26.1-7.1,51.8-20.6,74.1c0,27.3-12.7,52.1-33.4,70.1c-5.2,4.5-10.7,8.5-16.6,12.1l-0.7,0.4
	l-1.3,0.8l-0.4,0.3l0,0c-19.6,10.9-41.6,16.5-64,16.4H291.9c-4.7,0-9.4-0.2-14.1-0.6c-16.5-1.3-32.8-5.1-48.2-11.2
	c-3-1.2-6-2.5-8.9-3.8c-1.4-0.6-2.8-1.3-4.1-2c-0.8-0.4-1.7-0.9-2.5-1.3c-9.7-5.1-18.9-11.3-27.2-18.5c-26.8-23.1-43.5-55-43.5-90.1
	c-15.1-23.2-23.1-50.2-23-77.9c0-78.3,62.6-141.7,139.7-141.7c2.4,0,4.7,0.1,7.1,0.2c0.3,0,0.7,0,1,0.1c13-22.2,30.4-42.6,51.3-60.5
	C376.6,48,460,17.2,552.8,17.2c78,0,149.3,21.7,203.9,57.7c20.7-11.7,44.1-17.8,67.8-17.8c77.2,0,139.7,63.4,139.7,141.7
	c0,5-0.3,9.9-0.8,14.8C1001.3,240.3,1023.7,283.7,1023.5,330z"/>
<g class="st1">
	<path class="st2" d="M229.7,491.4c0,0.4,0,0.7-0.1,1.1c-3-1.2-6-2.5-8.9-3.8c-1.5-0.2-3-0.9-4.1-2c-0.8-0.4-1.7-0.9-2.5-1.3
		c0.2-0.4,0.4-0.8,0.6-1.1c1.8-3.6,6.2-5.1,9.8-3.3c1.6,0.8,2.8,2.1,3.5,3.8C229.3,486.7,229.8,489,229.7,491.4z"/>
	<path class="st2" d="M230.1,477.9c-0.1,2.4-0.7,4.7-2,6.7c-1.6,2.6-4.1,4.2-6.8,4.1h-0.6c-1.5-0.2-3-0.9-4.1-2
		c-0.8-0.7-1.4-1.5-1.9-2.5c-2.2-4.3-2.1-9.4,0.4-13.5c1.6-2.6,4.1-4.2,6.8-4.1c2.8,0.2,5.3,2,6.6,4.5
		C229.7,473.2,230.2,475.5,230.1,477.9z"/>
	
		<ellipse transform="matrix(3.158516e-02 -0.9995 0.9995 3.158516e-02 -248.7797 671.4542)" class="st2" cx="222.1" cy="464.1" rx="11.1" ry="8.5"/>
	
		<ellipse transform="matrix(3.158516e-02 -0.9995 0.9995 3.158516e-02 -234.8534 658.7943)" class="st2" cx="222.5" cy="450.6" rx="11.1" ry="8.5"/>
	
		<ellipse transform="matrix(3.001518e-02 -0.9995 0.9995 3.001518e-02 -219.6733 646.0574)" class="st2" cx="223" cy="436.2" rx="11.1" ry="8.5"/>
	<path class="st3" d="M194.3,343.6c-1.1-1.5-2.1-3.1-3-4.7l22.3-2.9l-24-0.6c-4.3-10.3-4.2-21.9,0.2-32.1l31.7,17.8l-29-22.8
		c11.7-19,36.7-24.9,55.7-13.2c19,11.7,24.9,36.7,13.2,55.7c-1,1.7-2.2,3.3-3.5,4.8c1.7,2.3,3.2,4.9,4.4,7.5l-29.2,14l31-9.3
		c4,13.1,1.1,27.3-7.8,37.8c13.3,18,9.4,43.3-8.6,56.6c-18,13.3-43.3,9.4-56.6-8.6c-11.1-15-10.4-35.7,1.6-50
		C181.6,378.6,182.2,357.9,194.3,343.6L194.3,343.6z"/>
	<path class="st4" d="M265.7,370.9c-0.3,9.1-3.6,17.8-9.5,24.7c13.3,18,9.4,43.3-8.6,56.6c-18,13.3-43.3,9.4-56.6-8.6
		c-11.1-15-10.4-35.7,1.6-50C187.5,386.6,265.9,366.3,265.7,370.9z"/>
</g>
<path class="st5" d="M876.7,111.6v391.6c0.1,8.1-6.4,14.9-14.5,15H281.8c-1.4,0-2.7-0.2-4-0.6c-6.3-2-10.6-7.8-10.5-14.5v-344
	c0.3,0,0.7,0,1,0.1c13-23,30.4-44.1,51.3-62.6h542.5C870.3,96.7,876.8,103.4,876.7,111.6z"/>
<path class="st3" d="M361,142.1h46.8c4.6,0,8.4,3.8,8.4,8.4v0c0,4.6-3.8,8.4-8.4,8.4H361c-4.6,0-8.4-3.8-8.4-8.4v0
	C352.5,145.9,356.3,142.1,361,142.1z"/>
<path class="st3" d="M361,165.8h159.8c4.6,0,8.4,3.8,8.4,8.4v0c0,4.6-3.8,8.4-8.4,8.4H361c-4.6,0-8.4-3.8-8.4-8.4v0
	C352.5,169.5,356.3,165.8,361,165.8z"/>
<path class="st3" d="M361,189.4h159.8c4.6,0,8.4,3.8,8.4,8.4v0c0,4.6-3.8,8.4-8.4,8.4H361c-4.6,0-8.4-3.8-8.4-8.4v0
	C352.5,193.2,356.3,189.4,361,189.4z"/>
<g class="st6">
	<path class="st3" d="M361,235.7h46.8c4.6,0,8.4,3.8,8.4,8.4v0c0,4.6-3.8,8.4-8.4,8.4H361c-4.6,0-8.4-3.8-8.4-8.4v0
		C352.5,239.4,356.3,235.7,361,235.7z"/>
	<path class="st3" d="M734.3,259.3h46.8c4.6,0,8.4,3.8,8.4,8.4l0,0c0,4.6-3.8,8.4-8.4,8.4h-46.8c-4.6,0-8.4-3.8-8.4-8.4l0,0
		C725.9,263.1,729.7,259.3,734.3,259.3z"/>
	<path class="st3" d="M734.3,352.9h46.8c4.6,0,8.4,3.8,8.4,8.4l0,0c0,4.6-3.8,8.4-8.4,8.4h-46.8c-4.6,0-8.4-3.8-8.4-8.4l0,0
		C725.9,356.6,729.7,352.9,734.3,352.9z"/>
	<path class="st3" d="M734.3,445.1h46.8c4.6,0,8.4,3.8,8.4,8.4l0,0c0,4.6-3.8,8.4-8.4,8.4h-46.8c-4.6,0-8.4-3.8-8.4-8.4l0,0
		C725.9,448.9,729.7,445.1,734.3,445.1z"/>
	<path class="st3" d="M735.9,165.8h46.8c4.6,0,8.4,3.8,8.4,8.4v0c0,4.6-3.8,8.4-8.4,8.4h-46.8c-4.6,0-8.4-3.8-8.4-8.4v0
		C727.5,169.5,731.3,165.8,735.9,165.8z"/>
	<path class="st3" d="M361,259.3h115c4.6,0,8.4,3.8,8.4,8.4l0,0c0,4.6-3.8,8.4-8.4,8.4H361c-4.6,0-8.4-3.8-8.4-8.4l0,0
		C352.5,263.1,356.3,259.3,361,259.3z"/>
	<path class="st3" d="M361,283h159.8c4.6,0,8.4,3.8,8.4,8.4l0,0c0,4.6-3.8,8.4-8.4,8.4H361c-4.6,0-8.4-3.8-8.4-8.4l0,0
		C352.5,286.7,356.3,283,361,283z"/>
</g>
<path class="st3" d="M361,329.2h46.8c4.6,0,8.4,3.8,8.4,8.4l0,0c0,4.6-3.8,8.4-8.4,8.4H361c-4.6,0-8.4-3.8-8.4-8.4l0,0
	C352.5,333,356.3,329.2,361,329.2z"/>
<path class="st3" d="M361,352.9h159.8c4.6,0,8.4,3.8,8.4,8.4l0,0c0,4.6-3.8,8.4-8.4,8.4H361c-4.6,0-8.4-3.8-8.4-8.4l0,0
	C352.5,356.6,356.3,352.9,361,352.9z"/>
<path class="st3" d="M361,376.5h92.9c4.6,0,8.4,3.8,8.4,8.4l0,0c0,4.6-3.8,8.4-8.4,8.4H361c-4.6,0-8.4-3.8-8.4-8.4l0,0
	C352.5,380.3,356.3,376.5,361,376.5z"/>
<path class="st3" d="M361,422.8h46.8c4.6,0,8.4,3.8,8.4,8.4l0,0c0,4.6-3.8,8.4-8.4,8.4H361c-4.6,0-8.4-3.8-8.4-8.4l0,0
	C352.5,426.6,356.3,422.8,361,422.8z"/>
<path class="st3" d="M361,446.5h159.8c4.6,0,8.4,3.8,8.4,8.4l0,0c0,4.6-3.8,8.4-8.4,8.4H361c-4.6,0-8.4-3.8-8.4-8.4l0,0
	C352.5,450.2,356.3,446.5,361,446.5z"/>
<path class="st3" d="M361,470.1h125.3c4.6,0,8.4,3.8,8.4,8.4l0,0c0,4.6-3.8,8.4-8.4,8.4H361c-4.6,0-8.4-3.8-8.4-8.4l0,0
	C352.5,473.9,356.3,470.1,361,470.1z"/>
<line class="st7" x1="325.7" y1="221.4" x2="840.4" y2="221.4"/>
<line class="st7" x1="325.7" y1="316.5" x2="840.4" y2="316.5"/>
<line class="st7" x1="325.7" y1="411.6" x2="840.4" y2="411.6"/>
<line class="st7" x1="325.7" y1="505.1" x2="840.4" y2="505.1"/>
<ellipse class="st0" cx="585" cy="677.5" rx="147.7" ry="10.5"/>
<circle class="st0" cx="176.1" cy="113.6" r="17.1"/>
<circle class="st0" cx="160.7" cy="21.6" r="21.6"/>
<circle class="st0" cx="241.5" cy="84" r="28.6"/>
<path class="st4" d="M710,281.9h75.7c5.2,0,9.4,4.2,9.4,9.5l0,0c0,5.2-4.2,9.4-9.4,9.4l0,0H710c-5.2,0-9.4-4.2-9.5-9.4l0,0
	C700.5,286.2,704.8,281.9,710,281.9L710,281.9z"/>
<path class="st4" d="M712.6,374.8h75.7c5.2,0,9.5,4.2,9.5,9.4v0l0,0c0,5.2-4.2,9.4-9.5,9.4h-75.7c-5.2,0-9.4-4.2-9.5-9.4l0,0
	C703.2,379,707.4,374.8,712.6,374.8L712.6,374.8z"/>
<path class="st4" d="M710,468.7h75.7c5.2,0,9.4,4.2,9.4,9.4l0,0l0,0c0,5.2-4.2,9.4-9.4,9.4l0,0H710c-5.2,0-9.4-4.2-9.5-9.4
	c0,0,0,0,0,0l0,0C700.5,472.9,704.8,468.7,710,468.7C710,468.7,710,468.7,710,468.7z"/>
<path class="st8" d="M545.2,112.7h75.7c5.2,0,9.4,4.2,9.5,9.4c0,0,0,0,0,0l0,0c0,5.2-4.2,9.4-9.5,9.4l0,0h-75.7
	c-5.2,0-9.5-4.2-9.5-9.4v0l0,0C535.7,116.9,540,112.7,545.2,112.7C545.2,112.7,545.2,112.7,545.2,112.7z"/>
<path class="st4" d="M710,188.4h75.7c5.2,0,9.4,4.2,9.4,9.4l0,0c0,5.2-4.2,9.4-9.4,9.4l0,0H710c-5.2,0-9.4-4.2-9.5-9.4c0,0,0,0,0,0
	l0,0C700.5,192.6,704.8,188.4,710,188.4L710,188.4z"/>
<path class="st4" d="M760.3,372c0.4,0.8,0.6,1.7,0.6,2.6c-0.4-1.9-3-3-3.2-4.9c-0.1-0.9,0.1-0.8,0.6-0.4
	C759.2,370,759.5,371.2,760.3,372z"/>
<path class="st4" d="M752.2,377.8c0.6,0.5,1,1.1,1.2,1.8c0.4,1,0.5,2.1,0.2,3.1c-0.4-0.3-0.6-0.6-0.6-1.1c-0.2-0.6-0.4-1.3-0.8-1.8
	c-0.3-0.5-1.8-1.7-1.8-2.2C750.5,376.8,751.8,377.5,752.2,377.8z"/>
<ellipse class="st3" cx="891.7" cy="522.6" rx="26.8" ry="5.2"/>
<ellipse class="st2" cx="892.2" cy="520.4" rx="3.1" ry="4.1"/>
<ellipse class="st2" cx="892.2" cy="515.4" rx="3.1" ry="4.1"/>
<ellipse class="st2" cx="892.2" cy="510.4" rx="3.1" ry="4.1"/>
<ellipse class="st2" cx="892.2" cy="505.4" rx="3.1" ry="4.1"/>
<ellipse class="st2" cx="892.2" cy="500.4" rx="3.1" ry="4.1"/>
<ellipse class="st2" cx="892.2" cy="495.5" rx="3.1" ry="4.1"/>
<ellipse class="st2" cx="892.2" cy="490.5" rx="3.1" ry="4.1"/>
<path class="st3" d="M880.5,456.3c-0.4-0.5-0.8-1.1-1.2-1.7l8.2-1.4l-8.9,0.1c-1.7-3.7-1.8-8-0.3-11.8l11.9,6.2l-11-8.1
	c3.5-7.5,12.5-10.7,20-7.2c7.5,3.5,10.7,12.5,7.2,20c-0.3,0.7-0.7,1.4-1.2,2.1c-0.4,0.6-0.8,1.3-1.2,1.8c0.7,0.8,1.2,1.7,1.7,2.7
	l-10.6,5.5l11.3-3.8c1.6,4.8,0.7,10-2.4,14c5.1,6.5,4,15.9-2.5,21c-6.5,5.1-15.9,4-21-2.5c-4.3-5.4-4.3-13,0-18.5
	C876.3,469.3,876.3,461.7,880.5,456.3L880.5,456.3z"/>
<path class="st4" d="M907.2,465.5c0,3.4-1.1,6.6-3.2,9.2c5.1,6.5,4,15.9-2.5,21c-6.5,5.1-15.9,4-21-2.5c-4.3-5.4-4.3-13,0-18.5
	C878.5,472.2,907.2,463.9,907.2,465.5z"/>
<ellipse class="st3" cx="943.9" cy="465.4" rx="18" ry="3.5"/>
<ellipse class="st2" cx="944.2" cy="463.9" rx="2.1" ry="2.8"/>
<ellipse class="st2" cx="944.2" cy="460.5" rx="2.1" ry="2.8"/>
<ellipse class="st2" cx="944.2" cy="457.2" rx="2.1" ry="2.8"/>
<ellipse class="st2" cx="944.2" cy="453.8" rx="2.1" ry="2.8"/>
<ellipse class="st2" cx="944.2" cy="450.5" rx="2.1" ry="2.8"/>
<ellipse class="st2" cx="944.2" cy="447.1" rx="2.1" ry="2.8"/>
<ellipse class="st2" cx="944.2" cy="443.8" rx="2.1" ry="2.8"/>
<path class="st3" d="M936.4,420.8c-0.3-0.4-0.6-0.8-0.8-1.2l5.5-0.9h-6c-0.6-1.3-0.9-2.7-0.9-4.2c0-1.3,0.2-2.6,0.7-3.8l8,4.1
	l-7.4-5.4c2.7-4.8,8.9-6.5,13.7-3.8c4.8,2.7,6.5,8.9,3.8,13.7l0,0c-0.3,0.5-0.6,0.9-0.9,1.3c0.4,0.6,0.8,1.2,1.2,1.8l-7.2,3.7
	l7.6-2.6c1.1,3.2,0.5,6.8-1.6,9.5c3.4,4.4,2.7,10.7-1.7,14.1c-4.4,3.4-10.7,2.7-14.1-1.7c-2.9-3.7-2.9-8.8,0-12.5
	C933.4,429.6,933.4,424.4,936.4,420.8L936.4,420.8z"/>
<path class="st4" d="M954.3,427c0,2.3-0.7,4.4-2.1,6.2c3.4,4.4,2.7,10.7-1.7,14.1c-4.4,3.4-10.7,2.7-14.1-1.7
	c-2.9-3.7-2.9-8.8,0-12.5C935,431.5,954.3,425.9,954.3,427z"/>
<circle class="st9" cx="516.6" cy="122.1" r="11.5"/>
<path class="st10" d="M495.9,252.4h193.4c6.6,0,12,5.4,12,12v399c0,6.6-5.4,12-12,12H495.9c-6.6,0-12-5.4-12-12v-399
	C483.9,257.8,489.3,252.4,495.9,252.4z"/>
<rect x="570.5" y="422.9" class="st11" width="18.5" height="76.1"/>
<rect x="599.7" y="482.6" class="st11" width="77.5" height="17.2"/>
<rect x="508.4" y="482" class="st11" width="77.5" height="17.2"/>
<rect x="605.7" y="341" class="st12" width="65.7" height="65.7"/>
<rect x="543" y="368" class="st13" width="13.7" height="13.7"/>
<rect x="631.6" y="368" class="st13" width="13.7" height="13.7"/>
<rect x="542" y="453.4" class="st13" width="13.7" height="13.7"/>
<rect x="599.7" y="422.8" class="st11" width="18" height="63.6"/>
<rect x="507.6" y="426.5" class="st11" width="18" height="72.4"/>
<rect x="630.4" y="445.1" class="st11" width="41" height="15"/>
<rect x="507.6" y="423.7" class="st11" width="57.9" height="15"/>
<rect x="570.5" y="335.7" class="st11" width="18.5" height="76.1"/>
<rect x="508.4" y="394.8" class="st11" width="77.5" height="17.2"/>
<rect x="507.6" y="339.3" class="st11" width="18" height="72.4"/>
<rect x="507.6" y="335.7" class="st11" width="81.4" height="17.2"/>
<rect x="657.7" y="419.7" class="st11" width="13.7" height="25.5"/>
<rect x="599.7" y="422.8" class="st11" width="44.4" height="22.3"/>
<rect x="637.2" y="433.7" class="st11" width="23.1" height="11.4"/>
</svg>
